<?xml version="1.0" encoding="iso-8859-1"?>
<!-- Generator: Adobe Illustrator 16.0.3, SVG Export Plug-In . SVG Version: 6.00 Build 0)  -->
<!DOCTYPE svg PUBLIC "-//W3C//DTD SVG 1.1//EN" "http://www.w3.org/Graphics/SVG/1.1/DTD/svg11.dtd">
<svg version="1.1" id="Layer_1" xmlns="http://www.w3.org/2000/svg" xmlns:xlink="http://www.w3.org/1999/xlink" x="0px" y="0px"
	 width="80px" height="103.25px" viewBox="0 0 80 103.25" style="enable-background:new 0 0 80 103.25;" xml:space="preserve">
<g>
	<defs>
		<rect id="SVGID_1_" width="80" height="103.25"/>
	</defs>
	<clipPath id="SVGID_2_">
		<use xlink:href="#SVGID_1_"  style="overflow:visible;"/>
	</clipPath>
	<path style="clip-path:url(#SVGID_2_);fill:#FFFFFF;" d="M74.669,0H5.331C2.392,0,0,2.653,0,5.913v91.427
		c0,3.26,2.392,5.91,5.331,5.91h69.339c2.939,0,5.331-2.65,5.331-5.91V5.913C80,2.653,77.609,0,74.669,0"/>
	<path style="clip-path:url(#SVGID_2_);fill:#008139;" d="M74.669,0H5.331C2.392,0,0,2.653,0,5.913v91.427
		c0,3.26,2.392,5.91,5.331,5.91h69.339c2.939,0,5.331-2.65,5.331-5.91V5.913C80,2.653,77.609,0,74.669,0 M3.981,23.132h72.015
		c0.343,0,0.673-0.08,0.991-0.218v57.141c-0.318-0.139-0.648-0.218-0.991-0.218H3.981c-0.334,0-0.658,0.077-0.967,0.209V22.924
		C3.323,23.056,3.646,23.132,3.981,23.132z"/>
	<path style="clip-path:url(#SVGID_2_);fill:#FFFFFF;" d="M11.177,86.981c0-2.58,1.359-4.054,3.847-4.054
		c2.488,0,3.847,1.474,3.847,4.054v8.384c0,2.579-1.359,4.054-3.847,4.054c-2.488,0-3.847-1.475-3.847-4.054V86.981 M13.711,95.526
		c0,1.153,0.506,1.589,1.313,1.589c0.807,0,1.313-0.437,1.313-1.589v-8.706c0-1.152-0.506-1.591-1.313-1.591
		c-0.806,0-1.313,0.439-1.313,1.591V95.526z M25.802,99.235c-0.139-0.414-0.23-0.667-0.23-1.981V94.72
		c0-1.497-0.507-2.05-1.658-2.05h-0.875v6.565h-2.534V83.111h3.823c2.626,0,3.755,1.221,3.755,3.71v1.266
		c0,1.659-0.529,2.718-1.658,3.248v0.046c1.267,0.531,1.682,1.727,1.682,3.409v2.487c0,0.783,0.023,1.358,0.276,1.958H25.802z
		 M23.038,85.416v4.952h0.991c0.944,0,1.52-0.416,1.52-1.705v-1.589c0-1.153-0.391-1.658-1.29-1.658H23.038z M33.562,90.251h3.547
		v5.114c0,2.579-1.29,4.054-3.777,4.054s-3.777-1.475-3.777-4.054v-8.384c0-2.58,1.29-4.054,3.777-4.054s3.777,1.474,3.777,4.054
		v1.566h-2.395v-1.727c0-1.152-0.507-1.591-1.313-1.591c-0.806,0-1.313,0.439-1.313,1.591v8.706c0,1.153,0.507,1.568,1.313,1.568
		c0.807,0,1.313-0.415,1.313-1.568v-2.972h-1.152V90.251z M46.92,99.235h-2.557l-0.438-2.925h-3.11l-0.438,2.925h-2.327l2.58-16.124
		h3.709L46.92,99.235z M41.138,94.122h2.442l-1.198-8.154h-0.046L41.138,94.122z M50.397,87.557H50.35v11.678h-2.28V83.111h3.178
		l2.557,9.651h0.047v-9.651h2.256v16.124h-2.602L50.397,87.557z M57.925,83.111h2.535v16.124h-2.535V83.111z M69.649,93.223v2.143
		c0,2.579-1.289,4.054-3.777,4.054s-3.777-1.475-3.777-4.054v-8.384c0-2.58,1.289-4.054,3.777-4.054s3.777,1.474,3.777,4.054v1.566
		h-2.395v-1.727c0-1.152-0.507-1.591-1.313-1.591c-0.806,0-1.313,0.439-1.313,1.591v8.706c0,1.153,0.508,1.568,1.313,1.568
		c0.807,0,1.313-0.415,1.313-1.568v-2.303H69.649z M13.954,13.593v2.143c0,2.58-1.29,4.054-3.777,4.054
		c-2.487,0-3.777-1.474-3.777-4.054V7.351c0-2.581,1.29-4.055,3.777-4.055c2.488,0,3.777,1.474,3.777,4.055v1.566h-2.395V7.189
		c0-1.151-0.507-1.588-1.313-1.588S8.932,6.038,8.932,7.189v8.707c0,1.152,0.507,1.567,1.313,1.567s1.313-0.416,1.313-1.567v-2.303
		H13.954z M18.029,10.277h3.478v2.303h-3.478v4.721h4.377v2.303h-6.91V3.482h6.91v2.303h-4.377V10.277z M29.268,19.604
		c-0.138-0.414-0.23-0.667-0.23-1.98v-2.533c0-1.498-0.507-2.05-1.658-2.05h-0.875v6.564H23.97V3.482h3.823
		c2.626,0,3.755,1.22,3.755,3.708v1.268c0,1.659-0.529,2.718-1.658,3.248v0.046c1.267,0.53,1.682,1.728,1.682,3.409v2.488
		c0,0.784,0.022,1.359,0.276,1.958H29.268z M26.504,5.785v4.951h0.991c0.944,0,1.52-0.414,1.52-1.704V7.443
		c0-1.151-0.391-1.659-1.291-1.659H26.504z M32.491,3.482h7.832v2.303h-2.649v13.82h-2.535V5.785h-2.648V3.482z M41.426,3.482h2.535
		v16.123h-2.535V3.482z M48.335,10.645h3.271v2.304h-3.271v6.656h-2.534V3.482h6.703v2.303h-4.169V10.645z M53.724,3.482h2.533
		v16.123h-2.533V3.482z M60.633,10.277h3.478v2.303h-3.478v4.721h4.375v2.303H58.1V3.482h6.909v2.303h-4.375V10.277z M66.574,3.482
		h4.008c2.534,0,3.777,1.405,3.777,3.985v8.153c0,2.58-1.243,3.985-3.777,3.985h-4.008V3.482z M69.107,5.785v11.517h1.429
		c0.807,0,1.291-0.414,1.291-1.565V7.351c0-1.151-0.484-1.566-1.291-1.566H69.107z"/>
</g>
<g>
	<defs>
		<ellipse id="SVGID_3_" cx="41.539" cy="55.342" rx="20.907" ry="21.044"/>
	</defs>
	<clipPath id="SVGID_4_">
		<use xlink:href="#SVGID_3_"  style="overflow:visible;"/>
	</clipPath>
	
		<linearGradient id="SVGID_5_" gradientUnits="userSpaceOnUse" x1="-242.2861" y1="489.3823" x2="-241.532" y2="489.3823" gradientTransform="matrix(0 -112.475 -112.475 0 55084.8164 -27132.0234)">
		<stop  offset="0" style="stop-color:#00BDF2"/>
		<stop  offset="0.2079" style="stop-color:#00BDF2"/>
		<stop  offset="0.8764" style="stop-color:#FFFFFF"/>
		<stop  offset="1" style="stop-color:#FFFFFF"/>
	</linearGradient>
	<path style="clip-path:url(#SVGID_4_);fill:url(#SVGID_5_);" d="M62.446,55.342c0,11.621-9.36,21.044-20.907,21.044
		c-11.547,0-20.907-9.423-20.907-21.044c0-11.624,9.36-21.045,20.907-21.045C53.085,34.297,62.446,43.718,62.446,55.342"/>
</g>
<g>
	<defs>
		<rect id="SVGID_6_" width="80" height="103.25"/>
	</defs>
	<clipPath id="SVGID_7_">
		<use xlink:href="#SVGID_6_"  style="overflow:visible;"/>
	</clipPath>
	<path style="clip-path:url(#SVGID_7_);" d="M21.424,71.31c-4.436-4.557-5.834-8.993-5.834-14.705
		c0-12.033,9.906-22.972,26.678-22.972c6.441,0,11.546,1.034,16.833,4.922c4.8,3.526,7.353,9.419,7.353,15.072
		c0,14.888-11.303,24.488-26.251,24.488C34.065,78.117,27.076,77.083,21.424,71.31 M59.04,58.064
		c0-12.884-8.932-22.121-19.021-22.121c-8.324,0-17.44,5.591-17.44,18.109c0,10.879,8.75,21.574,20.601,21.574
		C51.869,75.626,59.04,67.788,59.04,58.064z"/>
</g>
<g>
	<defs>
		<path id="SVGID_8_" d="M32.055,27.67c1.798-1.999,4.368-3.306,6.708-2.596c3.126,0.947,2.056,3.432,2.056,3.432
			s3.937-0.65,5.436,2.07c1.773,3.22,0.379,8.366-5.634,9.012C29.523,40.779,29.103,43.4,29.103,43.4S27.397,32.849,32.055,27.67z"
			/>
	</defs>
	<clipPath id="SVGID_9_">
		<use xlink:href="#SVGID_8_"  style="overflow:visible;"/>
	</clipPath>
	
		<linearGradient id="SVGID_10_" gradientUnits="userSpaceOnUse" x1="-269.9702" y1="481.9722" x2="-269.2168" y2="481.9722" gradientTransform="matrix(-13.4249 9.7966 9.7966 13.4249 -8303.6211 -3795.8491)">
		<stop  offset="0" style="stop-color:#5BBA47"/>
		<stop  offset="1" style="stop-color:#C1D82F"/>
	</linearGradient>
	<path style="clip-path:url(#SVGID_9_);fill:url(#SVGID_10_);" d="M32.055,27.67c1.798-1.999,4.368-3.306,6.708-2.596
		c3.126,0.947,2.056,3.432,2.056,3.432s3.937-0.65,5.436,2.07c1.773,3.22,0.379,8.366-5.634,9.012
		C29.523,40.779,29.103,43.4,29.103,43.4S27.397,32.849,32.055,27.67"/>
</g>
<g>
	<defs>
		<rect id="SVGID_11_" width="80" height="103.25"/>
	</defs>
	<clipPath id="SVGID_12_">
		<use xlink:href="#SVGID_11_"  style="overflow:visible;"/>
	</clipPath>
	<path style="clip-path:url(#SVGID_12_);" d="M31.584,27.264c-3.814,4.242-3.343,11.719-3.045,14.829
		c0.076,0.801,0.41,2.193,0.41,2.193s0.149-0.899,0.701-1.44c0.563-0.553,0.854-1.936,10.939-3.02
		c2.842-0.305,5.124-1.248,6.242-3.331c0.614-1.145,0.859-2.45,0.74-3.718c-0.083-0.869-0.338-1.719-0.764-2.491
		c-1.235-2.247-3.823-2.498-5.196-2.46c0.016-0.177,0.019-0.372-0.001-0.578c-0.029-0.3-0.104-0.62-0.257-0.944
		c-0.403-0.846-1.212-1.458-2.404-1.817C36.589,23.772,33.767,24.836,31.584,27.264 M39.819,29.292l1.104-0.179
		c0.036-0.007,3.515-0.538,4.777,1.753c0.346,0.628,0.553,1.32,0.621,2.024c0.098,1.035-0.103,2.098-0.604,3.033
		c-0.917,1.709-2.752,2.794-5.167,3.053c-6.672,0.717-9.99,2.296-11.326,3.282c-0.266-2.967-0.207-11.095,3.233-14.918
		c1.452-1.613,3.873-2.361,6.118-1.682c0.834,0.252,1.382,0.641,1.631,1.153c0.339,0.699,0.035,1.452,0.032,1.46L39.819,29.292z
		 M31.584,27.264L31.584,27.264z"/>
	<path style="clip-path:url(#SVGID_12_);" d="M40.838,28.085c0,0-7.684,2.003-10.165,9.735l0.259,0.121c0,0,2.566-7.884,10.69-8.909
		L40.838,28.085"/>
	<path style="clip-path:url(#SVGID_12_);" d="M59.643,74.776c0-1.137,0.882-2.066,1.973-2.066c1.085,0,1.963,0.929,1.963,2.066
		c0,1.147-0.878,2.078-1.963,2.078C60.525,76.854,59.643,75.924,59.643,74.776 M63.266,74.776c0-1.006-0.696-1.792-1.65-1.792
		c-0.961,0-1.663,0.786-1.663,1.792c0,1.016,0.702,1.803,1.663,1.803C62.57,76.58,63.266,75.792,63.266,74.776z M62.596,75.935
		h-0.32l-0.629-1.065h-0.493v1.065h-0.27v-2.313h0.96c0.581,0,0.778,0.231,0.778,0.613c0,0.454-0.302,0.623-0.689,0.635
		L62.596,75.935z M61.563,74.645c0.313,0,0.77,0.055,0.77-0.415c0-0.36-0.282-0.404-0.551-0.404h-0.628v0.819H61.563z"/>
</g>
<g>
	<defs>
		<path id="SVGID_13_" d="M51.5,30.548c-1.455-1.43-3.323-2.271-4.765-1.558c-1.93,0.954-0.888,2.815-0.888,2.815
			s-2.678-0.234-3.293,1.986c-0.73,2.628,0.889,6.537,4.934,6.625c7.462,0.162,8.097,2.171,8.097,2.171S55.27,34.257,51.5,30.548z"
			/>
	</defs>
	<clipPath id="SVGID_14_">
		<use xlink:href="#SVGID_13_"  style="overflow:visible;"/>
	</clipPath>
	
		<linearGradient id="SVGID_15_" gradientUnits="userSpaceOnUse" x1="-232.5483" y1="512.3374" x2="-231.7949" y2="512.3374" gradientTransform="matrix(17.5233 0 0 -17.5233 4117.4067 9013.4805)">
		<stop  offset="0" style="stop-color:#5BBA47"/>
		<stop  offset="1" style="stop-color:#C1D82F"/>
	</linearGradient>
	<path style="clip-path:url(#SVGID_14_);fill:url(#SVGID_15_);" d="M51.5,30.548c-1.455-1.43-3.323-2.271-4.765-1.558
		c-1.93,0.954-0.888,2.815-0.888,2.815s-2.678-0.234-3.293,1.986c-0.73,2.628,0.889,6.537,4.934,6.625
		c7.462,0.162,8.097,2.171,8.097,2.171S55.27,34.257,51.5,30.548"/>
</g>
<g>
	<defs>
		<rect id="SVGID_16_" width="80" height="103.25"/>
	</defs>
	<clipPath id="SVGID_17_">
		<use xlink:href="#SVGID_16_"  style="overflow:visible;"/>
	</clipPath>
	<path style="clip-path:url(#SVGID_17_);" d="M46.532,28.546c-0.735,0.363-1.184,0.894-1.333,1.58
		c-0.057,0.262-0.064,0.519-0.042,0.753c0.015,0.162,0.043,0.313,0.078,0.45c-0.909,0.066-2.577,0.44-3.085,2.272
		c-0.175,0.632-0.226,1.312-0.163,1.993c0.093,0.997,0.434,1.995,0.993,2.844c1.02,1.543,2.649,2.118,4.562,2.16
		c6.783,0.146,7.162,1.204,7.607,1.594c0.437,0.384,0.656,1.074,0.656,1.074s0.031-1.106-0.028-1.735
		c-0.228-2.441-0.935-8.294-4.021-11.332C49.987,28.461,47.986,27.826,46.532,28.546 M46.198,31.581
		c-0.003-0.005-0.306-0.571-0.179-1.137c0.095-0.416,0.403-0.755,0.917-1.008c1.383-0.687,3.078-0.271,4.254,0.884
		c2.783,2.738,3.929,9.06,4.158,11.389c-1.013-0.675-3.411-1.676-7.898-1.773c-1.625-0.035-2.979-0.752-3.815-2.021
		c-0.457-0.69-0.734-1.504-0.81-2.316c-0.052-0.554-0.01-1.108,0.132-1.62c0.519-1.872,2.881-1.697,2.904-1.695l0.751,0.064
		L46.198,31.581z M51.754,30.198L51.754,30.198z"/>
	<path style="clip-path:url(#SVGID_17_);" d="M45.776,31.477c0,0,5.33,1.029,8.015,6.876l-0.155,0.113c0,0-2.762-5.961-8.248-6.197
		L45.776,31.477"/>
	<path style="clip-path:url(#SVGID_17_);" d="M29.982,49.394c0,2.785-1.233,3.828-2.477,3.828c-1.242,0-2.477-1.042-2.477-3.828
		c0-2.784,1.235-3.827,2.477-3.827C28.749,45.567,29.982,46.61,29.982,49.394 M27.505,51.864c0.927,0,0.992-1.879,0.992-2.47
		c0-0.659-0.065-2.469-0.992-2.469c-0.925,0-0.99,1.81-0.99,2.469C26.515,49.985,26.581,51.864,27.505,51.864z"/>
	<path style="clip-path:url(#SVGID_17_);" d="M30.72,53.104v-7.419h1.402c0.888,0,2.477,0.099,2.477,2.125
		c0,0.816-0.309,1.515-1.001,1.918l1.225,3.375h-1.468l-1.224-3.424h-0.019v3.424H30.72 M32.113,48.873l0.243,0.01
		c0.636,0,0.888-0.452,0.888-1.062c0-0.532-0.243-0.964-0.943-0.925h-0.187V48.873z"/>
	<polyline style="clip-path:url(#SVGID_17_);" points="38.478,45.685 38.478,47.063 37.067,47.063 37.067,48.677 38.31,48.677 
		38.31,50.054 37.067,50.054 37.067,51.727 38.497,51.727 38.497,53.104 35.674,53.104 35.674,45.685 38.478,45.685 	"/>
	<path style="clip-path:url(#SVGID_17_);" d="M43.863,48.971v0.581c0,1.574-0.365,3.67-2.263,3.67s-2.514-2.145-2.514-3.788
		c0-1.713,0.523-3.867,2.514-3.867c1.076,0,1.776,0.708,2.075,1.76l-1.354,0.551c-0.065-0.374-0.179-0.954-0.711-0.954
		c-0.944-0.059-1.037,1.771-1.037,2.469c0,0.768,0.047,2.47,1.074,2.47c0.711,0,0.823-1.003,0.823-1.515h-0.889v-1.378H43.863"/>
	<path style="clip-path:url(#SVGID_17_);" d="M49.302,49.394c0,2.785-1.233,3.828-2.477,3.828c-1.242,0-2.477-1.042-2.477-3.828
		c0-2.784,1.234-3.827,2.477-3.827C48.069,45.567,49.302,46.61,49.302,49.394 M46.825,51.864c0.927,0,0.992-1.879,0.992-2.47
		c0-0.659-0.065-2.469-0.992-2.469c-0.924,0-0.99,1.81-0.99,2.469C45.834,49.985,45.9,51.864,46.825,51.864z"/>
	<path style="clip-path:url(#SVGID_17_);" d="M51.377,45.685l1.738,4.477l0.019-0.02c-0.084-0.354-0.112-0.738-0.112-1.122v-3.335
		h1.392v7.419h-1.317l-1.72-4.477l-0.019,0.02l0.065,0.747l0.009,0.306v3.404H50.04v-7.419H51.377"/>
	<polyline style="clip-path:url(#SVGID_17_);" points="34.431,54.704 34.431,56.081 33.328,56.081 33.328,62.122 31.936,62.122 
		31.936,56.081 30.841,56.081 30.841,54.704 34.431,54.704 	"/>
	<rect x="35.066" y="54.704" style="clip-path:url(#SVGID_17_);" width="1.394" height="7.418"/>
	<polyline style="clip-path:url(#SVGID_17_);" points="38.843,54.704 38.843,60.744 40.301,60.744 40.301,62.122 37.45,62.122 
		37.45,54.704 38.843,54.704 	"/>
	<polyline style="clip-path:url(#SVGID_17_);" points="43.657,54.704 43.657,56.081 42.553,56.081 42.553,62.122 41.162,62.122 
		41.162,56.081 40.067,56.081 40.067,54.704 43.657,54.704 	"/>
	<polyline style="clip-path:url(#SVGID_17_);" points="45.686,54.704 45.686,57.606 47.096,57.606 47.096,54.704 48.489,54.704 
		48.489,62.122 47.096,62.122 47.096,58.983 45.686,58.983 45.686,62.122 44.292,62.122 44.292,54.704 45.686,54.704 	"/>
</g>
<g>
	<defs>
		<ellipse id="SVGID_18_" cx="41.537" cy="55.323" rx="20.894" ry="21.031"/>
	</defs>
	<clipPath id="SVGID_19_">
		<use xlink:href="#SVGID_18_"  style="overflow:visible;"/>
	</clipPath>
	
		<linearGradient id="SVGID_20_" gradientUnits="userSpaceOnUse" x1="-242.2837" y1="489.3813" x2="-241.5305" y2="489.3813" gradientTransform="matrix(0 -112.407 -112.407 0 55051.3945 -27115.4336)">
		<stop  offset="0" style="stop-color:#00BDF2"/>
		<stop  offset="0.2079" style="stop-color:#00BDF2"/>
		<stop  offset="0.8764" style="stop-color:#FFFFFF"/>
		<stop  offset="1" style="stop-color:#FFFFFF"/>
	</linearGradient>
	<path style="clip-path:url(#SVGID_19_);fill:url(#SVGID_20_);" d="M62.431,55.323c0,11.614-9.354,21.031-20.894,21.031
		c-11.54,0-20.895-9.417-20.895-21.031c0-11.616,9.355-21.032,20.895-21.032C53.077,34.291,62.431,43.707,62.431,55.323"/>
</g>
<g>
	<defs>
		<path id="SVGID_21_" d="M19.933,65.655c1.963-2.239,7.563-3.02,13.375-1.093c0,0,7.712-2.303,13.798-0.141
			c0,0,10.317-2.642,14.041,1.549c1.969,2.219-7.122,10.822-19.516,10.515C30.354,76.207,17.227,68.742,19.933,65.655z"/>
	</defs>
	<clipPath id="SVGID_22_">
		<use xlink:href="#SVGID_21_"  style="overflow:visible;"/>
	</clipPath>
	<g style="clip-path:url(#SVGID_22_);">
		<defs>
			<path id="SVGID_23_" d="M8.679,68.796c0,0,17.92-8.73,37.451-5.431c0.473,0.079,0.042,11.923-0.103,15.135
				c-0.077,1.694-18.101-0.847-18.101-0.847l-17.821-3.446L8.679,68.796z"/>
		</defs>
		<clipPath id="SVGID_24_">
			<use xlink:href="#SVGID_23_"  style="overflow:visible;"/>
		</clipPath>
		
			<linearGradient id="SVGID_25_" gradientUnits="userSpaceOnUse" x1="-228.3818" y1="480.3618" x2="-227.6285" y2="480.3618" gradientTransform="matrix(0 -21.854 -21.854 0 10530.8262 -4911.9663)">
			<stop  offset="0" style="stop-color:#007647"/>
			<stop  offset="0.2338" style="stop-color:#268A46"/>
			<stop  offset="0.4759" style="stop-color:#3B9B45"/>
			<stop  offset="0.6971" style="stop-color:#47A744"/>
			<stop  offset="0.8764" style="stop-color:#4AAC43"/>
			<stop  offset="1" style="stop-color:#4AAC43"/>
		</linearGradient>
		<polyline style="clip-path:url(#SVGID_24_);fill:url(#SVGID_25_);" points="40.752,76.509 40.752,76.434 39.547,76.434 
			39.547,76.358 38.944,76.358 38.944,76.283 38.341,76.283 38.341,76.207 37.814,76.207 37.814,76.132 37.287,76.132 
			37.287,76.057 36.911,76.057 36.911,75.982 36.458,75.982 36.458,75.907 36.082,75.907 36.082,75.831 35.705,75.831 
			35.705,75.756 35.329,75.756 35.329,75.68 35.027,75.68 35.027,75.604 34.726,75.604 34.726,75.529 34.425,75.529 34.425,75.454 
			34.123,75.454 34.123,75.379 33.822,75.379 33.822,75.304 33.521,75.304 33.521,75.229 33.219,75.229 33.219,75.153 
			32.993,75.153 32.993,75.078 32.692,75.078 32.692,75.002 32.466,75.002 32.466,74.927 32.24,74.927 32.24,74.851 32.014,74.851 
			32.014,74.776 31.788,74.776 31.788,74.701 31.487,74.701 31.487,74.626 31.261,74.626 31.261,74.551 31.035,74.551 
			31.035,74.475 30.809,74.475 30.809,74.4 30.583,74.4 30.583,74.324 30.432,74.324 30.432,74.249 30.207,74.249 30.207,74.174 
			29.98,74.174 29.98,74.098 29.83,74.098 29.83,74.023 29.604,74.023 29.604,73.948 29.377,73.948 29.377,73.873 29.152,73.873 
			29.152,73.798 29.001,73.798 29.001,73.722 28.85,73.722 28.85,73.647 28.625,73.647 28.625,73.571 28.474,73.571 28.474,73.496 
			28.323,73.496 28.323,73.42 28.098,73.42 28.098,73.345 27.947,73.345 27.947,73.27 27.72,73.27 27.72,73.194 27.57,73.194 
			27.57,73.12 27.419,73.12 27.419,73.044 27.193,73.044 27.193,72.969 27.042,72.969 27.042,72.893 26.892,72.893 26.892,72.817 
			26.742,72.817 26.742,72.742 26.59,72.742 26.59,72.667 26.44,72.667 26.44,72.592 26.289,72.592 26.289,72.517 26.139,72.517 
			26.139,72.441 25.988,72.441 25.988,72.366 25.837,72.366 25.837,72.291 25.687,72.291 25.687,72.215 25.536,72.215 25.536,72.14 
			25.386,72.14 25.386,72.064 25.235,72.064 25.235,71.99 25.159,71.99 25.159,71.915 25.009,71.915 25.009,71.839 24.858,71.839 
			24.858,71.764 24.708,71.764 24.708,71.688 24.557,71.688 24.557,71.613 24.481,71.613 24.481,71.537 24.331,71.537 
			24.331,71.461 24.18,71.461 24.18,71.387 24.03,71.387 24.03,71.311 23.955,71.311 23.955,71.236 23.804,71.236 23.804,71.161 
			23.728,71.161 23.728,71.085 23.577,71.085 23.577,71.01 23.502,71.01 23.502,70.935 23.352,70.935 23.352,70.859 23.276,70.859 
			23.276,70.784 23.125,70.784 23.125,70.708 22.975,70.708 22.975,70.633 22.899,70.633 22.899,70.558 22.75,70.558 22.75,70.483 
			22.674,70.483 22.674,70.408 22.523,70.408 22.523,70.332 22.447,70.332 22.447,70.257 22.373,70.257 22.373,70.181 
			22.297,70.181 22.297,70.106 22.146,70.106 22.146,70.031 22.071,70.031 22.071,69.956 21.996,69.956 21.996,69.88 21.845,69.88 
			21.845,69.805 21.77,69.805 21.77,69.729 21.694,69.729 21.694,69.655 21.619,69.655 21.619,69.579 21.468,69.579 21.468,69.503 
			21.394,69.503 21.394,69.428 21.318,69.428 21.318,69.353 21.243,69.353 21.243,69.278 21.167,69.278 21.167,69.202 
			21.092,69.202 21.092,69.127 21.016,69.127 21.016,69.051 20.941,69.051 20.941,68.977 20.866,68.977 20.866,68.901 
			20.791,68.901 20.791,68.826 20.715,68.826 20.715,68.75 20.64,68.75 20.64,68.674 20.564,68.674 20.564,68.599 20.489,68.599 
			20.489,68.525 20.414,68.525 20.414,68.374 20.338,68.374 20.338,68.298 20.263,68.298 20.263,68.223 20.188,68.223 
			20.188,68.072 20.113,68.072 20.113,67.997 20.038,67.997 20.038,67.921 19.962,67.921 19.962,67.847 19.887,67.847 
			19.887,67.621 19.811,67.621 19.811,67.469 19.736,67.469 19.736,67.318 19.661,67.318 19.661,67.093 19.585,67.093 
			19.585,66.114 19.661,66.114 19.661,65.963 19.736,65.963 19.736,65.888 19.811,65.888 19.811,65.737 19.887,65.737 
			19.887,65.586 19.962,65.586 19.962,65.512 20.038,65.512 20.038,65.436 20.188,65.436 20.188,65.36 20.263,65.36 20.263,65.285 
			20.338,65.285 20.338,65.209 20.414,65.209 20.414,65.135 20.489,65.135 20.489,65.059 20.564,65.059 20.564,64.984 
			20.715,64.984 20.715,64.908 20.791,64.908 20.791,64.833 20.866,64.833 20.866,64.758 21.016,64.758 21.016,64.682 
			21.167,64.682 21.167,64.607 21.318,64.607 21.318,64.532 21.468,64.532 21.468,64.457 21.619,64.457 21.619,64.382 
			21.996,64.382 21.996,64.306 22.297,64.306 22.297,64.231 22.598,64.231 22.598,64.155 22.975,64.155 22.975,64.08 23.352,64.08 
			23.352,64.004 23.728,64.004 23.728,63.929 24.105,63.929 24.105,63.854 24.481,63.854 24.481,63.778 24.858,63.778 
			24.858,63.704 25.31,63.704 25.31,63.628 25.687,63.628 25.687,63.553 26.139,63.553 26.139,63.478 26.817,63.478 26.817,63.402 
			27.193,63.402 27.193,63.478 28.323,63.478 28.323,63.553 29.227,63.553 29.227,63.628 29.679,63.628 29.679,63.704 
			30.131,63.704 30.131,63.778 30.507,63.778 30.507,63.854 30.959,63.854 30.959,63.929 31.336,63.929 31.336,64.004 
			31.638,64.004 31.638,64.08 31.863,64.08 31.863,64.155 32.166,64.155 32.166,64.231 32.391,64.231 32.391,64.306 32.692,64.306 
			32.692,64.382 32.993,64.382 32.993,64.457 33.219,64.457 33.219,64.532 33.37,64.532 33.37,64.457 33.671,64.457 33.671,64.382 
			33.973,64.382 33.973,64.306 34.274,64.306 34.274,64.231 34.575,64.231 34.575,64.155 34.952,64.155 34.952,64.08 35.329,64.08 
			35.329,64.004 35.705,64.004 35.705,63.929 36.157,63.929 36.157,63.854 36.609,63.854 36.609,63.778 37.136,63.778 
			37.136,63.704 37.739,63.704 37.739,63.628 38.417,63.628 38.417,63.553 39.396,63.553 39.396,63.478 42.635,63.478 
			42.635,63.553 43.539,63.553 43.539,63.628 44.066,63.628 44.066,63.704 44.594,63.704 44.594,63.778 45.045,63.778 
			45.045,63.854 45.347,63.854 45.347,63.929 45.723,63.929 45.723,64.004 46.025,64.004 46.025,64.08 46.251,64.08 46.251,64.155 
			46.326,64.155 46.326,65.059 46.402,65.059 46.402,68.826 46.326,68.826 46.326,72.215 46.251,72.215 46.251,74.701 
			46.175,74.701 46.175,76.283 45.498,76.283 45.498,76.358 44.745,76.358 44.745,76.434 44.066,76.434 44.066,76.509 		"/>
	</g>
</g>
<g>
	<defs>
		<path id="SVGID_26_" d="M19.933,65.655c1.963-2.239,7.563-3.02,13.375-1.093c0,0,7.712-2.303,13.798-0.141
			c0,0,10.317-2.642,14.041,1.549c1.969,2.219-7.122,10.822-19.516,10.515C30.354,76.207,17.227,68.742,19.933,65.655z"/>
	</defs>
	<clipPath id="SVGID_27_">
		<use xlink:href="#SVGID_26_"  style="overflow:visible;"/>
	</clipPath>
	<g style="clip-path:url(#SVGID_27_);">
		<defs>
			<path id="SVGID_28_" d="M8.477,68.124c0,0,13.656-7.866,38.026-4.863c0.48,0.059-0.994,3.791-1.226,7.036
				c-0.121,1.69-2.896,1.729-2.896,1.729l-2.456,5.059l-12.939,0.203l-15.672-1.72L8.477,68.124z"/>
		</defs>
		<clipPath id="SVGID_29_">
			<use xlink:href="#SVGID_28_"  style="overflow:visible;"/>
		</clipPath>
		<path style="clip-path:url(#SVGID_29_);fill:#C1D82F;" d="M40.513,62.285c0,0-16.191,0.242-33.052,8.396
			c-0.386,0.187-0.772,0.378-1.16,0.573l0.854,1.778C7.155,73.032,22.587,63.808,40.513,62.285"/>
		<path style="clip-path:url(#SVGID_29_);fill:#C1D82F;" d="M39.594,62.37c0,0-16.912,2.575-29.371,11.801l6.387,0.213
			c0,0,8.93-8.629,23.246-11.928L39.594,62.37"/>
		<path style="clip-path:url(#SVGID_29_);fill:#C1D82F;" d="M39.857,62.456c0,0-13.506,5.233-17.862,11.547
			c-0.789,1.143-1.232,2.069-1.232,2.069l6.222,0.974l0.788-2.238c0,0,3.743-7.955,12.477-12.353H39.857"/>
		<path style="clip-path:url(#SVGID_29_);fill:#C1D82F;" d="M40.25,62.456c0,0-5.647,5.075-7.748,12.099l-0.968,5l6.654-2.572
			c0,0,1.471-11.737,2.455-14.486L40.25,62.456"/>
		<path style="clip-path:url(#SVGID_29_);fill:#AAD04D;" d="M40.926,62.538c0,0,2.167,9.647,1.97,11.846
			c0,0,0.465-0.071,1.158-0.181c2.026-0.322,5.376-2.843,3.973-4.933c-1.404-2.089-3.587-4.659-6.708-6.69L40.926,62.538"/>
	</g>
</g>
<g>
	<defs>
		<path id="SVGID_30_" d="M19.933,65.655c1.963-2.239,7.563-3.02,13.375-1.093c0,0,7.712-2.303,13.798-0.141
			c0,0,10.317-2.642,14.041,1.549c1.969,2.219-7.122,10.822-19.516,10.515C30.354,76.207,17.227,68.742,19.933,65.655z"/>
	</defs>
	<clipPath id="SVGID_31_">
		<use xlink:href="#SVGID_30_"  style="overflow:visible;"/>
	</clipPath>
	<g style="clip-path:url(#SVGID_31_);">
		<defs>
			<path id="SVGID_32_" d="M72.594,68.502c0,0-14.894-7.335-31.873-5.743c-0.346,0.032-0.811,9.157,1.061,9.904
				c5.242,2.097,11.563,4.695,11.563,4.695l17.823-3.444L72.594,68.502z"/>
		</defs>
		<clipPath id="SVGID_33_">
			<use xlink:href="#SVGID_32_"  style="overflow:visible;"/>
		</clipPath>
		
			<linearGradient id="SVGID_34_" gradientUnits="userSpaceOnUse" x1="-226.4907" y1="502.7095" x2="-225.7373" y2="502.7095" gradientTransform="matrix(0 -19.6823 19.6823 0 -9843.5859 -4380.4971)">
			<stop  offset="0" style="stop-color:#007647"/>
			<stop  offset="0.2338" style="stop-color:#268A46"/>
			<stop  offset="0.4759" style="stop-color:#3B9B45"/>
			<stop  offset="0.6971" style="stop-color:#47A744"/>
			<stop  offset="0.8764" style="stop-color:#4AAC43"/>
			<stop  offset="1" style="stop-color:#4AAC43"/>
		</linearGradient>
		<polyline style="clip-path:url(#SVGID_33_);fill:url(#SVGID_34_);" points="48.812,75.604 48.812,75.529 48.662,75.529 
			48.662,75.454 48.435,75.454 48.435,75.379 48.285,75.379 48.285,75.304 48.059,75.304 48.059,75.229 47.908,75.229 
			47.908,75.153 47.757,75.153 47.757,75.078 47.532,75.078 47.532,75.002 47.381,75.002 47.381,74.927 47.154,74.927 
			47.154,74.851 47.004,74.851 47.004,74.776 46.778,74.776 46.778,74.701 46.627,74.701 46.627,74.626 46.402,74.626 
			46.402,74.551 46.251,74.551 46.251,74.475 46.025,74.475 46.025,74.4 45.875,74.4 45.875,74.324 45.648,74.324 45.648,74.249 
			45.498,74.249 45.498,74.174 45.272,74.174 45.272,74.098 45.121,74.098 45.121,74.023 44.971,74.023 44.971,73.948 
			44.745,73.948 44.745,73.873 44.594,73.873 44.594,73.798 44.368,73.798 44.368,73.722 44.217,73.722 44.217,73.647 
			43.991,73.647 43.991,73.571 43.841,73.571 43.841,73.496 43.614,73.496 43.614,73.42 43.464,73.42 43.464,73.345 43.238,73.345 
			43.238,73.27 43.087,73.27 43.087,73.194 42.861,73.194 42.861,73.12 42.711,73.12 42.711,73.044 42.484,73.044 42.484,72.969 
			42.334,72.969 42.334,72.893 42.108,72.893 42.108,72.817 41.958,72.817 41.958,72.742 41.731,72.742 41.731,72.667 
			41.656,72.667 41.656,72.592 41.505,72.592 41.505,72.517 41.43,72.517 41.43,72.441 41.354,72.441 41.354,72.291 41.279,72.291 
			41.279,72.215 41.204,72.215 41.204,72.064 41.129,72.064 41.129,71.915 41.053,71.915 41.053,71.764 40.978,71.764 
			40.978,71.537 40.903,71.537 40.903,71.311 40.828,71.311 40.828,71.01 40.752,71.01 40.752,70.708 40.677,70.708 40.677,70.332 
			40.602,70.332 40.602,69.805 40.526,69.805 40.526,69.127 40.451,69.127 40.451,68.148 40.375,68.148 40.375,64.682 
			40.451,64.682 40.451,63.628 40.526,63.628 40.526,63.478 42.635,63.478 42.635,63.553 43.539,63.553 43.539,63.628 
			44.066,63.628 44.066,63.704 44.594,63.704 44.594,63.778 45.045,63.778 45.045,63.854 45.347,63.854 45.347,63.929 
			45.723,63.929 45.723,64.004 46.025,64.004 46.025,64.08 46.251,64.08 46.251,64.155 46.552,64.155 46.552,64.231 46.778,64.231 
			46.778,64.306 47.004,64.306 47.004,64.382 47.23,64.382 47.23,64.306 47.532,64.306 47.532,64.231 47.908,64.231 47.908,64.155 
			48.285,64.155 48.285,64.08 48.737,64.08 48.737,64.004 49.188,64.004 49.188,63.929 49.641,63.929 49.641,63.854 50.168,63.854 
			50.168,63.778 50.771,63.778 50.771,63.704 51.524,63.704 51.524,63.628 52.653,63.628 52.653,63.553 54.763,63.553 
			54.763,63.628 55.743,63.628 55.743,63.704 56.42,63.704 56.42,63.778 56.796,63.778 56.796,63.854 57.249,63.854 57.249,63.929 
			57.55,63.929 57.55,64.004 57.851,64.004 57.851,64.08 58.077,64.08 58.077,64.155 58.379,64.155 58.379,64.231 58.604,64.231 
			58.604,64.306 58.755,64.306 58.755,64.382 58.906,64.382 58.906,64.457 59.132,64.457 59.132,64.532 59.282,64.532 
			59.282,64.607 59.433,64.607 59.433,64.682 59.584,64.682 59.584,64.758 59.734,64.758 59.734,64.833 59.81,64.833 59.81,64.908 
			59.96,64.908 59.96,64.984 60.11,64.984 60.11,65.059 60.186,65.059 60.186,65.135 60.337,65.135 60.337,65.209 60.412,65.209 
			60.412,65.285 60.488,65.285 60.488,65.36 60.639,65.36 60.639,65.436 60.714,65.436 60.714,65.512 60.789,65.512 60.789,65.586 
			60.864,65.586 60.864,65.662 60.94,65.662 60.94,65.737 61.015,65.737 61.015,65.813 61.089,65.813 61.089,65.888 61.166,65.888 
			61.166,65.963 61.241,65.963 61.241,66.114 61.317,66.114 61.317,66.265 61.392,66.265 61.392,67.318 61.317,67.318 
			61.317,67.545 61.241,67.545 61.241,67.771 61.166,67.771 61.166,67.921 61.089,67.921 61.089,68.072 61.015,68.072 
			61.015,68.148 60.94,68.148 60.94,68.298 60.864,68.298 60.864,68.449 60.789,68.449 60.789,68.525 60.714,68.525 60.714,68.674 
			60.639,68.674 60.639,68.75 60.563,68.75 60.563,68.901 60.488,68.901 60.488,68.977 60.412,68.977 60.412,69.051 60.337,69.051 
			60.337,69.127 60.262,69.127 60.262,69.278 60.186,69.278 60.186,69.353 60.11,69.353 60.11,69.428 60.035,69.428 60.035,69.503 
			59.96,69.503 59.96,69.579 59.886,69.579 59.886,69.655 59.81,69.655 59.81,69.729 59.734,69.729 59.734,69.805 59.659,69.805 
			59.659,69.88 59.584,69.88 59.584,69.956 59.508,69.956 59.508,70.031 59.433,70.031 59.433,70.106 59.357,70.106 59.357,70.181 
			59.282,70.181 59.282,70.257 59.208,70.257 59.208,70.332 59.132,70.332 59.132,70.408 59.057,70.408 59.057,70.483 
			58.981,70.483 58.981,70.558 58.906,70.558 58.906,70.633 58.831,70.633 58.831,70.708 58.755,70.708 58.755,70.784 
			58.604,70.784 58.604,70.859 58.529,70.859 58.529,70.935 58.454,70.935 58.454,71.01 58.379,71.01 58.379,71.085 58.303,71.085 
			58.303,71.161 58.228,71.161 58.228,71.236 58.077,71.236 58.077,71.311 58.002,71.311 58.002,71.387 57.926,71.387 
			57.926,71.461 57.776,71.461 57.776,71.537 57.701,71.537 57.701,71.613 57.626,71.613 57.626,71.688 57.474,71.688 
			57.474,71.764 57.399,71.764 57.399,71.839 57.249,71.839 57.249,71.915 57.173,71.915 57.173,71.99 57.098,71.99 57.098,72.064 
			56.948,72.064 56.948,72.14 56.873,72.14 56.873,72.215 56.721,72.215 56.721,72.291 56.646,72.291 56.646,72.366 56.496,72.366 
			56.496,72.441 56.344,72.441 56.344,72.517 56.27,72.517 56.27,72.592 56.119,72.592 56.119,72.667 56.043,72.667 56.043,72.742 
			55.892,72.742 55.892,72.817 55.743,72.817 55.743,72.893 55.667,72.893 55.667,72.969 55.516,72.969 55.516,73.044 
			55.441,73.044 55.441,73.12 55.29,73.12 55.29,73.194 55.14,73.194 55.14,73.27 54.989,73.27 54.989,73.345 54.838,73.345 
			54.838,73.42 54.688,73.42 54.688,73.496 54.537,73.496 54.537,73.571 54.387,73.571 54.387,73.647 54.236,73.647 54.236,73.722 
			54.085,73.722 54.085,73.798 53.934,73.798 53.934,73.873 53.859,73.873 53.859,73.948 53.633,73.948 53.633,74.023 
			53.482,74.023 53.482,74.098 53.331,74.098 53.331,74.174 53.106,74.174 53.106,74.249 52.955,74.249 52.955,74.324 
			52.805,74.324 52.805,74.4 52.578,74.4 52.578,74.475 52.428,74.475 52.428,74.551 52.277,74.551 52.277,74.626 52.126,74.626 
			52.126,74.701 51.9,74.701 51.9,74.776 51.675,74.776 51.675,74.851 51.448,74.851 51.448,74.927 51.222,74.927 51.222,75.002 
			50.997,75.002 50.997,75.078 50.846,75.078 50.846,75.153 50.62,75.153 50.62,75.229 50.394,75.229 50.394,75.304 50.168,75.304 
			50.168,75.379 49.866,75.379 49.866,75.454 49.565,75.454 49.565,75.529 49.339,75.529 49.339,75.604 		"/>
	</g>
</g>
<g>
	<defs>
		<path id="SVGID_35_" d="M19.933,65.655c1.963-2.239,7.563-3.02,13.375-1.093c0,0,7.712-2.303,13.798-0.141
			c0,0,10.317-2.642,14.041,1.549c1.969,2.219-7.122,10.822-19.516,10.515C30.354,76.207,17.227,68.742,19.933,65.655z"/>
	</defs>
	<clipPath id="SVGID_36_">
		<use xlink:href="#SVGID_35_"  style="overflow:visible;"/>
	</clipPath>
	<g style="clip-path:url(#SVGID_36_);">
		<defs>
			<path id="SVGID_37_" d="M73.504,67.918c0,0-13.72-7.72-38.09-4.716c-0.48,0.059-3.681,11.433-3.449,14.679
				c0.121,1.689,7.518-0.972,7.518-0.972l2.856,0.163l12.92,3.017l15.405-4.728L73.504,67.918z"/>
		</defs>
		<clipPath id="SVGID_38_">
			<use xlink:href="#SVGID_37_"  style="overflow:visible;"/>
		</clipPath>
		<path style="clip-path:url(#SVGID_38_);fill:#C1D82F;" d="M41.556,62.522c0,0,16.196,0.243,33.058,8.397
			c0.385,0.186,1.285,0.57,1.285,0.57l-0.985,1.78C74.914,73.27,59.483,64.045,41.556,62.522"/>
		<path style="clip-path:url(#SVGID_38_);fill:#C1D82F;" d="M42.475,62.607c0,0,16.912,2.575,29.371,11.801l-6.385,0.213
			c0,0-8.934-8.629-23.249-11.93L42.475,62.607"/>
		<path style="clip-path:url(#SVGID_38_);fill:#C1D82F;" d="M42.212,62.692c0,0,13.507,5.233,17.86,11.548
			c0.789,1.144,1.235,2.07,1.235,2.07l-6.224,0.973l-0.788-2.238c0,0-3.743-7.954-12.477-12.354H42.212"/>
		<path style="clip-path:url(#SVGID_38_);fill:#C1D82F;" d="M41.819,62.692c0,0,5.647,5.077,7.749,12.098l0.613,2.614l-6.364-0.052
			c0,0-1.407-11.869-2.393-14.618L41.819,62.692"/>
	</g>
</g>
<g>
	<defs>
		<rect id="SVGID_39_" width="80" height="103.25"/>
	</defs>
	<clipPath id="SVGID_40_">
		<use xlink:href="#SVGID_39_"  style="overflow:visible;"/>
	</clipPath>
	<path style="clip-path:url(#SVGID_40_);fill:none;stroke:#5BBA47;stroke-width:0.4;" d="M19.933,65.655
		c1.963-2.239,7.563-3.02,13.375-1.093c0,0,7.712-2.303,13.798-0.141c0,0,10.317-2.642,14.041,1.549
		c1.969,2.219-7.122,10.822-19.516,10.515C30.354,76.207,17.227,68.742,19.933,65.655z"/>
	<path style="clip-path:url(#SVGID_40_);" d="M21.435,71.282c-4.434-4.554-5.832-8.988-5.832-14.695
		c0-12.027,9.9-22.958,26.662-22.958c6.438,0,11.539,1.033,16.822,4.92c4.798,3.523,7.349,9.413,7.349,15.063
		c0,14.878-11.296,24.474-26.236,24.474C34.067,78.085,27.083,77.051,21.435,71.282 M59.027,58.043
		c0-12.875-8.926-22.106-19.009-22.106c-8.32,0-17.43,5.587-17.43,18.098c0,10.872,8.745,21.561,20.588,21.561
		C51.861,75.595,59.027,67.761,59.027,58.043z"/>
</g>
<g>
	<defs>
		<path id="SVGID_41_" d="M32.059,27.668c1.796-1.997,4.365-3.304,6.703-2.594c3.125,0.947,2.055,3.43,2.055,3.43
			s3.935-0.649,5.432,2.069c1.772,3.217,0.379,8.36-5.631,9.005c-11.09,1.191-11.51,3.811-11.51,3.811S27.404,32.844,32.059,27.668z
			"/>
	</defs>
	<clipPath id="SVGID_42_">
		<use xlink:href="#SVGID_41_"  style="overflow:visible;"/>
	</clipPath>
	
		<linearGradient id="SVGID_43_" gradientUnits="userSpaceOnUse" x1="-269.9849" y1="481.9673" x2="-269.2314" y2="481.9673" gradientTransform="matrix(-13.4168 9.7907 9.7907 13.4168 -8298.7285 -3793.3208)">
		<stop  offset="0" style="stop-color:#5BBA47"/>
		<stop  offset="1" style="stop-color:#C1D82F"/>
	</linearGradient>
	<path style="clip-path:url(#SVGID_42_);fill:url(#SVGID_43_);" d="M32.059,27.668c1.796-1.997,4.365-3.304,6.703-2.594
		c3.125,0.947,2.055,3.43,2.055,3.43s3.935-0.649,5.432,2.069c1.772,3.217,0.379,8.36-5.631,9.005
		c-11.09,1.191-11.51,3.811-11.51,3.811S27.404,32.844,32.059,27.668"/>
</g>
<g>
	<defs>
		<rect id="SVGID_44_" width="80" height="103.25"/>
	</defs>
	<clipPath id="SVGID_45_">
		<use xlink:href="#SVGID_44_"  style="overflow:visible;"/>
	</clipPath>
	<path style="clip-path:url(#SVGID_45_);" d="M31.588,27.262c-3.812,4.238-3.341,11.712-3.044,14.82
		c0.076,0.8,0.41,2.191,0.41,2.191s0.149-0.899,0.701-1.44c0.562-0.553,0.853-1.934,10.932-3.017
		c2.841-0.306,5.122-1.247,6.239-3.33c0.614-1.144,0.858-2.448,0.738-3.715c-0.082-0.868-0.337-1.718-0.763-2.49
		c-1.235-2.244-3.821-2.495-5.193-2.458c0.016-0.177,0.019-0.372-0.001-0.577c-0.029-0.3-0.104-0.62-0.257-0.943
		c-0.403-0.847-1.211-1.457-2.403-1.817C36.591,23.772,33.77,24.836,31.588,27.262 M39.818,29.289l1.103-0.178
		c0.036-0.007,3.513-0.537,4.774,1.753c0.346,0.626,0.552,1.319,0.62,2.023c0.098,1.034-0.103,2.097-0.604,3.03
		c-0.917,1.709-2.75,2.793-5.163,3.052c-6.669,0.717-9.984,2.295-11.319,3.28c-0.266-2.966-0.207-11.088,3.232-14.91
		c1.451-1.612,3.87-2.359,6.113-1.679c0.833,0.251,1.382,0.64,1.63,1.152c0.338,0.698,0.035,1.451,0.033,1.459L39.818,29.289z
		 M31.588,27.262L31.588,27.262z"/>
	<path style="clip-path:url(#SVGID_45_);" d="M40.837,28.083c0,0-7.679,2.002-10.159,9.729l0.258,0.121c0,0,2.565-7.88,10.685-8.904
		L40.837,28.083"/>
	<path style="clip-path:url(#SVGID_45_);" d="M59.63,74.747c0-1.137,0.882-2.066,1.971-2.066c1.086,0,1.963,0.929,1.963,2.066
		c0,1.146-0.877,2.076-1.963,2.076C60.512,76.822,59.63,75.893,59.63,74.747 M63.251,74.747c0-1.006-0.695-1.792-1.65-1.792
		c-0.958,0-1.66,0.786-1.66,1.792c0,1.015,0.702,1.802,1.66,1.802C62.556,76.548,63.251,75.762,63.251,74.747z M62.583,75.904
		h-0.321l-0.629-1.065H61.14v1.065h-0.27v-2.311h0.96c0.58,0,0.778,0.229,0.778,0.613c0,0.453-0.301,0.622-0.69,0.633L62.583,75.904
		z M61.549,74.615c0.313,0,0.768,0.055,0.768-0.415c0-0.361-0.28-0.405-0.55-0.405H61.14v0.819H61.549z"/>
</g>
<g>
	<defs>
		<path id="SVGID_46_" d="M51.492,30.545c-1.453-1.43-3.321-2.27-4.762-1.558c-1.928,0.953-0.887,2.814-0.887,2.814
			s-2.677-0.235-3.292,1.984c-0.73,2.627,0.888,6.533,4.931,6.621c7.458,0.161,8.091,2.17,8.091,2.17S55.26,34.251,51.492,30.545z"
			/>
	</defs>
	<clipPath id="SVGID_47_">
		<use xlink:href="#SVGID_46_"  style="overflow:visible;"/>
	</clipPath>
	
		<linearGradient id="SVGID_48_" gradientUnits="userSpaceOnUse" x1="-232.542" y1="512.3491" x2="-231.7886" y2="512.3491" gradientTransform="matrix(17.5128 0 0 -17.5128 4114.8267 9008.3223)">
		<stop  offset="0" style="stop-color:#5BBA47"/>
		<stop  offset="1" style="stop-color:#C1D82F"/>
	</linearGradient>
	<path style="clip-path:url(#SVGID_47_);fill:url(#SVGID_48_);" d="M51.492,30.545c-1.453-1.43-3.321-2.27-4.762-1.558
		c-1.928,0.953-0.887,2.814-0.887,2.814s-2.677-0.235-3.292,1.984c-0.73,2.627,0.888,6.533,4.931,6.621
		c7.458,0.161,8.091,2.17,8.091,2.17S55.26,34.251,51.492,30.545"/>
</g>
<g>
	<defs>
		<rect id="SVGID_49_" width="80" height="103.25"/>
	</defs>
	<clipPath id="SVGID_50_">
		<use xlink:href="#SVGID_49_"  style="overflow:visible;"/>
	</clipPath>
	<path style="clip-path:url(#SVGID_50_);" d="M46.527,28.544c-0.734,0.362-1.183,0.893-1.333,1.578
		c-0.057,0.262-0.063,0.518-0.041,0.752c0.015,0.162,0.043,0.313,0.078,0.45c-0.908,0.065-2.576,0.439-3.083,2.271
		c-0.175,0.631-0.226,1.31-0.164,1.991c0.094,0.997,0.434,1.994,0.993,2.843c1.019,1.542,2.647,2.117,4.559,2.159
		c6.779,0.147,7.158,1.203,7.603,1.592c0.437,0.384,0.656,1.074,0.656,1.074s0.031-1.106-0.028-1.734
		c-0.228-2.441-0.934-8.291-4.019-11.326C49.981,28.459,47.981,27.824,46.527,28.544 M46.193,31.577
		c-0.003-0.005-0.306-0.571-0.179-1.136c0.095-0.417,0.403-0.755,0.917-1.008c1.383-0.685,3.076-0.271,4.252,0.883
		c2.781,2.737,3.926,9.055,4.155,11.382c-1.012-0.675-3.408-1.675-7.894-1.772c-1.623-0.035-2.977-0.752-3.813-2.019
		c-0.456-0.691-0.734-1.504-0.81-2.315c-0.052-0.553-0.01-1.108,0.132-1.618c0.519-1.872,2.879-1.697,2.904-1.696l0.75,0.065
		L46.193,31.577z M51.747,30.195L51.747,30.195z"/>
	<path style="clip-path:url(#SVGID_50_);" d="M45.772,31.472c0,0,5.327,1.028,8.01,6.872l-0.154,0.113c0,0-2.759-5.957-8.243-6.193
		L45.772,31.472"/>
	<path style="clip-path:url(#SVGID_50_);" d="M29.987,49.379c0,2.783-1.232,3.825-2.475,3.825c-1.241,0-2.476-1.042-2.476-3.825
		c0-2.783,1.235-3.825,2.476-3.825C28.755,45.555,29.987,46.597,29.987,49.379 M27.512,51.848c0.926,0,0.991-1.878,0.991-2.468
		c0-0.659-0.065-2.467-0.991-2.467c-0.924,0-0.989,1.808-0.989,2.467C26.523,49.969,26.588,51.848,27.512,51.848z"/>
	<path style="clip-path:url(#SVGID_50_);" d="M30.725,53.086v-7.414h1.401c0.887,0,2.476,0.098,2.476,2.124
		c0,0.816-0.308,1.514-1,1.917l1.225,3.373h-1.467l-1.223-3.422h-0.019v3.422H30.725 M32.118,48.858l0.243,0.01
		c0.635,0,0.887-0.452,0.887-1.062c0-0.532-0.243-0.963-0.943-0.924h-0.187V48.858z"/>
	<polyline style="clip-path:url(#SVGID_50_);" points="38.478,45.673 38.478,47.05 37.068,47.05 37.068,48.662 38.31,48.662 
		38.31,50.039 37.068,50.039 37.068,51.71 38.497,51.71 38.497,53.086 35.676,53.086 35.676,45.673 38.478,45.673 	"/>
	<path style="clip-path:url(#SVGID_50_);" d="M43.859,48.957v0.581c0,1.573-0.365,3.667-2.261,3.667
		c-1.896,0-2.513-2.144-2.513-3.786c0-1.711,0.523-3.864,2.513-3.864c1.075,0,1.775,0.708,2.074,1.759l-1.354,0.551
		c-0.065-0.373-0.179-0.953-0.711-0.953c-0.942-0.06-1.036,1.769-1.036,2.467c0,0.767,0.047,2.468,1.074,2.468
		c0.71,0,0.823-1.003,0.823-1.515H41.58v-1.376H43.859"/>
	<path style="clip-path:url(#SVGID_50_);" d="M49.295,49.379c0,2.783-1.232,3.825-2.476,3.825c-1.241,0-2.475-1.042-2.475-3.825
		c0-2.783,1.234-3.825,2.475-3.825C48.063,45.555,49.295,46.597,49.295,49.379 M46.82,51.848c0.926,0,0.991-1.878,0.991-2.468
		c0-0.659-0.065-2.467-0.991-2.467c-0.924,0-0.989,1.808-0.989,2.467C45.831,49.969,45.896,51.848,46.82,51.848z"/>
	<path style="clip-path:url(#SVGID_50_);" d="M51.369,45.673l1.739,4.473l0.018-0.019c-0.083-0.354-0.111-0.737-0.111-1.121v-3.333
		h1.391v7.414h-1.315l-1.72-4.474l-0.018,0.02l0.065,0.747l0.009,0.305v3.402h-1.392v-7.414H51.369"/>
	<polyline style="clip-path:url(#SVGID_50_);" points="34.434,54.686 34.434,56.062 33.331,56.062 33.331,62.099 31.94,62.099 
		31.94,56.062 30.847,56.062 30.847,54.686 34.434,54.686 	"/>
	<rect x="35.069" y="54.686" style="clip-path:url(#SVGID_50_);" width="1.392" height="7.414"/>
	<polyline style="clip-path:url(#SVGID_50_);" points="38.843,54.686 38.843,60.724 40.3,60.724 40.3,62.099 37.451,62.099 
		37.451,54.686 38.843,54.686 	"/>
	<polyline style="clip-path:url(#SVGID_50_);" points="43.654,54.686 43.654,56.062 42.551,56.062 42.551,62.099 41.16,62.099 
		41.16,56.062 40.066,56.062 40.066,54.686 43.654,54.686 	"/>
	<polyline style="clip-path:url(#SVGID_50_);" points="45.681,54.686 45.681,57.586 47.09,57.586 47.09,54.686 48.483,54.686 
		48.483,62.099 47.09,62.099 47.09,58.962 45.681,58.962 45.681,62.099 44.289,62.099 44.289,54.686 45.681,54.686 	"/>
</g>
</svg>
