<?xml version="1.0" encoding="iso-8859-1"?>
<!-- Generator: Adobe Illustrator 16.0.3, SVG Export Plug-In . SVG Version: 6.00 Build 0)  -->
<!DOCTYPE svg PUBLIC "-//W3C//DTD SVG 1.1//EN" "http://www.w3.org/Graphics/SVG/1.1/DTD/svg11.dtd">
<svg version="1.1" id="Layer_1" xmlns="http://www.w3.org/2000/svg" xmlns:xlink="http://www.w3.org/1999/xlink" x="0px" y="0px"
	 width="200px" height="200px" viewBox="0 0 200 200" style="enable-background:new 0 0 200 200;" xml:space="preserve">
<circle style="fill:#FFFFFF;" cx="100" cy="100" r="100"/>
<path style="fill:#009360;" d="M186.27,100c0,47.646-38.625,86.27-86.27,86.27S13.73,147.646,13.73,100H186.27z"/>
<path style="fill:#7A3717;" d="M200,100c0,55.229-44.771,100-100,100S0,155.229,0,100S44.771,0,100,0S200,44.771,200,100z
	 M100,7.783C49.07,7.783,7.783,49.07,7.783,100S49.07,192.218,100,192.218S192.218,150.93,192.218,100S150.93,7.783,100,7.783z"/>
<path style="fill:#00B37D;" d="M20.072,132.525L186.27,100L18.6,128.644C19.06,129.952,19.551,131.246,20.072,132.525z"/>
<path style="fill:#00B37D;" d="M38.866,160.869L186.27,100L36.001,157.849C36.932,158.879,37.887,159.885,38.866,160.869z"/>
<path style="fill:#00B37D;" d="M71.575,181.476L186.27,100L66.937,179.705C68.461,180.338,70.007,180.929,71.575,181.476z"/>
<path style="fill:#00B37D;" d="M118.099,184.367L186.27,100l-74.194,85.432C114.107,185.147,116.115,184.791,118.099,184.367z"/>
<g>
	<path style="fill:#009360;" d="M58.025,52.286v27.73c0,3.715,1.013,4.684,2.701,4.684c1.688,0,2.701-0.969,2.701-4.684v-27.73
		h8.971v25.199c0,10.77-4.148,14-11.672,14s-11.672-3.23-11.672-14V52.286H58.025z"/>
	<path style="fill:#009360;" d="M88.7,63.378v-0.916c0-2.261-0.82-4.146-2.556-4.146c-1.93,0-2.798,1.669-2.798,3.392
		c0,7.592,14.662,3.876,14.662,17.93c0,8.184-4.292,11.846-12.202,11.846c-7.428,0-11.576-2.854-11.576-10.823v-1.346h8.682v0.915
		c0,3.285,1.206,4.469,2.942,4.469c1.833,0,2.894-1.615,2.894-3.715c0-7.592-14.083-3.823-14.083-17.445
		c0-7.753,3.714-12.007,11.286-12.007c7.813,0,11.142,3.607,11.142,11.846H88.7z"/>
	<path style="fill:#009360;" d="M102.156,52.286h13.022c10.369,0,10.9,9.153,10.9,19.222s-0.531,19.223-10.9,19.223h-13.022V52.286z
		 M111.127,83.515h1.785c3.473,0,3.907-1.615,3.907-12.007s-0.434-12.007-3.907-12.007h-1.785V83.515z"/>
	<path style="fill:#009360;" d="M134.623,52.286h11.286l8.393,38.445h-9.55L143.836,84h-7.139l-0.917,6.73h-9.55L134.623,52.286z
		 M140.314,60.147h-0.097l-2.459,16.315h5.016L140.314,60.147z"/>
</g>
<g>
	<path style="fill:#FFFFFF;" d="M43.381,110.492c7.005,0,9.402,4.267,9.402,15.221c0,10.955-2.396,15.222-9.402,15.222
		s-9.402-4.267-9.402-15.222C33.979,114.759,36.375,110.492,43.381,110.492z M43.381,135.765c2.102,0,2.323-2.133,2.323-10.052
		c0-7.918-0.221-10.052-2.323-10.052s-2.323,2.134-2.323,10.052C41.058,133.632,41.279,135.765,43.381,135.765z"/>
	<path style="fill:#FFFFFF;" d="M55.253,111.066h10.729c5.236,0,7.227,3.282,7.227,7.795c0,3.897-1.364,6.441-4.498,6.975v0.082
		c3.318,0.329,4.314,2.667,4.314,6.564v2.503c0,1.518,0,3.487,0.332,4.062c0.184,0.328,0.332,0.656,0.774,0.902v0.411h-7.3
		c-0.664-1.559-0.664-4.349-0.664-5.58v-1.969c0-3.323-0.59-4.185-2.249-4.185h-1.807v11.734h-6.858V111.066z M62.111,123.456h1.364
		c1.954,0,2.876-1.395,2.876-3.487c0-2.38-0.848-3.405-2.913-3.405h-1.327V123.456z"/>
	<path style="fill:#FFFFFF;" d="M85.266,124.441h8.849v15.918h-4.646l-0.147-2.584h-0.074c-0.922,2.502-3.355,3.159-5.678,3.159
		c-6.968,0-7.595-5.539-7.595-15.222c0-9.806,1.696-15.221,9.808-15.221c4.867,0,8.333,2.749,8.333,9.847h-6.636
		c0-1.477-0.111-2.626-0.369-3.405c-0.258-0.821-0.774-1.272-1.585-1.272c-2.249,0-2.47,2.134-2.47,10.052
		c0,7.919,0.221,10.052,2.322,10.052c1.438,0,2.287-1.025,2.323-6.154h-2.433V124.441z"/>
	<path style="fill:#FFFFFF;" d="M101.231,111.066h8.627l6.416,29.293h-7.301l-0.701-5.128h-5.457l-0.7,5.128h-7.301L101.231,111.066
		z M105.582,117.056h-0.074l-1.88,12.432h3.834L105.582,117.056z"/>
	<path style="fill:#FFFFFF;" d="M117.418,111.066h7.668l4.424,18.052h0.074v-18.052H136v29.293h-7.522l-4.572-18.093h-0.073v18.093
		h-6.415V111.066z"/>
	<path style="fill:#FFFFFF;" d="M138.987,111.066h6.858v29.293h-6.858V111.066z"/>
	<path style="fill:#FFFFFF;" d="M159.339,119.969c0-3.323-0.553-4.308-1.88-4.308c-2.102,0-2.323,2.134-2.323,10.052
		c0,7.919,0.221,10.052,2.323,10.052c1.697,0,2.065-1.641,2.065-7.179h6.637v2.174c0,8.206-4.314,10.175-8.702,10.175
		c-7.706,0-9.401-4.309-9.401-15.222c0-11.2,2.286-15.221,9.401-15.221c6.195,0,8.518,3.61,8.518,9.272v1.847h-6.638V119.969z"/>
</g>
</svg>
