<svg xmlns="http://www.w3.org/2000/svg"  viewBox="0 0 362 62.1"><path d="M111.2 3.2l-2.7 4.2c-1.9-1.6-4.3-2.7-7.5-2.7 -3 0-5 1.3-5 4 0 2.3 1.4 3.2 6.3 4.2 7.6 1.6 10.1 4.3 10.1 8.9 0 5.6-4.2 9.4-11 9.4 -4.6 0-8.5-1.4-11.3-3.9l2.8-4.3c2.1 2.1 5.5 3.5 8.7 3.5 3.5 0 5.8-1.5 5.8-4.2 0-2.2-1.7-3.4-6.5-4.4 -7.6-1.6-10-4.4-10-8.9C90.8 3.7 94.8 0 101 0 105.2 0 108.7 1.3 111.2 3.2"/><rect x="124.9" y="0.5" width="5.1" height="30.2"/><path d="M163.5 3.2l-2.7 4.2c-1.9-1.6-4.3-2.7-7.5-2.7 -3 0-5 1.3-5 4 0 2.3 1.4 3.2 6.3 4.2 7.6 1.6 10.1 4.3 10.1 8.9 0 5.6-4.2 9.4-11 9.4 -4.6 0-8.5-1.4-11.3-3.9l2.8-4.3c2.1 2.1 5.5 3.5 8.7 3.5 3.5 0 5.8-1.5 5.8-4.2 0-2.2-1.7-3.4-6.5-4.4 -7.6-1.6-10-4.4-10-8.9 0-5.3 4.1-9 10.2-9C157.5 0 161 1.3 163.5 3.2"/><path d="M202.9 30.7h-5.6l-2.4-5.5h-12.7l-2.4 5.5h-5.6L188.5 0h0.2L202.9 30.7zM184 21h9.1l-4.6-10.5L184 21z"/><polygon points="232 5.1 221.8 5.1 221.8 30.7 216.6 30.7 216.6 5.1 206.4 5.1 206.4 0.5 232 0.5 "/><path d="M272 15.7c0 9-6.6 15.6-15.4 15.6 -8.8 0-15.4-6.6-15.4-15.6 0-9 6.5-15.6 15.4-15.6C265.5 0 272 6.7 272 15.7M246.5 15.7c0 6.4 4.2 10.9 10.1 10.9 5.9 0 10.1-4.5 10.1-10.9 0-6.4-4.2-10.9-10.1-10.9C250.7 4.7 246.5 9.3 246.5 15.7"/><path d="M3.8 56.5c0 0.2 0 4 0 4.1 0 0.5 0.3 0.6 0.7 0.6h0.7c0.1 0 0.1 0 0.1 0.1v0.4c0 0.1-0.1 0.1-0.2 0.1 -0.2 0-0.9-0.1-2.4-0.1 -1.7 0-2.4 0.1-2.5 0.1 -0.1 0-0.1 0-0.1-0.1v-0.4c0-0.1 0-0.1 0.1-0.1h0.7c0.3 0 0.7 0 0.8-0.5 0-0.2 0.1-3.8 0.1-4.7v-1.2c0-0.4 0-3.4 0-3.6 0-0.4-0.2-0.6-0.7-0.6h-0.9C0 50.8 0 50.8 0 50.7v-0.4c0-0.1 0-0.1 0.1-0.1 0.2 0 1.1 0.1 2.7 0.1 1.6 0 2.1-0.1 2.3-0.1 0.1 0 0.1 0.1 0.1 0.1v0.4c0 0.1-0.1 0.1-0.1 0.1H4.5c-0.4 0-0.6 0.1-0.6 0.4 0 0.2 0 3.8 0 4V56.5z"/><path d="M17.1 54.4c0 2.8 0.1 5.1 0.2 5.6 0 0.8 0.2 1.2 0.8 1.2h0.4c0.1 0 0.1 0.1 0.1 0.1v0.4c0 0.1 0 0.1-0.1 0.1 -0.2 0-1.2-0.1-1.8-0.1 -0.4 0-1.6 0.1-1.7 0.1 -0.1 0-0.1 0-0.1-0.1v-0.4c0 0 0-0.1 0.1-0.1h0.6c0.4 0 0.7-0.4 0.7-1.4 0-0.3 0.1-2.6 0.1-5.3v-2.1c0-1-0.6-1.8-1.3-1.8h-0.5c-0.1 0-0.1 0-0.1-0.1v-0.4c0-0.1 0-0.1 0.1-0.1 0.1 0 0.2 0 0.5 0 0.3 0 0.7 0 1.5 0 0.3 0 0.5 0 0.7 0 0.2 0 0.4 0 0.5 0 0.2 0 0.3 0 0.4 0.1 0.2 0.2 3.4 4.2 3.7 4.7 0.2 0.3 2.8 3.5 3.1 3.8h0.1V57.1c0-1.5 0-2.3 0-3.1 0-0.6-0.1-2.2-0.2-2.5 -0.1-0.4-0.5-0.6-0.9-0.6h-0.5c-0.1 0-0.1-0.1-0.1-0.1v-0.4c0-0.1 0-0.1 0.1-0.1 0.2 0 0.7 0 1.9 0 1 0 1.4 0 1.6 0 0.1 0 0.2 0.1 0.2 0.1v0.4c0 0.1 0 0.2-0.1 0.2h-0.5c-0.3 0-0.5 0.3-0.5 0.9 -0.1 1.1-0.2 3.9-0.2 5.6v4.4c0 0.2 0 0.5-0.2 0.5 -0.2 0-0.4-0.1-0.6-0.3 -0.1-0.2-1-1.2-2-2.4 -1.2-1.4-2.4-3-2.6-3.2 -0.2-0.2-2.9-3.5-3.1-3.8h-0.1V54.4z"/><path d="M38.1 54.3c0-0.4-0.1-2.8-0.1-3 0-0.4-0.3-0.5-0.6-0.5h-0.9c-0.1 0-0.1 0-0.1-0.1v-0.4c0-0.1 0.1-0.1 0.1-0.1 0.5 0 1.3 0.1 2.5 0.1 0.8 0 1.7 0 2.5 0 2.2 0 4 0.2 5.5 1.5 1.1 0.9 1.9 2.3 1.9 4.2 0 1.9-0.5 3.1-1.6 4.3 -1.6 1.8-4.2 1.8-5.3 1.8 -0.6 0-2.3 0-3.1 0 -1.5 0-2.1 0.1-2.3 0.1 -0.1 0-0.1 0-0.1-0.1v-0.4c0-0.1 0-0.1 0.1-0.1h1c0.3 0 0.5-0.1 0.5-0.4 0.1-0.3 0.1-4.1 0.1-5.3V54.3zM40.2 55.9c0 0.2 0 3 0 4 0 0.3 0.1 0.6 0.3 0.9 0.2 0.3 0.8 0.4 1.5 0.4 1.3 0 2.6-0.6 3.4-1.7 0.7-0.9 1.2-2.2 1.2-3.8 0-1.3-0.6-2.7-1.3-3.6 -0.9-1-2.3-1.6-3.7-1.6 -0.4 0-0.8 0-1.1 0.2 -0.2 0.1-0.3 0.4-0.3 0.7 0 0.7 0 2.8 0 3.1V55.9z"/><path d="M59.8 51.6c0-0.6-0.1-0.8-0.6-0.8h-0.8c-0.1 0-0.1 0-0.1-0.1v-0.4c0-0.1 0-0.1 0.2-0.1 0.2 0 1 0.1 2.5 0.1 1.4 0 2.2 0 2.4 0 0.1 0 0.1 0 0.1 0.1v0.4c0 0.1 0 0.1-0.1 0.1H62.8c-0.5 0-0.8 0.3-0.8 0.6 0 0.2 0 1.2 0 2.1v2.1c0 0.8 0 2 0 2.5 0.1 0.8 0.2 1.5 0.6 2 0.6 0.8 1.5 1 2.2 1 0.8 0 1.7-0.3 2.2-0.8 0.6-0.6 1-1.6 1-2.8v-3c0-1.3-0.1-2.8-0.2-3.2 0-0.4-0.3-0.7-0.7-0.7h-0.6c-0.1 0-0.1 0-0.1-0.1v-0.4c0-0.1 0-0.1 0.1-0.1 0.2 0 0.9 0.1 2 0.1 1 0 1.6 0 1.7 0 0.1 0 0.2 0.1 0.2 0.1v0.4c0 0.1 0 0.1-0.1 0.1h-0.6c-0.6 0-0.7 0.5-0.7 0.6 0 0.2 0 2.5 0 2.7 0 0.2 0 3.1-0.1 3.8 -0.1 1.4-0.5 2.4-1.4 3.2 -0.7 0.6-1.8 1-3 1 -0.8 0-1.8-0.1-2.4-0.4 -1-0.4-1.6-1.2-1.9-2.2 -0.2-0.7-0.3-1.8-0.3-4V51.6z"/><path d="M89.5 58.5c0 0 0 0.1 0 0.2 -0.1 0.1-0.7 2.8-0.8 3.3 -0.4 0-5.2-0.1-6.9-0.1 -1.5 0-2.1 0.1-2.3 0.1 -0.1 0-0.1 0-0.1-0.1v-0.4c0-0.1 0-0.1 0.1-0.1h0.7c0.6 0 0.7-0.2 0.7-0.4 0-0.3 0.1-4.4 0.1-5.4v-0.9c0-1.1 0-2.8-0.1-3.1 0-0.4-0.1-0.6-0.5-0.6h-0.7c-0.1 0-0.1-0.1-0.1-0.1v-0.4c0-0.1 0-0.1 0.1-0.1 0.2 0 0.8 0.1 2.3 0.1 1.8 0 2.5 0 2.6 0s0.2 0.1 0.2 0.1v0.4c0 0.1 0 0.1-0.2 0.1h-0.9c-0.5 0-0.6 0.2-0.6 0.6 0 0.2-0.1 2.7-0.1 3.9v1.4c0 0.3 0 3.9 0.1 4.6h0.9c0.9 0 2.1 0 2.8-0.1 0.9-0.1 2-2.1 2.2-2.7 0.1-0.1 0.1-0.1 0.2-0.1L89.5 58.5z"/><path d="M109.9 60.3c0 0.2 0.1 0.4 0.1 0.5s-0.1 0.2-0.3 0.3c-1.4 0.7-2.7 1.1-4.7 1.1 -1.6 0-3.6-0.6-4.8-1.9 -1-1.1-1.5-2.5-1.5-4.5 0-1.5 0.7-3.1 1.9-4.2 1.2-1.1 2.7-1.6 4.7-1.6 1.6 0 2.8 0.5 3.4 0.9 0.2 0.1 0.3 0.1 0.4 0l0.2-0.3c0.1-0.1 0.1-0.2 0.2-0.2 0.2 0 0.2 0.1 0.2 0.2l0.2 3.3c0 0.1 0 0.2-0.1 0.2l-0.4 0.1c-0.1 0-0.1 0-0.2-0.1 -0.2-0.7-0.7-1.6-1.3-2.3 -0.6-0.6-1.5-1.2-2.7-1.2 -1 0-1.9 0.3-2.8 1.3 -0.8 0.9-1.4 2.3-1.4 3.7 0 2 0.5 3.6 1.5 4.6 0.8 0.8 1.6 1.1 2.6 1.1 1.1 0 1.7-0.1 2.2-0.4 0.4-0.2 0.4-0.7 0.4-1.5v-1.2c0-0.6-0.2-0.8-0.6-0.8H106.5c-0.1 0-0.1-0.1-0.1-0.1v-0.4c0-0.1 0-0.1 0.1-0.1 0.2 0 1 0.1 2.3 0.1 1.4 0 1.9-0.1 2.1-0.1 0.1 0 0.2 0 0.2 0.1v0.4c0 0.1 0 0.1-0.1 0.1h-0.6c-0.3 0-0.5 0.1-0.5 0.6V60.3z"/><path d="M124.2 57.1c0 0.9 0.1 2.5 0.1 2.8 0 0.9 0.3 1.2 0.7 1.3 0.3 0.1 0.7 0.1 1.3 0.1 0.3 0 1.1 0 1.4-0.1 0.3 0 0.9-0.2 1.4-0.6 0.3-0.3 1.2-1.4 1.5-1.8 0.1-0.1 0.1-0.1 0.2-0.1l0.3 0.2c0 0 0.1 0.1 0 0.2l-0.8 2.5c0 0.1-0.2 0.2-0.4 0.2 -0.1 0-0.4 0-1.5 0 -1 0-2.7 0-5.5 0 -0.6 0-1.1 0-1.4 0 -0.3 0-0.6 0-0.7 0 -0.1 0-0.1 0-0.1-0.1v-0.4c0-0.1 0-0.1 0.2-0.1h0.6c0.8 0 0.8-0.1 0.8-0.7v-5.6c0-1.4 0-3.4-0.1-3.6 -0.1-0.4-0.2-0.6-0.7-0.6h-0.6c-0.1 0-0.1 0-0.1-0.1v-0.4c0-0.1 0-0.1 0.1-0.1 0.4 0 1 0.1 2.3 0.1h0.5c0.7 0 4.5 0 5.3 0 0.3 0 0.6 0 0.7 0 0.1 0 0.1 0 0.1 0.1 0.1 0.2 0.7 2.5 0.8 2.6 0 0.1 0 0.1 0 0.2l-0.3 0.1c0 0-0.1 0-0.1-0.1 -0.1-0.1-1.4-1.6-1.8-1.9 -0.3-0.2-0.8-0.4-1.3-0.4l-2.5-0.1 0 4.8c0.5 0 1.7 0 1.9-0.1 0.4-0.1 0.6-0.2 0.8-0.6 0.1-0.2 0.3-0.6 0.3-0.9 0-0.1 0.1-0.1 0.1-0.1l0.4 0c0.1 0 0.1 0 0.1 0.1 0 0.3 0 1.4 0 1.8 0 0.7 0.1 1.5 0.1 1.8 0 0.1 0 0.1-0.1 0.1l-0.4 0.1c-0.1 0-0.1 0-0.1-0.1 -0.1-0.3-0.2-0.6-0.3-0.8 -0.1-0.3-0.5-0.6-0.8-0.6 -0.6-0.1-1.4-0.1-1.9-0.1L124.2 57.1z"/><path d="M162.2 51.3c1.2 1 2.2 2.6 2.2 4.9 0 1.2-0.3 2.5-1.2 3.6 -1.1 1.3-2.5 2.3-5 2.3 -1 0-2.4-0.3-3.7-1.1 -1.2-0.7-2.4-2.5-2.4-4.9 0-1 0.3-2.6 1.5-4.1 1.5-1.8 3.2-2.1 4.7-2.1C159.5 49.9 160.8 50.2 162.2 51.3M155.9 51.6c-1 1-1.5 2.7-1.5 4 0 4.3 2.6 5.8 4 5.8 3.3 0 3.9-3.7 3.9-5.1 0-3.6-2.4-5.7-4-5.7C157.9 50.7 157 50.5 155.9 51.6"/><path d="M177.7 57.6c0 1 0 2.8 0.1 3.1 0.1 0.3 0.2 0.6 0.4 0.6h0.8c0.1 0 0.1 0 0.1 0.1v0.4c0 0.1 0 0.1-0.2 0.1 -0.2 0-0.5 0-2.3 0 -1.6 0-2 0.1-2.2 0.1 -0.1 0-0.1 0-0.1-0.1v-0.4c0-0.1 0-0.1 0.1-0.1h0.6c0.4 0 0.6-0.1 0.6-0.5 0-1.7 0-3.2 0-4.8v-4.3c0-0.6-0.2-0.8-0.5-0.8h-0.6c-0.1 0-0.1 0-0.1-0.1v-0.4c0-0.1 0-0.1 0.1-0.1 0.1 0 0.6 0.1 2.3 0.1 0.9 0 2.4 0 2.9 0 1.3 0 2.3 0.4 3 1 0.6 0.5 0.9 1.2 0.9 1.9 0 2.1-1.3 2.9-3.1 3.2v0.1c0.5 0.2 0.8 0.5 1 0.8 0.2 0.3 1.2 1.8 1.4 2 0.1 0.2 1.2 1.7 1.4 1.9 0.3 0.3 0.8 0.3 1.2 0.3 0.1 0 0.1 0.1 0.1 0.1v0.3c0 0.1 0 0.2-0.1 0.2 -0.1 0-0.6 0-1.6 0 -0.5 0-1.1 0-1.5 0.1 -0.2-0.1-0.5-0.6-0.7-0.9 -0.3-0.5-0.9-1.7-1.1-1.9 -0.2-0.3-0.6-1.1-0.9-1.4 -0.4-0.6-0.8-1-1.5-1 -0.1 0-0.3 0-0.5 0V57.6zM177.7 56.1c0.2 0 0.4 0.1 0.6 0.1 2.6 0 3.1-2.1 3.1-2.8 0-0.8-0.3-1.5-0.7-1.9 -0.6-0.5-1.4-0.7-2.2-0.7 -0.3 0-0.5 0-0.6 0.1s-0.2 0.3-0.2 0.5L177.7 56.1z"/><path d="M205.4 60.3c0 0.2 0.1 0.4 0.1 0.5s-0.1 0.2-0.3 0.3c-1.4 0.7-2.7 1.1-4.7 1.1 -1.6 0-3.6-0.6-4.8-1.9 -1-1.1-1.5-2.5-1.5-4.5 0-1.5 0.7-3.1 1.9-4.2 1.2-1.1 2.7-1.6 4.7-1.6 1.6 0 2.8 0.5 3.4 0.9 0.2 0.1 0.3 0.1 0.4 0l0.2-0.3c0.1-0.1 0.1-0.2 0.2-0.2 0.2 0 0.2 0.1 0.2 0.2l0.2 3.3c0 0.1 0 0.2-0.1 0.2l-0.4 0.1c-0.1 0-0.1 0-0.2-0.1 -0.2-0.7-0.7-1.6-1.3-2.3 -0.6-0.6-1.5-1.2-2.7-1.2 -1 0-1.9 0.3-2.8 1.3 -0.8 0.9-1.4 2.3-1.4 3.7 0 2 0.5 3.6 1.5 4.6 0.8 0.8 1.6 1.1 2.6 1.1s1.7-0.1 2.2-0.4c0.4-0.2 0.4-0.7 0.4-1.5v-1.2c0-0.6-0.2-0.8-0.6-0.8h-0.7c-0.1 0-0.1-0.1-0.1-0.1v-0.4c0-0.1 0-0.1 0.1-0.1 0.2 0 1 0.1 2.3 0.1 1.4 0 2-0.1 2.1-0.1 0.1 0 0.2 0 0.2 0.1v0.4c0 0.1 0 0.1-0.1 0.1h-0.6c-0.3 0-0.5 0.1-0.5 0.6V60.3z"/><path d="M218.9 57.4c-0.1 0.4-0.9 2.7-1 3.2 0 0.1 0 0.3 0 0.3 0 0.2 0.3 0.4 0.6 0.4h0.7c0.1 0 0.2 0 0.2 0.1v0.4c0 0.1 0 0.2-0.1 0.2 -0.2 0-0.9 0-2.1 0 -1.2 0-1.6 0-1.8 0 -0.1 0-0.1-0.1-0.1-0.2v-0.3c0-0.1 0-0.1 0.1-0.1h0.5c0.5 0 0.8-0.2 1.1-0.7 0.2-0.3 1.4-3.3 1.9-4.7l1.6-4.3c0-0.2 0.1-0.5 0-0.6 0 0-0.1-0.1-0.1-0.2 0-0.1 0-0.1 0.2-0.2 0.5-0.1 1.4-0.6 1.6-0.8 0.1-0.1 0.2-0.2 0.2-0.2 0.1 0 0.2 0.2 0.2 0.3 0.3 1 1.6 4.7 1.9 5.8 0.4 1.3 1.5 4.4 1.7 4.8 0.3 0.6 0.7 0.8 1.1 0.8h0.5c0.1 0 0.1 0 0.1 0.1v0.3c0 0.1 0 0.2-0.2 0.2 -0.3 0-0.6 0-2.4 0 -1.4 0-1.9 0-2.3 0 -0.1 0-0.2-0.1-0.2-0.2v-0.3c0-0.1 0-0.1 0.1-0.1h0.4c0.5 0 0.6-0.2 0.5-0.6 -0.1-0.6-0.8-2.7-1-3.3H218.9zM222.6 56.7c-0.2-0.5-1.3-4.2-1.4-4.6 -0.1-0.2-0.1-0.3-0.2-0.3 -0.1 0-0.2 0.1-0.2 0.2 -0.1 0.2-1.6 4.3-1.7 4.7H222.6z"/><path d="M238.8 54.4c0 2.8 0.1 5.1 0.2 5.6 0 0.8 0.2 1.2 0.8 1.2h0.4c0.1 0 0.1 0.1 0.1 0.1v0.4c0 0.1 0 0.1-0.1 0.1 -0.2 0-1.2-0.1-1.8-0.1 -0.4 0-1.6 0.1-1.7 0.1 -0.1 0-0.1 0-0.1-0.1v-0.4c0 0 0-0.1 0.1-0.1h0.6c0.4 0 0.7-0.4 0.7-1.4 0-0.3 0.1-2.6 0.1-5.3v-2.1c0-1-0.6-1.8-1.3-1.8h-0.5c-0.1 0-0.1 0-0.1-0.1v-0.4c0-0.1 0-0.1 0.1-0.1 0.1 0 0.2 0 0.5 0s0.7 0 1.5 0c0.3 0 0.5 0 0.7 0 0.2 0 0.4 0 0.5 0 0.2 0 0.3 0 0.4 0.1 0.2 0.2 3.4 4.2 3.7 4.7 0.2 0.3 2.8 3.5 3.1 3.8h0.1V57.1c0-1.5 0-2.3 0-3.1 0-0.6-0.1-2.2-0.2-2.5 -0.1-0.4-0.5-0.6-0.9-0.6h-0.5c-0.1 0-0.1-0.1-0.1-0.1v-0.4c0-0.1 0-0.1 0.1-0.1 0.2 0 0.7 0 1.9 0 1 0 1.4 0 1.6 0 0.1 0 0.2 0.1 0.2 0.1v0.4c0 0.1 0 0.2-0.1 0.2h-0.5c-0.3 0-0.5 0.3-0.5 0.9 -0.1 1.1-0.2 3.9-0.2 5.6v4.4c0 0.2 0 0.5-0.2 0.5 -0.2 0-0.4-0.1-0.6-0.3 -0.1-0.2-1-1.2-2-2.4 -1.2-1.4-2.4-3-2.6-3.2 -0.2-0.2-2.9-3.5-3.1-3.8h-0.1V54.4z"/><path d="M261.9 56.5c0 0.2 0 4 0 4.1 0 0.5 0.3 0.6 0.7 0.6h0.7c0.1 0 0.1 0 0.1 0.1v0.4c0 0.1-0.1 0.1-0.2 0.1 -0.2 0-0.9-0.1-2.4-0.1 -1.7 0-2.4 0.1-2.5 0.1 -0.1 0-0.1 0-0.1-0.1v-0.4c0-0.1 0-0.1 0.1-0.1h0.7c0.3 0 0.7 0 0.8-0.5 0-0.2 0.1-3.8 0.1-4.7v-1.2c0-0.4 0-3.4 0-3.6 0-0.4-0.2-0.6-0.7-0.6h-0.9c-0.1 0-0.1 0-0.1-0.1v-0.4c0-0.1 0-0.1 0.1-0.1 0.2 0 1.1 0.1 2.7 0.1 1.6 0 2.1-0.1 2.3-0.1 0.1 0 0.1 0.1 0.1 0.1v0.4c0 0.1-0.1 0.1-0.1 0.1h-0.6c-0.4 0-0.6 0.1-0.6 0.4 0 0.2 0 3.8 0 4V56.5z"/><path d="M284.2 59.2c0.1 0.1 0.1 0.1 0 0.2 -1 1.4-2.6 2.8-4.9 2.8 -2.1 0-3.3-0.6-4.3-1.6 -1.2-1.1-1.8-3-1.8-4.5 0-1.6 0.5-3.2 1.7-4.4 0.9-1 2.3-1.8 4.3-1.8 1.5 0 2.7 0.5 3.3 0.8 0.2 0.1 0.3 0.1 0.3 0l0.1-0.4c0-0.1 0.1-0.1 0.3-0.1 0.2 0 0.2 0 0.2 0.3 0 0.3 0.3 2.9 0.4 3.4 0 0.1 0 0.1-0.1 0.2l-0.3 0.1c-0.1 0-0.1 0-0.2-0.2 -0.2-0.6-0.6-1.4-1.3-2.1 -0.7-0.7-1.6-1.2-2.9-1.2 -2.6 0-3.7 2.4-3.7 4.8 0 1 0.3 3 1.5 4.3 1.1 1.2 2.1 1.3 2.8 1.3 1.8 0 3.3-0.9 4-1.9 0.1-0.1 0.1-0.2 0.2-0.1L284.2 59.2z"/><path d="M296.3 57.4c-0.1 0.4-0.9 2.7-1 3.2 0 0.1 0 0.3 0 0.3 0 0.2 0.3 0.4 0.6 0.4h0.7c0.1 0 0.2 0 0.2 0.1v0.4c0 0.1 0 0.2-0.1 0.2 -0.2 0-0.9 0-2.1 0 -1.2 0-1.6 0-1.8 0 -0.1 0-0.1-0.1-0.1-0.2v-0.3c0-0.1 0-0.1 0.1-0.1h0.5c0.5 0 0.8-0.2 1.1-0.7 0.2-0.3 1.4-3.3 1.9-4.7l1.6-4.3c0-0.2 0.1-0.5 0-0.6 0 0-0.1-0.1-0.1-0.2 0-0.1 0-0.1 0.2-0.2 0.5-0.1 1.4-0.6 1.6-0.8 0.1-0.1 0.2-0.2 0.2-0.2 0.1 0 0.2 0.2 0.2 0.3 0.3 1 1.6 4.7 1.9 5.8 0.4 1.3 1.5 4.4 1.7 4.8 0.3 0.6 0.7 0.8 1.1 0.8h0.5c0.1 0 0.1 0 0.1 0.1v0.3c0 0.1 0 0.2-0.2 0.2 -0.3 0-0.6 0-2.4 0 -1.4 0-1.9 0-2.3 0 -0.1 0-0.2-0.1-0.2-0.2v-0.3c0-0.1 0-0.1 0.1-0.1h0.4c0.5 0 0.6-0.2 0.5-0.6 -0.1-0.6-0.8-2.7-1-3.3H296.3zM300 56.7c-0.2-0.5-1.3-4.2-1.4-4.6 -0.1-0.2-0.1-0.3-0.2-0.3 -0.1 0-0.2 0.1-0.2 0.2 -0.1 0.2-1.6 4.3-1.7 4.7H300z"/><path d="M324.1 58.5c0 0 0 0.1 0 0.2 -0.1 0.1-0.7 2.8-0.8 3.3 -0.4 0-5.2-0.1-6.9-0.1 -1.5 0-2.1 0.1-2.3 0.1 -0.1 0-0.1 0-0.1-0.1v-0.4c0-0.1 0-0.1 0.1-0.1h0.7c0.6 0 0.7-0.2 0.7-0.4 0-0.3 0.1-4.4 0.1-5.4v-0.9c0-1.1 0-2.8-0.1-3.1 0-0.4-0.1-0.6-0.5-0.6h-0.7c-0.1 0-0.1-0.1-0.1-0.1v-0.4c0-0.1 0-0.1 0.1-0.1 0.2 0 0.8 0.1 2.3 0.1 1.8 0 2.5 0 2.6 0 0.1 0 0.2 0.1 0.2 0.1v0.4c0 0.1 0 0.1-0.2 0.1h-0.9c-0.5 0-0.6 0.2-0.6 0.6 0 0.2-0.1 2.7-0.1 3.9v1.4c0 0.3 0 3.9 0.1 4.6h0.9c0.9 0 2.1 0 2.8-0.1 0.9-0.1 2-2.1 2.2-2.7 0.1-0.1 0.1-0.1 0.2-0.1L324.1 58.5z"/><path d="M342.9 58.5c0 0 0 0.1 0 0.2 -0.1 0.1-0.7 2.8-0.8 3.3 -0.4 0-5.2-0.1-6.9-0.1 -1.5 0-2.1 0.1-2.3 0.1 -0.1 0-0.1 0-0.1-0.1v-0.4c0-0.1 0-0.1 0.1-0.1h0.7c0.6 0 0.7-0.2 0.7-0.4 0-0.3 0.1-4.4 0.1-5.4v-0.9c0-1.1 0-2.8-0.1-3.1 0-0.4-0.1-0.6-0.5-0.6h-0.7c-0.1 0-0.1-0.1-0.1-0.1v-0.4c0-0.1 0-0.1 0.1-0.1 0.2 0 0.8 0.1 2.3 0.1 1.8 0 2.5 0 2.6 0 0.1 0 0.2 0.1 0.2 0.1v0.4c0 0.1 0 0.1-0.2 0.1h-0.9c-0.5 0-0.6 0.2-0.6 0.6 0 0.2-0.1 2.7-0.1 3.9v1.4c0 0.3 0 3.9 0.1 4.6h0.9c0.9 0 2.1 0 2.8-0.1 0.9-0.1 2-2.1 2.2-2.7 0.1-0.1 0.1-0.1 0.2-0.1L342.9 58.5z"/><path d="M357 58.8c0 0.6 0 1.7 0.1 1.9 0.1 0.5 0.3 0.6 0.6 0.6h0.5c0.1 0 0.1 0.1 0.1 0.1v0.4c0 0.1 0 0.2-0.1 0.2 -0.2 0-0.8 0-2.3 0 -1.6 0-2.1 0.1-2.3 0.1 -0.1 0-0.1-0.1-0.1-0.1v-0.4c0-0.1 0-0.1 0.1-0.1h0.7c0.4 0 0.6-0.2 0.6-0.4 0-0.2 0.1-1.5 0.1-3.1v-0.8c-0.3-0.5-2.9-5.3-3.4-5.8 -0.2-0.2-0.6-0.4-0.8-0.4h-0.3c-0.1 0-0.1 0-0.1-0.1v-0.4c0-0.1 0-0.1 0.1-0.1 0.1 0 0.9 0.1 2.2 0.1 1.7 0 2.3 0 2.4 0 0.1 0 0.1 0 0.1 0.1v0.4c0 0.1 0 0.2-0.1 0.2h-0.4c-0.4 0-0.5 0.1-0.5 0.5 0 0.3 2 4 2.5 4.9 0.6-0.9 2.7-4.4 2.7-4.8 0-0.3-0.1-0.6-0.6-0.6h-0.4c-0.1 0-0.1 0-0.1-0.1v-0.4c0-0.1 0-0.1 0.1-0.1 0.2 0 0.9 0.1 2 0.1 1.1 0 1.4 0 1.6 0 0.1 0 0.1 0 0.1 0.1v0.4c0 0.1 0 0.2-0.1 0.2h-0.4c-0.2 0-0.6 0.1-0.9 0.4 -0.3 0.3-3 4.5-3.6 5.6V58.8z"/></svg>
