<?xml version="1.0" encoding="utf-8"?>
<!-- Generator: Adobe Illustrator 21.0.0, SVG Export Plug-In . SVG Version: 6.00 Build 0)  -->
<svg version="1.1" id="Layer_1" xmlns="http://www.w3.org/2000/svg" xmlns:xlink="http://www.w3.org/1999/xlink" x="0px" y="0px"
	 viewBox="0 0 80.3 103.7" style="enable-background:new 0 0 80.3 103.7;" xml:space="preserve">
<style type="text/css">
	.st0{fill:#FFFFFF;}
	.st1{fill:#008039;}
	.st2{fill:url(#SVGID_1_);enable-background:new    ;}
	.st3{fill:#231F20;}
	.st4{fill:url(#SVGID_2_);enable-background:new    ;}
	.st5{fill:url(#SVGID_3_);enable-background:new    ;}
	.st6{fill:url(#SVGID_4_);enable-background:new    ;}
	.st7{clip-path:url(#SVGID_6_);fill:url(#SVGID_7_);}
	.st8{clip-path:url(#SVGID_6_);}
	.st9{clip-path:url(#SVGID_9_);fill:#C1D82F;}
	.st10{clip-path:url(#SVGID_9_);fill:#A9CF4E;}
	.st11{clip-path:url(#SVGID_6_);fill:url(#SVGID_10_);}
	.st12{clip-path:url(#SVGID_12_);fill:#C1D82F;}
	.st13{fill:url(#SVGID_13_);enable-background:new    ;}
	.st14{fill:url(#SVGID_14_);enable-background:new    ;}
</style>
<g>
	<path class="st0" d="M75,0H5.4C2.4,0,0,2.7,0,5.9v91.8c0,3.3,2.4,5.9,5.4,5.9H75c3,0,5.4-2.7,5.4-5.9V5.9C80.3,2.7,77.9,0,75,0z"/>
	<path class="st1" d="M75,0H5.4C2.4,0,0,2.7,0,5.9v91.8c0,3.3,2.4,5.9,5.4,5.9H75c3,0,5.4-2.7,5.4-5.9V5.9C80.3,2.7,77.9,0,75,0z
		 M4,23.2h72.3c0.3,0,0.7-0.1,1-0.2v57.4c-0.3-0.1-0.7-0.2-1-0.2H4c-0.3,0-0.7,0.1-1,0.2V23C3.3,23.1,3.7,23.2,4,23.2z"/>
	<path class="st0" d="M11.2,87.3c0-2.6,1.4-4.1,3.9-4.1s3.9,1.5,3.9,4.1v8.4c0,2.6-1.4,4.1-3.9,4.1s-3.9-1.5-3.9-4.1V87.3z
		 M13.8,95.9c0,1.2,0.5,1.6,1.3,1.6c0.8,0,1.3-0.4,1.3-1.6v-8.7c0-1.2-0.5-1.6-1.3-1.6c-0.8,0-1.3,0.4-1.3,1.6V95.9z M25.9,99.6
		c-0.1-0.4-0.2-0.7-0.2-2v-2.5c0-1.5-0.5-2.1-1.7-2.1h-0.9v6.6h-2.5V83.5h3.8c2.6,0,3.8,1.2,3.8,3.7v1.3c0,1.7-0.5,2.7-1.7,3.3v0
		c1.3,0.5,1.7,1.7,1.7,3.4v2.5c0,0.8,0,1.4,0.3,2H25.9z M23.1,85.8v5h1c0.9,0,1.5-0.4,1.5-1.7v-1.6c0-1.2-0.4-1.7-1.3-1.7H23.1z
		 M33.7,90.6h3.6v5.1c0,2.6-1.3,4.1-3.8,4.1s-3.8-1.5-3.8-4.1v-8.4c0-2.6,1.3-4.1,3.8-4.1s3.8,1.5,3.8,4.1v1.6h-2.4v-1.7
		c0-1.2-0.5-1.6-1.3-1.6c-0.8,0-1.3,0.4-1.3,1.6v8.7c0,1.2,0.5,1.6,1.3,1.6c0.8,0,1.3-0.4,1.3-1.6v-3h-1.2V90.6z M47.1,99.6h-2.6
		l-0.4-2.9H41l-0.4,2.9h-2.3l2.6-16.2h3.7L47.1,99.6z M41.3,94.5h2.5l-1.2-8.2h0L41.3,94.5z M50.6,87.9L50.6,87.9l0,11.7h-2.3V83.5
		h3.2l2.6,9.7h0v-9.7h2.3v16.2h-2.6L50.6,87.9z M58.2,83.5h2.5v16.2h-2.5V83.5z M69.9,93.6v2.2c0,2.6-1.3,4.1-3.8,4.1
		c-2.5,0-3.8-1.5-3.8-4.1v-8.4c0-2.6,1.3-4.1,3.8-4.1c2.5,0,3.8,1.5,3.8,4.1v1.6h-2.4v-1.7c0-1.2-0.5-1.6-1.3-1.6
		c-0.8,0-1.3,0.4-1.3,1.6v8.7c0,1.2,0.5,1.6,1.3,1.6c0.8,0,1.3-0.4,1.3-1.6v-2.3H69.9z M14,13.6v2.2c0,2.6-1.3,4.1-3.8,4.1
		s-3.8-1.5-3.8-4.1V7.4c0-2.6,1.3-4.1,3.8-4.1S14,4.8,14,7.4V9h-2.4V7.2c0-1.2-0.5-1.6-1.3-1.6C9.5,5.6,9,6.1,9,7.2V16
		c0,1.2,0.5,1.6,1.3,1.6c0.8,0,1.3-0.4,1.3-1.6v-2.3H14z M18.1,10.3h3.5v2.3h-3.5v4.7h4.4v2.3h-6.9V3.5h6.9v2.3h-4.4V10.3z
		 M29.4,19.7c-0.1-0.4-0.2-0.7-0.2-2v-2.5c0-1.5-0.5-2.1-1.7-2.1h-0.9v6.6h-2.5V3.5h3.8c2.6,0,3.8,1.2,3.8,3.7v1.3
		c0,1.7-0.5,2.7-1.7,3.3v0c1.3,0.5,1.7,1.7,1.7,3.4v2.5c0,0.8,0,1.4,0.3,2H29.4z M26.6,5.8v5h1c0.9,0,1.5-0.4,1.5-1.7V7.5
		c0-1.2-0.4-1.7-1.3-1.7H26.6z M32.6,3.5h7.9v2.3h-2.7v13.9h-2.5V5.8h-2.7V3.5z M41.6,3.5h2.5v16.2h-2.5V3.5z M48.5,10.7h3.3V13
		h-3.3v6.7H46V3.5h6.7v2.3h-4.2V10.7z M53.9,3.5h2.5v16.2h-2.5V3.5z M60.9,10.3h3.5v2.3h-3.5v4.7h4.4v2.3h-6.9V3.5h6.9v2.3h-4.4
		V10.3z M66.8,3.5h4c2.5,0,3.8,1.4,3.8,4v8.2c0,2.6-1.2,4-3.8,4h-4V3.5z M69.4,5.8v11.6h1.4c0.8,0,1.3-0.4,1.3-1.6V7.4
		c0-1.2-0.5-1.6-1.3-1.6H69.4z"/>
	<g>
		
			<linearGradient id="SVGID_1_" gradientUnits="userSpaceOnUse" x1="-2168.1907" y1="761.257" x2="-2168.1907" y2="676.1874" gradientTransform="matrix(1 0 0 1 2209.8989 -641.7721)">
			<stop  offset="0.2079" style="stop-color:#00BCF1"/>
			<stop  offset="0.8764" style="stop-color:#FFFFFF"/>
		</linearGradient>
		<ellipse class="st2" cx="41.7" cy="55.6" rx="21" ry="21.1"/>
		<path class="st3" d="M21.5,71.6c-4.5-4.6-5.9-9-5.9-14.8c0-12.1,9.9-23.1,26.8-23.1c6.5,0,11.6,1,16.9,4.9
			c4.8,3.5,7.4,9.5,7.4,15.1c0,14.9-11.3,24.6-26.4,24.6C34.2,78.4,27.2,77.4,21.5,71.6z M59.3,58.3c0-12.9-9-22.2-19.1-22.2
			c-8.4,0-17.5,5.6-17.5,18.2c0,10.9,8.8,21.7,20.7,21.7C52.1,75.9,59.3,68.1,59.3,58.3z"/>
		<g>
			<g>
				
					<linearGradient id="SVGID_2_" gradientUnits="userSpaceOnUse" x1="-2167.3452" y1="671.7054" x2="-2177.499" y2="679.115" gradientTransform="matrix(1 0 0 1 2209.8989 -641.7721)">
					<stop  offset="0" style="stop-color:#5BB947"/>
					<stop  offset="1" style="stop-color:#C1D82F"/>
				</linearGradient>
				<path class="st4" d="M32.2,27.8c1.8-2,4.4-3.3,6.7-2.6c3.1,1,2.1,3.4,2.1,3.4s4-0.7,5.5,2.1c1.8,3.2,0.4,8.4-5.7,9
					c-11.1,1.2-11.6,3.8-11.6,3.8S27.5,33,32.2,27.8z"/>
				<path class="st3" d="M31.7,27.4c-3.8,4.3-3.4,11.8-3.1,14.9c0.1,0.8,0.4,2.2,0.4,2.2s0.2-0.9,0.7-1.4c0.6-0.6,0.9-1.9,11-3
					c2.9-0.3,5.1-1.3,6.3-3.3c0.6-1.1,0.9-2.5,0.7-3.7c-0.1-0.9-0.3-1.7-0.8-2.5c-1.2-2.3-3.8-2.5-5.2-2.5c0-0.2,0-0.4,0-0.6
					c0-0.3-0.1-0.6-0.3-0.9c-0.4-0.8-1.2-1.5-2.4-1.8C36.7,23.9,33.9,24.9,31.7,27.4z M40,29.4l1.1-0.2c0,0,3.5-0.5,4.8,1.8
					c0.3,0.6,0.6,1.3,0.6,2c0.1,1-0.1,2.1-0.6,3c-0.9,1.7-2.8,2.8-5.2,3.1c-6.7,0.7-10,2.3-11.4,3.3c-0.3-3-0.2-11.1,3.2-15l0,0
					c1.5-1.6,3.9-2.4,6.1-1.7c0.8,0.3,1.4,0.6,1.6,1.2c0.3,0.7,0,1.5,0,1.5L40,29.4z M31.7,27.4L31.7,27.4L31.7,27.4z"/>
			</g>
			<path class="st3" d="M41,28.2c0,0-7.7,2-10.2,9.8l0.3,0.1c0,0,2.6-7.9,10.7-8.9L41,28.2z"/>
		</g>
		<g>
			<path class="st3" d="M59.9,75.1c0-1.1,0.9-2.1,2-2.1c1.1,0,2,0.9,2,2.1c0,1.2-0.9,2.1-2,2.1C60.8,77.2,59.9,76.2,59.9,75.1z
				 M63.5,75.1c0-1-0.7-1.8-1.7-1.8c-1,0-1.7,0.8-1.7,1.8c0,1,0.7,1.8,1.7,1.8C62.8,76.9,63.5,76.1,63.5,75.1z M62.9,76.2h-0.3
				l-0.6-1.1h-0.5v1.1h-0.3v-2.3h1c0.6,0,0.8,0.2,0.8,0.6c0,0.5-0.3,0.6-0.7,0.6L62.9,76.2z M61.8,74.9c0.3,0,0.8,0.1,0.8-0.4
				c0-0.4-0.3-0.4-0.6-0.4h-0.6v0.8H61.8z"/>
		</g>
		<g>
			<g>
				
					<linearGradient id="SVGID_3_" gradientUnits="userSpaceOnUse" x1="-2167.343" y1="677.5763" x2="-2154.0894" y2="677.5763" gradientTransform="matrix(1 0 0 1 2209.8989 -641.7721)">
					<stop  offset="0" style="stop-color:#5BB947"/>
					<stop  offset="1" style="stop-color:#C1D82F"/>
				</linearGradient>
				<path class="st5" d="M51.7,30.7c-1.5-1.4-3.3-2.3-4.8-1.6c-1.9,1-0.9,2.8-0.9,2.8s-2.7-0.2-3.3,2c-0.7,2.6,0.9,6.6,5,6.7
					c7.5,0.2,8.1,2.2,8.1,2.2S55.5,34.4,51.7,30.7z"/>
				<path class="st3" d="M46.7,28.7c-0.7,0.4-1.2,0.9-1.3,1.6c-0.1,0.3-0.1,0.5,0,0.8c0,0.2,0,0.3,0.1,0.5c-0.9,0.1-2.6,0.4-3.1,2.3
					c-0.2,0.6-0.2,1.3-0.2,2c0.1,1,0.4,2,1,2.9c1,1.6,2.7,2.1,4.6,2.2c6.8,0.1,7.2,1.2,7.6,1.6c0.4,0.4,0.7,1.1,0.7,1.1s0-1.1,0-1.7
					c-0.2-2.5-0.9-8.3-4-11.4C50.2,28.6,48.2,27.9,46.7,28.7z M46.4,31.7c0,0-0.3-0.6-0.2-1.1c0.1-0.4,0.4-0.8,0.9-1
					c1.4-0.7,3.1-0.3,4.3,0.9l0,0c2.8,2.7,3.9,9.1,4.2,11.4c-1-0.7-3.4-1.7-7.9-1.8c-1.6,0-3-0.8-3.8-2c-0.5-0.7-0.7-1.5-0.8-2.3
					c-0.1-0.6,0-1.1,0.1-1.6c0.5-1.9,2.9-1.7,2.9-1.7l0.8,0.1L46.4,31.7z M52,30.3L52,30.3L52,30.3z"/>
			</g>
			<path class="st3" d="M46,31.6c0,0,5.4,1,8,6.9l-0.2,0.1c0,0-2.8-6-8.3-6.2L46,31.6z"/>
		</g>
		<g>
			<path class="st3" d="M30.1,49.6c0,2.8-1.2,3.8-2.5,3.8c-1.2,0-2.5-1-2.5-3.8c0-2.8,1.2-3.8,2.5-3.8
				C28.9,45.8,30.1,46.8,30.1,49.6z M27.6,52.1c0.9,0,1-1.9,1-2.5c0-0.7-0.1-2.5-1-2.5c-0.9,0-1,1.8-1,2.5
				C26.6,50.2,26.7,52.1,27.6,52.1z"/>
			<path class="st3" d="M30.8,53.3v-7.4h1.4c0.9,0,2.5,0.1,2.5,2.1c0,0.8-0.3,1.5-1,1.9l1.2,3.4h-1.5l-1.2-3.4h0v3.4H30.8z
				 M32.2,49.1l0.2,0c0.6,0,0.9-0.5,0.9-1.1c0-0.5-0.2-1-0.9-0.9h-0.2V49.1z"/>
			<path class="st3" d="M38.6,45.9v1.4h-1.4v1.6h1.2v1.4h-1.2v1.7h1.4v1.4h-2.8v-7.4H38.6z"/>
			<path class="st3" d="M44,49.2v0.6c0,1.6-0.4,3.7-2.3,3.7s-2.5-2.2-2.5-3.8c0-1.7,0.5-3.9,2.5-3.9c1.1,0,1.8,0.7,2.1,1.8l-1.4,0.6
				c-0.1-0.4-0.2-1-0.7-1c-0.9-0.1-1,1.8-1,2.5c0,0.8,0,2.5,1.1,2.5c0.7,0,0.8-1,0.8-1.5h-0.9v-1.4H44z"/>
			<path class="st3" d="M49.5,49.6c0,2.8-1.2,3.8-2.5,3.8c-1.2,0-2.5-1-2.5-3.8c0-2.8,1.2-3.8,2.5-3.8
				C48.3,45.8,49.5,46.8,49.5,49.6z M47,52.1c0.9,0,1-1.9,1-2.5c0-0.7-0.1-2.5-1-2.5c-0.9,0-1,1.8-1,2.5C46,50.2,46.1,52.1,47,52.1z
				"/>
			<path class="st3" d="M51.6,45.9l1.7,4.5l0,0c-0.1-0.4-0.1-0.7-0.1-1.1v-3.3h1.4v7.4h-1.3l-1.7-4.5l0,0l0.1,0.8l0,0.3v3.4h-1.4
				v-7.4H51.6z"/>
			<path class="st3" d="M34.6,54.9v1.4h-1.1v6.1h-1.4v-6.1H31v-1.4H34.6z"/>
			<path class="st3" d="M36.6,54.9v7.4h-1.4v-7.4H36.6z"/>
			<path class="st3" d="M39,54.9V61h1.5v1.4h-2.9v-7.4H39z"/>
			<path class="st3" d="M43.8,54.9v1.4h-1.1v6.1h-1.4v-6.1h-1.1v-1.4H43.8z"/>
			<path class="st3" d="M45.9,54.9v2.9h1.4v-2.9h1.4v7.4h-1.4v-3.2h-1.4v3.2h-1.4v-7.4H45.9z"/>
		</g>
		<g>
			
				<linearGradient id="SVGID_4_" gradientUnits="userSpaceOnUse" x1="-2168.1924" y1="761.1997" x2="-2168.1924" y2="676.1815" gradientTransform="matrix(1 0 0 1 2209.8989 -641.7721)">
				<stop  offset="0.2079" style="stop-color:#00BCF1"/>
				<stop  offset="0.8764" style="stop-color:#FFFFFF"/>
			</linearGradient>
			<ellipse class="st6" cx="41.7" cy="55.5" rx="21" ry="21.1"/>
			<g>
				<defs>
					<path id="SVGID_5_" d="M20,65.9c2-2.2,7.6-3,13.4-1.1c0,0,7.7-2.3,13.9-0.1c0,0,10.4-2.7,14.1,1.6c2,2.2-7.2,10.9-19.6,10.6
						C30.5,76.5,17.3,69,20,65.9z"/>
				</defs>
				<clipPath id="SVGID_6_">
					<use xlink:href="#SVGID_5_"  style="overflow:visible;"/>
				</clipPath>
				
					<linearGradient id="SVGID_7_" gradientUnits="userSpaceOnUse" x1="-2182.2744" y1="721.1772" x2="-2182.2744" y2="704.6481" gradientTransform="matrix(1 0 0 1 2209.8989 -641.7721)">
					<stop  offset="0" style="stop-color:#007647"/>
					<stop  offset="0.2211" style="stop-color:#1D8B46"/>
					<stop  offset="0.468" style="stop-color:#369D45"/>
					<stop  offset="0.6936" style="stop-color:#45A844"/>
					<stop  offset="0.8764" style="stop-color:#4AAC44"/>
				</linearGradient>
				<path class="st7" d="M8.7,69.1c0,0,18-8.8,37.6-5.5c0.5,0.1,0,12-0.1,15.2C46.1,80.5,28,78,28,78l-17.9-3.5L8.7,69.1z"/>
				<g class="st8">
					<defs>
						<path id="SVGID_8_" d="M8.5,68.4c0,0,13.7-7.9,38.2-4.9c0.5,0.1-1,3.8-1.2,7.1c-0.1,1.7-2.9,1.7-2.9,1.7l-2.5,5.1l-13,0.2
							l-15.7-1.7L8.5,68.4z"/>
					</defs>
					<clipPath id="SVGID_9_">
						<use xlink:href="#SVGID_8_"  style="overflow:visible;"/>
					</clipPath>
					<path class="st9" d="M40.7,62.5c0,0-16.3,0.2-33.2,8.4c-0.4,0.2-0.8,0.4-1.2,0.6l0.9,1.8C7.2,73.3,22.7,64.1,40.7,62.5z"/>
					<path class="st9" d="M39.8,62.6c0,0-17,2.6-29.5,11.8l6.4,0.2c0,0,9-8.7,23.3-12L39.8,62.6z"/>
					<path class="st9" d="M40,62.7c0,0-13.6,5.3-17.9,11.6c-0.8,1.1-1.2,2.1-1.2,2.1l6.2,1l0.8-2.2c0,0,3.8-8,12.5-12.4H40z"/>
					<path class="st9" d="M40.4,62.7c0,0-5.7,5.1-7.8,12.1l-1,5l6.7-2.6c0,0,1.5-11.8,2.5-14.5L40.4,62.7z"/>
					<path class="st10" d="M41.1,62.8c0,0,2.2,9.7,2,11.9c0,0,0.5-0.1,1.2-0.2c2-0.3,5.4-2.9,4-5c-1.4-2.1-3.6-4.7-6.7-6.7
						L41.1,62.8z"/>
				</g>
				
					<linearGradient id="SVGID_10_" gradientUnits="userSpaceOnUse" x1="2012.8563" y1="719.4471" x2="2012.8563" y2="704.5605" gradientTransform="matrix(-1 0 0 1 2069.5857 -641.7721)">
					<stop  offset="0" style="stop-color:#007647"/>
					<stop  offset="0.2211" style="stop-color:#1D8B46"/>
					<stop  offset="0.468" style="stop-color:#369D45"/>
					<stop  offset="0.6936" style="stop-color:#45A844"/>
					<stop  offset="0.8764" style="stop-color:#4AAC44"/>
				</linearGradient>
				<path class="st11" d="M72.9,68.8c0,0-15-7.4-32-5.8c-0.3,0-0.8,9.2,1.1,9.9c5.3,2.1,11.6,4.7,11.6,4.7l17.9-3.5L72.9,68.8z"/>
				<g class="st8">
					<defs>
						<path id="SVGID_11_" d="M73.8,68.2c0,0-13.8-7.8-38.2-4.7c-0.5,0.1-3.7,11.5-3.5,14.7c0.1,1.7,7.5-1,7.5-1l2.9,0.2l13,3
							L71,75.7L73.8,68.2z"/>
					</defs>
					<clipPath id="SVGID_12_">
						<use xlink:href="#SVGID_11_"  style="overflow:visible;"/>
					</clipPath>
					<path class="st12" d="M41.7,62.8c0,0,16.3,0.2,33.2,8.4c0.4,0.2,1.3,0.6,1.3,0.6l-1,1.8C75.2,73.6,59.7,64.3,41.7,62.8z"/>
					<path class="st12" d="M42.6,62.9c0,0,17,2.6,29.5,11.8l-6.4,0.2c0,0-9-8.7-23.3-12L42.6,62.9z"/>
					<path class="st12" d="M42.4,62.9c0,0,13.6,5.3,17.9,11.6c0.8,1.1,1.2,2.1,1.2,2.1l-6.2,1l-0.8-2.2c0,0-3.8-8-12.5-12.4H42.4z"
						/>
					<path class="st12" d="M42,62.9c0,0,5.7,5.1,7.8,12.1l0.6,2.6L44,77.7c0,0-1.4-11.9-2.4-14.7L42,62.9z"/>
				</g>
				<use xlink:href="#SVGID_5_"  style="overflow:visible;fill:none;stroke:#5BB947;stroke-width:0.4;"/>
			</g>
			<path class="st3" d="M21.5,71.6c-4.5-4.6-5.9-9-5.9-14.8c0-12.1,9.9-23.1,26.8-23.1c6.5,0,11.6,1,16.9,4.9
				c4.8,3.5,7.4,9.5,7.4,15.1c0,14.9-11.3,24.6-26.3,24.6C34.2,78.4,27.2,77.4,21.5,71.6z M59.3,58.3c0-12.9-9-22.2-19.1-22.2
				c-8.4,0-17.5,5.6-17.5,18.2c0,10.9,8.8,21.6,20.7,21.6C52.1,75.9,59.3,68,59.3,58.3z"/>
			<g>
				<g>
					
						<linearGradient id="SVGID_13_" gradientUnits="userSpaceOnUse" x1="-2167.3474" y1="671.7022" x2="-2177.4951" y2="679.1073" gradientTransform="matrix(1 0 0 1 2209.8989 -641.7721)">
						<stop  offset="0" style="stop-color:#5BB947"/>
						<stop  offset="1" style="stop-color:#C1D82F"/>
					</linearGradient>
					<path class="st13" d="M32.2,27.8c1.8-2,4.4-3.3,6.7-2.6c3.1,1,2.1,3.4,2.1,3.4s4-0.7,5.5,2.1c1.8,3.2,0.4,8.4-5.7,9
						c-11.1,1.2-11.6,3.8-11.6,3.8S27.5,33,32.2,27.8z"/>
					<path class="st3" d="M31.7,27.4c-3.8,4.3-3.4,11.8-3.1,14.9c0.1,0.8,0.4,2.2,0.4,2.2s0.2-0.9,0.7-1.4c0.6-0.6,0.9-1.9,11-3
						c2.9-0.3,5.1-1.3,6.3-3.3c0.6-1.1,0.9-2.5,0.7-3.7c-0.1-0.9-0.3-1.7-0.8-2.5c-1.2-2.3-3.8-2.5-5.2-2.5c0-0.2,0-0.4,0-0.6
						c0-0.3-0.1-0.6-0.3-0.9c-0.4-0.8-1.2-1.5-2.4-1.8C36.7,23.9,33.9,24.9,31.7,27.4z M40,29.4l1.1-0.2c0,0,3.5-0.5,4.8,1.8
						c0.3,0.6,0.6,1.3,0.6,2c0.1,1-0.1,2.1-0.6,3c-0.9,1.7-2.8,2.8-5.2,3.1c-6.7,0.7-10,2.3-11.4,3.3c-0.3-3-0.2-11.1,3.2-15l0,0
						c1.5-1.6,3.9-2.4,6.1-1.7c0.8,0.3,1.4,0.6,1.6,1.2c0.3,0.7,0,1.5,0,1.5L40,29.4z M31.7,27.4L31.7,27.4L31.7,27.4z"/>
				</g>
				<path class="st3" d="M41,28.2c0,0-7.7,2-10.2,9.8l0.3,0.1c0,0,2.6-7.9,10.7-8.9L41,28.2z"/>
			</g>
			<g>
				<path class="st3" d="M59.9,75.1c0-1.1,0.9-2.1,2-2.1c1.1,0,2,0.9,2,2.1c0,1.2-0.9,2.1-2,2.1C60.8,77.1,59.9,76.2,59.9,75.1z
					 M63.5,75.1c0-1-0.7-1.8-1.7-1.8c-1,0-1.7,0.8-1.7,1.8c0,1,0.7,1.8,1.7,1.8C62.8,76.9,63.5,76.1,63.5,75.1z M62.8,76.2h-0.3
					l-0.6-1.1h-0.5v1.1h-0.3v-2.3h1c0.6,0,0.8,0.2,0.8,0.6c0,0.5-0.3,0.6-0.7,0.6L62.8,76.2z M61.8,74.9c0.3,0,0.8,0.1,0.8-0.4
					c0-0.4-0.3-0.4-0.6-0.4h-0.6v0.8H61.8z"/>
			</g>
			<g>
				<g>
					
						<linearGradient id="SVGID_14_" gradientUnits="userSpaceOnUse" x1="-2167.345" y1="677.5695" x2="-2154.0994" y2="677.5695" gradientTransform="matrix(1 0 0 1 2209.8989 -641.7721)">
						<stop  offset="0" style="stop-color:#5BB947"/>
						<stop  offset="1" style="stop-color:#C1D82F"/>
					</linearGradient>
					<path class="st14" d="M51.7,30.7c-1.5-1.4-3.3-2.3-4.8-1.6c-1.9,1-0.9,2.8-0.9,2.8s-2.7-0.2-3.3,2c-0.7,2.6,0.9,6.6,5,6.6
						c7.5,0.2,8.1,2.2,8.1,2.2S55.5,34.4,51.7,30.7z"/>
					<path class="st3" d="M46.7,28.7c-0.7,0.4-1.2,0.9-1.3,1.6c-0.1,0.3-0.1,0.5,0,0.8c0,0.2,0,0.3,0.1,0.5
						c-0.9,0.1-2.6,0.4-3.1,2.3c-0.2,0.6-0.2,1.3-0.2,2c0.1,1,0.4,2,1,2.9c1,1.5,2.7,2.1,4.6,2.2c6.8,0.1,7.2,1.2,7.6,1.6
						c0.4,0.4,0.7,1.1,0.7,1.1s0-1.1,0-1.7c-0.2-2.5-0.9-8.3-4-11.4C50.2,28.6,48.2,27.9,46.7,28.7z M46.4,31.7c0,0-0.3-0.6-0.2-1.1
						c0.1-0.4,0.4-0.8,0.9-1c1.4-0.7,3.1-0.3,4.3,0.9l0,0c2.8,2.7,3.9,9.1,4.2,11.4c-1-0.7-3.4-1.7-7.9-1.8c-1.6,0-3-0.8-3.8-2
						c-0.5-0.7-0.7-1.5-0.8-2.3c-0.1-0.6,0-1.1,0.1-1.6c0.5-1.9,2.9-1.7,2.9-1.7l0.8,0.1L46.4,31.7z M52,30.3L52,30.3L52,30.3z"/>
				</g>
				<path class="st3" d="M46,31.6c0,0,5.3,1,8,6.9l-0.2,0.1c0,0-2.8-6-8.3-6.2L46,31.6z"/>
			</g>
			<g>
				<path class="st3" d="M30.1,49.6c0,2.8-1.2,3.8-2.5,3.8c-1.2,0-2.5-1-2.5-3.8c0-2.8,1.2-3.8,2.5-3.8
					C28.9,45.7,30.1,46.8,30.1,49.6z M27.6,52.1c0.9,0,1-1.9,1-2.5c0-0.7-0.1-2.5-1-2.5c-0.9,0-1,1.8-1,2.5
					C26.6,50.2,26.7,52.1,27.6,52.1z"/>
				<path class="st3" d="M30.9,53.3v-7.4h1.4c0.9,0,2.5,0.1,2.5,2.1c0,0.8-0.3,1.5-1,1.9l1.2,3.4h-1.5l-1.2-3.4h0v3.4H30.9z
					 M32.2,49.1l0.2,0c0.6,0,0.9-0.5,0.9-1.1c0-0.5-0.2-1-0.9-0.9h-0.2V49.1z"/>
				<path class="st3" d="M38.6,45.9v1.4h-1.4v1.6h1.2v1.4h-1.2v1.7h1.4v1.4h-2.8v-7.4H38.6z"/>
				<path class="st3" d="M44,49.2v0.6c0,1.6-0.4,3.7-2.3,3.7s-2.5-2.2-2.5-3.8c0-1.7,0.5-3.9,2.5-3.9c1.1,0,1.8,0.7,2.1,1.8
					l-1.4,0.6c-0.1-0.4-0.2-1-0.7-1c-0.9-0.1-1,1.8-1,2.5c0,0.8,0,2.5,1.1,2.5c0.7,0,0.8-1,0.8-1.5h-0.9v-1.4H44z"/>
				<path class="st3" d="M49.5,49.6c0,2.8-1.2,3.8-2.5,3.8c-1.2,0-2.5-1-2.5-3.8c0-2.8,1.2-3.8,2.5-3.8
					C48.3,45.7,49.5,46.8,49.5,49.6z M47,52.1c0.9,0,1-1.9,1-2.5c0-0.7-0.1-2.5-1-2.5c-0.9,0-1,1.8-1,2.5C46,50.2,46.1,52.1,47,52.1
					z"/>
				<path class="st3" d="M51.6,45.9l1.7,4.5l0,0c-0.1-0.4-0.1-0.7-0.1-1.1v-3.3h1.4v7.4h-1.3l-1.7-4.5l0,0l0.1,0.8l0,0.3v3.4h-1.4
					v-7.4H51.6z"/>
				<path class="st3" d="M34.6,54.9v1.4h-1.1v6.1h-1.4v-6.1H31v-1.4H34.6z"/>
				<path class="st3" d="M36.6,54.9v7.4h-1.4v-7.4H36.6z"/>
				<path class="st3" d="M39,54.9V61h1.5v1.4h-2.9v-7.4H39z"/>
				<path class="st3" d="M43.8,54.9v1.4h-1.1v6.1h-1.4v-6.1h-1.1v-1.4H43.8z"/>
				<path class="st3" d="M45.9,54.9v2.9h1.4v-2.9h1.4v7.4h-1.4v-3.1h-1.4v3.1h-1.4v-7.4H45.9z"/>
			</g>
		</g>
	</g>
</g>
</svg>
