<?xml version="1.0" encoding="utf-8"?>
<!-- Generator: Adobe Illustrator 21.0.0, SVG Export Plug-In . SVG Version: 6.00 Build 0)  -->
<svg version="1.1" id="Layer_1" xmlns="http://www.w3.org/2000/svg" xmlns:xlink="http://www.w3.org/1999/xlink" x="0px" y="0px"
	 viewBox="0 0 103.9 103.7" style="enable-background:new 0 0 103.9 103.7;" xml:space="preserve">
<style type="text/css">
	.st0{fill:#309D7E;}
	.st1{clip-path:url(#SVGID_2_);}
	.st2{fill:#008357;}
	.st3{fill:#733907;}
	.st4{fill:#FFFFFF;}
</style>
<g>
	<g>
		<path class="st0" d="M96.7,51.8c0,24.7-20.1,44.8-44.8,44.8c-24.7,0-44.8-20.1-44.8-44.8H96.7"/>
	</g>
	<g>
		<defs>
			<path id="SVGID_1_" d="M96.7,51.8c0,24.7-20.1,44.8-44.8,44.8c-24.7,0-44.8-20.1-44.8-44.8H96.7"/>
		</defs>
		<clipPath id="SVGID_2_">
			<use xlink:href="#SVGID_1_"  style="overflow:visible;"/>
		</clipPath>
		<g class="st1">
			<polyline class="st2" points="96.7,51.8 5.1,51.8 8.8,66.6 96.7,51.8 			"/>
		</g>
		<g class="st1">
			<polyline class="st2" points="96.7,51.8 9.6,68.7 17.2,82.1 96.7,51.8 			"/>
		</g>
		<g class="st1">
			<polyline class="st2" points="96.7,51.8 19.4,83.7 33,93.9 96.7,51.8 			"/>
		</g>
		<g class="st1">
			<polyline class="st2" points="96.7,51.8 35.9,94.8 55,99.4 96.7,51.8 			"/>
		</g>
		<g class="st1">
			<polyline class="st2" points="96.7,51.8 59.9,97.5 95.1,97.3 96.7,51.8 			"/>
		</g>
	</g>
	<g>
		<path class="st3" d="M52,103.7c-13.8,0-26.9-5.4-36.7-15.2C5.5,78.7,0.1,65.7,0.1,51.8C0.1,23.3,23.4,0,52,0
			c13.8,0,26.9,5.4,36.7,15.2c9.8,9.8,15.2,22.8,15.2,36.7c0,13.8-5.4,26.9-15.2,36.7C78.8,98.3,65.8,103.7,52,103.7z M52,4.1
			C25.7,4.1,4.3,25.5,4.3,51.8c0,26.3,21.4,47.7,47.7,47.7s47.7-21.4,47.7-47.7C99.7,25.5,78.3,4.1,52,4.1z"/>
	</g>
	<g>
		<path class="st2" d="M25.3,27h4.5v14.6c0,0.9,0.3,1.7,1.6,1.7c1.2,0,1.5-1,1.5-1.9V27h4.5v14c0,3.3-1.5,5.8-6.1,5.8
			c-3.8,0-6.1-1.8-6.1-5.8V27"/>
	</g>
	<g>
		<path class="st2" d="M43.1,39.9v1.4c0,1.1,0.4,2.1,1.8,2.1c1.1,0,1.5-1,1.5-1.9c0-1.6-1.3-2.2-2.5-3c-1.4-0.8-2.6-1.5-3.4-2.5
			c-0.8-1-1.3-2.2-1.3-3.9c0-3.6,2.2-5.5,5.7-5.5c3.9,0,6,2.6,5.8,6.3h-4.2c-0.1-1.1,0-2.7-1.5-2.8c-0.9-0.1-1.5,0.4-1.6,1.3
			c-0.1,1.2,0.5,1.8,1.4,2.4c1.7,1.1,3.2,1.8,4.2,2.7c1.1,1,1.7,2.3,1.7,4.6c0,3.7-2.1,5.8-5.8,5.8c-4.2,0-5.9-2.3-5.9-4.9v-2.1
			H43.1"/>
	</g>
	<g>
		<path class="st2" d="M58.7,46.4c1.4,0,2.8-0.1,4-0.9c1.3-0.8,1.9-2.2,1.9-4.2v-8.6c0-1.9-0.3-3.7-2-4.8c-1.5-0.9-3.5-0.9-5.1-0.9
			h-4.9v19.4H58.7 M57.1,30.5c2.2,0.1,3,0.2,3,2.5v6.3c0.1,2.6,0.1,3.8-3,3.6V30.5z"/>
	</g>
	<g>
		<path class="st2" d="M70.6,46.4l0.5-3.8h3.6l0.6,3.8h4.6L75.7,27h-5.5L66,46.4H70.6 M74.2,39.2h-2.6l1.3-8.7H73L74.2,39.2z"/>
	</g>
	<g>
		<path class="st4" d="M27.2,61.7c0-2.8-1.6-4.3-4.6-4.3c-3,0-4.6,1.5-4.6,4.3v5.9c0,3.3,1.2,5,4.6,5c3.4,0,4.6-1.7,4.6-5V61.7
			 M23.8,67.8c0,0.8-0.1,2.1-1.2,2.1c-1.1,0-1.2-1.2-1.2-2.1v-6c0-0.9,0.1-2,1.2-2c1.1,0,1.2,1.1,1.2,2V67.8z"/>
	</g>
	<g>
		<path class="st4" d="M32.1,66.5h1.1c0.8,0.1,1.1,0.6,1.2,1.5c0.1,0.9,0,2.1,0.1,3.4c0,0.3,0.1,0.6,0.2,0.8h3.7V72
			c-0.2-0.1-0.3-0.3-0.3-0.5c-0.2-0.9-0.2-3.4-0.3-4.6c-0.1-1-0.7-1.7-1.7-1.9v0c1.4-0.7,1.8-1.8,1.8-3.3c0-2.9-1.4-4-4.2-4h-5v14.5
			h3.4V66.5 M32.1,60.3c1.7,0,2.4,0,2.4,1.8c0,0.9-0.2,1.8-1.2,1.8h-1.2V60.3z"/>
	</g>
	<g>
		<path class="st4" d="M46.3,72.2l-0.2-1.3h0c-0.7,1.2-1.5,1.6-2.9,1.6c-2.9,0-3.8-2-3.8-4.6v-6c0-3.2,1.5-4.6,4.6-4.6
			c2.9,0,4.6,1.2,4.6,4.2v1.1h-3.4v-0.8c0-1.2-0.2-1.9-1.1-1.9c-1.1,0-1.3,0.6-1.3,1.5v7.2c0,0.8,0.4,1.3,1.3,1.3
			c1.2,0,1.2-0.9,1.2-1.9v-1.1H44v-2.6h4.6v7.9H46.3"/>
	</g>
	<g>
		<path class="st4" d="M53,72.2l0.4-2.8h2.7l0.5,2.8h3.4l-3.2-14.5h-4.1l-3.2,14.5H53 M55.8,66.8h-2l1-6.5h0L55.8,66.8z"/>
	</g>
	<g>
		<polyline class="st4" points="64,64.1 64,64.1 64.3,72.2 61,72.2 61,57.7 64.5,57.7 67.2,65.8 67.2,65.8 66.9,57.7 70.1,57.7 
			70.1,72.2 66.7,72.2 64,64.1 		"/>
	</g>
	<g>
		<rect x="72" y="57.7" class="st4" width="3.4" height="14.5"/>
	</g>
	<g>
		<path class="st4" d="M82.9,62.7v-0.9c0-1.2-0.4-1.9-1.1-1.9c-1.1,0-1.3,0.6-1.3,1.5l0,7.2c0,0.8,0.3,1.3,1.2,1.3
			c1.2,0,1.3-1.2,1.3-2.1v-1.3h3.4v1.8c0,2.5-1.4,4.2-4.9,4.2c-3.1,0-4.4-1.7-4.4-4.6v-6c0-3.2,1.5-4.6,4.6-4.6
			c2.9,0,4.6,1.2,4.6,4.2v1.2H82.9"/>
	</g>
</g>
</svg>
