<svg xmlns="http://www.w3.org/2000/svg" width="564" height="124" viewBox="0 0 564.3 123.6"><style>.a{fill:#A8BEC4;}</style><path d="M517.3 62.2c6.4 5.6 14.5 8.7 22.9 8.7s16.5-3.1 22.9-8.7l1.3-1.1 -1.3-1.1c-6.4-5.6-14.5-8.7-22.9-8.7s-16.5 3.1-22.9 8.7l-1.3 1.1L517.3 62.2zM540.2 54.2c7.1 0 13.9 2.4 19.5 6.9 -5.6 4.4-12.5 6.9-19.5 6.9 -7.1 0-13.9-2.4-19.5-6.9C526.3 56.6 533.1 54.2 540.2 54.2" class="a"/><path d="M514.5 123.6c6.9-8.1 11.1-18.7 11.1-30.1h0c0-12.6-5-24-13.1-32.4l7.3-7.3 -2.1-2.1 -7.3 7.3c-8.3-7.6-19.3-12.2-31.4-12.2 -25.7 0-46.7 20.9-46.7 46.7 0 11.5 4.2 22 11.1 30.1h4c-7.5-7.8-12.1-18.5-12.1-30.1 0-24.1 19.6-43.7 43.7-43.7 24.1 0 43.7 19.6 43.7 43.7h0c0 11.7-4.6 22.3-12.1 30.1H514.5z" class="a"/><path d="M461 97.8c0-1.3-0.3-2.6-1-3.7l-6.5-11.3 -6.5 11.3c-0.7 1.1-1 2.4-1 3.8 0 4.2 3.4 7.5 7.5 7.5S461 102 461 97.8M453.5 102.3c-2.5 0-4.5-2-4.5-4.5 0-0.8 0.2-1.6 0.6-2.2l3.9-6.8 3.9 6.8c0.4 0.7 0.6 1.4 0.6 2.3C458 100.3 456 102.3 453.5 102.3" class="a"/><path d="M277.1 77.8c-0.7 1.1-1 2.4-1 3.8 0 4.2 3.4 7.5 7.5 7.5 4.2 0 7.5-3.4 7.5-7.5 0-1.3-0.3-2.6-1-3.7l-6.5-11.3L277.1 77.8zM288.2 81.5c0 2.5-2 4.5-4.5 4.5 -2.5 0-4.5-2-4.5-4.5 0-0.8 0.2-1.6 0.6-2.2l3.9-6.8 3.9 6.8C288 80 288.2 80.7 288.2 81.5" class="a"/><path d="M477.8 74.3c0-1.2-1-2.3-2.3-2.3 -1.2 0-2.3 1-2.3 2.3s1 2.3 2.3 2.3C476.8 76.6 477.8 75.6 477.8 74.3" class="a"/><path d="M465.7 74.3c0-1.2-1-2.3-2.3-2.3s-2.3 1-2.3 2.3 1 2.3 2.3 2.3S465.7 75.6 465.7 74.3" class="a"/><path d="M471.8 68.3c0-1.3-1-2.3-2.3-2.3 -1.3 0-2.3 1-2.3 2.3 0 1.3 1 2.3 2.3 2.3C470.8 70.6 471.8 69.5 471.8 68.3" class="a"/><path d="M323.6 89.2c0 2.9 2.4 5.3 5.3 5.3s5.3-2.4 5.3-5.3c0-2.9-2.4-5.3-5.3-5.3S323.6 86.3 323.6 89.2M328.9 86.9c1.3 0 2.3 1 2.3 2.3 0 1.3-1 2.3-2.3 2.3s-2.3-1-2.3-2.3C326.6 87.9 327.6 86.9 328.9 86.9" class="a"/><path d="M361.3 115.6c0 2.9 2.4 5.3 5.3 5.3s5.3-2.4 5.3-5.3 -2.4-5.3-5.3-5.3S361.3 112.7 361.3 115.6M368.9 115.6c0 1.3-1 2.3-2.3 2.3 -1.3 0-2.3-1-2.3-2.3s1-2.3 2.3-2.3C367.9 113.3 368.9 114.4 368.9 115.6" class="a"/><path d="M391.5 106.6c0 2.9 2.4 5.3 5.3 5.3s5.3-2.4 5.3-5.3 -2.4-5.3-5.3-5.3S391.5 103.7 391.5 106.6M399.1 106.6c0 1.3-1 2.3-2.3 2.3s-2.3-1-2.3-2.3 1-2.3 2.3-2.3S399.1 105.3 399.1 106.6" class="a"/><path d="M423.7 47.4l7-4 -1.5-2.6 -7 4c-8.2-1.5-16.6-0.1-23.7 4 -7.3 4.2-12.8 11-15.5 19.1l-0.5 1.6 1.7 0.3c2.3 0.5 4.7 0.7 7 0.7 6.1 0 12-1.6 17.2-4.6C415.5 61.9 420.9 55.3 423.7 47.4M406.9 63.4c-6.1 3.5-13.3 4.9-20.5 3.8 2.6-6.7 7.4-12.3 13.6-15.8 6.1-3.5 13.4-4.9 20.5-3.8C417.8 54.3 413 59.8 406.9 63.4" class="a"/><path d="M413.7 72.8l-1.5-2.6 -7 4c-8.2-1.5-16.6-0.1-23.7 4 -7.3 4.2-12.8 11-15.5 19.1l-0.5 1.6 1.7 0.3c2.3 0.5 4.7 0.7 7 0.7 6.1 0 12-1.6 17.2-4.6 7.1-4.1 12.5-10.7 15.3-18.5L413.7 72.8zM389.9 92.8c-6.1 3.5-13.4 4.9-20.5 3.8 2.6-6.7 7.4-12.3 13.6-15.8 6.1-3.5 13.4-4.9 20.5-3.8C400.8 83.7 396 89.3 389.9 92.8" class="a"/><path d="M370.4 8.6v8c-5.4 6.3-8.4 14.3-8.4 22.6 0 8.4 3.1 16.6 8.8 23l1.1 1.3 1.1-1.3c5.7-6.4 8.8-14.6 8.8-23 0-8.2-3-16.2-8.4-22.5V8.6H370.4zM371.9 58.8c-4.5-5.6-6.9-12.5-6.9-19.6s2.4-14 6.9-19.6c4.5 5.6 6.9 12.6 6.9 19.6C378.8 46.3 376.3 53.2 371.9 58.8" class="a"/><path d="M353.4 38v8c-5.4 6.3-8.4 14.3-8.4 22.6 0 8.4 3.1 16.6 8.8 23l1.1 1.3 1.1-1.3c5.7-6.4 8.8-14.6 8.8-23 0-8.2-3-16.2-8.4-22.5v-8.1H353.4zM354.9 88.3c-4.5-5.6-6.9-12.5-6.9-19.6 0-7.1 2.4-14 6.9-19.6 4.5 5.6 6.9 12.6 6.9 19.6C361.8 75.7 359.3 82.6 354.9 88.3" class="a"/><path d="M327.4 69.7c25.6 25.4 16 51.1 15.9 51.3l1.4 0.5 1.3 0.8 43.1-74.6c7.9-2.8 14.4-8.2 18.5-15.3 4.1-7.1 5.5-15.5 4-23.7l4.1-7.1L413.1 0l-4.1 7.1c-7.9 2.8-14.4 8.2-18.5 15.3 -4.1 7.1-5.5 15.5-4 23.7l-38.5 66.7c0.2-2.3 0.3-5 0.1-7.9 -0.7-9.3-4.5-23.3-18.5-37.3L327.4 69.7zM393.1 23.9c3.5-6.1 9.1-10.9 15.8-13.6 1 7.1-0.3 14.3-3.8 20.5 -3.5 6.1-9.1 10.9-15.8 13.6C388.2 37.3 389.5 30.1 393.1 23.9" class="a"/><path d="M305.8 108.6l-1.3 1.1 1.3 1.1c4.5 4 10.2 6.1 16.1 6.1 5.9 0 11.6-2.2 16.1-6.1l1.3-1.1 -1.3-1.1c-4.5-4-10.2-6.1-16.1-6.1C316 102.4 310.2 104.6 305.8 108.6M321.8 114c-4.6 0-9-1.5-12.7-4.3 3.7-2.8 8.2-4.3 12.7-4.3 4.6 0 9 1.5 12.7 4.3C330.9 112.5 326.4 114 321.8 114" class="a"/><path d="M47 62.2l1.3-1.1 -1.3-1.1c-6.4-5.6-14.5-8.7-22.9-8.7S7.7 54.3 1.3 59.9L0 61.1l1.3 1.1c6.4 5.6 14.5 8.7 22.9 8.7S40.6 67.8 47 62.2M24.1 54.2c7.1 0 13.9 2.4 19.5 6.9 -5.6 4.4-12.5 6.9-19.5 6.9s-13.9-2.4-19.5-6.9C10.2 56.6 17.1 54.2 24.1 54.2" class="a"/><path d="M132.1 93.4c0-25.7-20.9-46.7-46.7-46.7 -12.1 0-23.1 4.6-31.4 12.2l-7.3-7.3 -2.1 2.1 7.3 7.3C43.8 69.4 38.8 80.8 38.8 93.4h0c0 11.5 4.2 22 11.1 30.2h4c-7.5-7.8-12.1-18.5-12.1-30.1h0c0-24.1 19.6-43.7 43.7-43.7s43.7 19.6 43.7 43.7c0 11.7-4.6 22.3-12.1 30.2h4C127.9 115.4 132.1 104.9 132.1 93.4" class="a"/><path d="M118.4 97.8c0-1.3-0.3-2.6-1-3.7l-6.5-11.3 -6.5 11.3c-0.7 1.1-1 2.4-1 3.8 0 4.2 3.4 7.5 7.5 7.5C115 105.3 118.4 102 118.4 97.8M106.3 97.8c0-0.8 0.2-1.6 0.6-2.2l3.9-6.8 3.9 6.8c0.4 0.7 0.6 1.4 0.6 2.3 0 2.5-2 4.5-4.5 4.5S106.3 100.3 106.3 97.8" class="a"/><path d="M91 74.3c0-1.2-1-2.3-2.3-2.3 -1.3 0-2.3 1-2.3 2.3s1 2.3 2.3 2.3C90 76.6 91 75.6 91 74.3" class="a"/><path d="M103.1 74.3c0-1.2-1-2.3-2.3-2.3 -1.3 0-2.3 1-2.3 2.3s1 2.3 2.3 2.3C102.1 76.6 103.1 75.6 103.1 74.3" class="a"/><path d="M97.1 68.3c0-1.3-1-2.3-2.3-2.3s-2.3 1-2.3 2.3c0 1.3 1 2.3 2.3 2.3S97.1 69.5 97.1 68.3" class="a"/><path d="M233.6 83.9c-2.9 0-5.3 2.4-5.3 5.3 0 2.9 2.4 5.3 5.3 5.3 2.9 0 5.3-2.4 5.3-5.3C238.9 86.3 236.5 83.9 233.6 83.9M233.6 91.5c-1.3 0-2.3-1-2.3-2.3 0-1.3 1-2.3 2.3-2.3 1.3 0 2.3 1 2.3 2.3C235.9 90.5 234.8 91.5 233.6 91.5" class="a"/><path d="M195.9 120.9c2.9 0 5.3-2.4 5.3-5.3s-2.4-5.3-5.3-5.3c-2.9 0-5.3 2.4-5.3 5.3S192.9 120.9 195.9 120.9M195.9 113.3c1.3 0 2.3 1 2.3 2.3s-1 2.3-2.3 2.3c-1.3 0-2.3-1-2.3-2.3S194.6 113.3 195.9 113.3" class="a"/><path d="M160.4 106.6c0 2.9 2.4 5.3 5.3 5.3 2.9 0 5.3-2.4 5.3-5.3s-2.4-5.3-5.3-5.3C162.8 101.3 160.4 103.7 160.4 106.6M167.9 106.6c0 1.3-1 2.3-2.3 2.3 -1.3 0-2.3-1-2.3-2.3s1-2.3 2.3-2.3C166.9 104.3 167.9 105.3 167.9 106.6" class="a"/><path d="M172 22.4c-4.1-7.1-10.7-12.5-18.5-15.3L149.3 0l-2.6 1.5 4.1 7.1c-1.5 8.2-0.1 16.6 4 23.7 4.1 7.1 10.7 12.5 18.5 15.3l43.1 74.6 1.3-0.7 1.4-0.5c-0.1-0.3-9.8-25.8 15.9-51.3l-2.1-2.1c-17.5 17.4-19.3 35.1-18.4 45.4l-38.6-66.8C177.5 37.9 176.1 29.5 172 22.4M157.4 30.8c-3.5-6.1-4.9-13.4-3.8-20.5 6.7 2.7 12.3 7.4 15.8 13.6 3.5 6.1 4.9 13.4 3.8 20.5C166.5 41.7 161 37 157.4 30.8" class="a"/><path d="M140.3 44.8l-7-4 -1.5 2.6 7 4c2.8 7.9 8.2 14.4 15.3 18.5 5.2 3 11.2 4.6 17.2 4.6 2.3 0 4.7-0.2 7-0.7l1.7-0.3 -0.5-1.6c-2.7-8.1-8.2-14.9-15.5-19.1C156.9 44.7 148.5 43.3 140.3 44.8M162.5 51.4c6.1 3.6 10.9 9.1 13.6 15.8 -7.1 1-14.3-0.3-20.5-3.8s-10.9-9.1-13.6-15.8C149.2 46.5 156.4 47.9 162.5 51.4" class="a"/><path d="M188.3 100c2.3 0 4.7-0.2 7-0.7l1.7-0.3 -0.5-1.6c-2.7-8.1-8.2-14.9-15.5-19.1 -7.1-4.1-15.5-5.5-23.7-4l-7-4 -1.5 2.6 7 4c2.8 7.9 8.2 14.4 15.3 18.5C176.3 98.4 182.3 100 188.3 100M159 77c7.1-1 14.3 0.3 20.5 3.8 6.1 3.5 10.9 9.1 13.6 15.8 -7.1 1-14.3-0.3-20.5-3.8S161.7 83.7 159 77" class="a"/><path d="M189.1 8.6v8.1c-5.4 6.3-8.4 14.3-8.4 22.5 0 8.4 3.1 16.6 8.8 23l1.1 1.3 1.1-1.3c5.7-6.4 8.8-14.6 8.8-23 0-8.2-3-16.2-8.4-22.6V8.6H189.1zM190.6 58.8c-4.5-5.6-6.9-12.5-6.9-19.6 0-7.1 2.4-14 6.9-19.6 4.5 5.6 6.9 12.6 6.9 19.6S195.1 53.2 190.6 58.8" class="a"/><path d="M206.1 38v8.1c-5.4 6.3-8.4 14.3-8.4 22.5 0 8.4 3.1 16.6 8.8 23l1.1 1.3 1.1-1.3c5.7-6.4 8.8-14.6 8.8-23 0-8.2-3-16.2-8.4-22.6v-8H206.1zM207.6 88.3c-4.5-5.6-6.9-12.6-6.9-19.6 0-7.1 2.4-14 6.9-19.6 4.5 5.6 6.9 12.6 6.9 19.6C214.5 75.7 212 82.6 207.6 88.3" class="a"/><path d="M223.2 109.7l1.3 1.1c4.5 4 10.2 6.2 16.1 6.2s11.6-2.2 16.1-6.1l1.3-1.1 -1.3-1.1c-4.5-4-10.2-6.1-16.1-6.1s-11.6 2.2-16.1 6.1L223.2 109.7zM240.6 105.4c4.6 0 9 1.5 12.7 4.3 -3.7 2.8-8.1 4.3-12.7 4.3s-9-1.5-12.7-4.3C231.6 107 236 105.4 240.6 105.4" class="a"/><path d="M282.8 11.8l-12.4 7.2v12.5l-10.9 6.3v14.3l12.4 7.2 10.9-6.3 10.9 6.3 12.4-7.2V37.7l-10.9-6.3V18.9L282.8 11.8zM282.8 15.2l9.4 5.4v10.7l-9.4 5.4 -9.4-5.4V20.6L282.8 15.2zM262.5 50.3V39.4l9.3-5.4 9.5 5.5v10.7l-9.4 5.4L262.5 50.3zM303.1 50.3l-9.4 5.4 -9.4-5.4V39.5l9.5-5.5 9.3 5.4V50.3z" class="a"/><path d="M457.5 36.9c0-3.6-3-6.6-6.6-6.6s-6.6 3-6.6 6.6c0 3.6 3 6.6 6.6 6.6S457.5 40.6 457.5 36.9M447.3 36.9c0-2 1.6-3.6 3.6-3.6s3.6 1.6 3.6 3.6c0 2-1.6 3.6-3.6 3.6S447.3 38.9 447.3 36.9" class="a"/><path d="M118.8 36.9c0-3.6-3-6.6-6.6-6.6 -3.6 0-6.6 3-6.6 6.6 0 3.6 3 6.6 6.6 6.6C115.8 43.5 118.8 40.6 118.8 36.9M108.6 36.9c0-2 1.6-3.6 3.6-3.6 2 0 3.6 1.6 3.6 3.6 0 2-1.6 3.6-3.6 3.6C110.2 40.5 108.6 38.9 108.6 36.9" class="a"/></svg>
