<svg xmlns="http://www.w3.org/2000/svg" width="646" height="124" viewBox="0 0 645.7 123.6"><style>.a{fill:#A8BEC4;}</style><path d="M631 66l-6.1 6.1 -51.5 51.5h4.2l19.9-19.9v19.9h3v-19.9l19.9 19.9h4.2l-22-22h31.4c-0.3 8.2-3.5 15.9-9 22h3.9c5.3-6.7 8.2-14.9 8.2-23.5 0-9.7-3.6-18.8-10.1-25.8l4-4c13.8 14.8 15.4 36.9 4.9 53.3h3.5c10.4-17.9 8-41.2-7.3-56.5L631 66zM634.1 98.5H602.7l22.2-22.2C630.5 82.4 633.7 90.2 634.1 98.5" class="a"/><path d="M558 62.2c6.4 5.6 14.5 8.7 22.9 8.7s16.5-3.1 22.9-8.7L605 61.1l-1.3-1.1c-6.4-5.6-14.5-8.7-22.9-8.7s-16.5 3.1-22.9 8.7l-1.3 1.1L558 62.2zM580.9 54.2c7.1 0 13.9 2.4 19.5 6.9 -5.6 4.4-12.5 6.9-19.5 6.9 -7.1 0-13.9-2.4-19.5-6.9C567 56.6 573.8 54.2 580.9 54.2" class="a"/><path d="M555.2 123.6c6.9-8.1 11.1-18.7 11.1-30.1h0c0-12.6-5-24-13.1-32.4l7.3-7.3 -2.1-2.1 -7.3 7.3c-8.3-7.6-19.3-12.2-31.4-12.2 -25.7 0-46.7 20.9-46.7 46.7 0 11.5 4.2 22 11.1 30.1h4c-7.5-7.8-12.1-18.5-12.1-30.1 0-24.1 19.6-43.7 43.7-43.7 24.1 0 43.7 19.6 43.7 43.7h0c0 11.7-4.6 22.3-12.1 30.1H555.2z" class="a"/><path d="M501.7 97.8c0-1.3-0.3-2.6-1-3.7l-6.5-11.3 -6.5 11.3c-0.7 1.1-1 2.4-1 3.8 0 4.2 3.4 7.5 7.5 7.5S501.7 102 501.7 97.8M494.1 102.3c-2.5 0-4.5-2-4.5-4.5 0-0.8 0.2-1.6 0.6-2.2l3.9-6.8 3.9 6.8c0.4 0.7 0.6 1.4 0.6 2.3C498.7 100.3 496.7 102.3 494.1 102.3" class="a"/><path d="M317.8 77.8c-0.7 1.1-1 2.4-1 3.8 0 4.2 3.4 7.5 7.5 7.5 4.2 0 7.5-3.4 7.5-7.5 0-1.3-0.3-2.6-1-3.7l-6.5-11.3L317.8 77.8zM328.9 81.5c0 2.5-2 4.5-4.5 4.5 -2.5 0-4.5-2-4.5-4.5 0-0.8 0.2-1.6 0.6-2.2l3.9-6.8 3.9 6.8C328.7 80 328.9 80.7 328.9 81.5" class="a"/><path d="M518.5 74.3c0-1.2-1-2.3-2.3-2.3 -1.2 0-2.3 1-2.3 2.3s1 2.3 2.3 2.3C517.5 76.6 518.5 75.6 518.5 74.3" class="a"/><path d="M506.4 74.3c0-1.2-1-2.3-2.3-2.3s-2.3 1-2.3 2.3 1 2.3 2.3 2.3S506.4 75.6 506.4 74.3" class="a"/><path d="M512.5 68.3c0-1.3-1-2.3-2.3-2.3 -1.3 0-2.3 1-2.3 2.3 0 1.3 1 2.3 2.3 2.3C511.4 70.6 512.5 69.5 512.5 68.3" class="a"/><path d="M364.3 89.2c0 2.9 2.4 5.3 5.3 5.3s5.3-2.4 5.3-5.3c0-2.9-2.4-5.3-5.3-5.3S364.3 86.3 364.3 89.2M369.5 86.9c1.3 0 2.3 1 2.3 2.3 0 1.3-1 2.3-2.3 2.3s-2.3-1-2.3-2.3C367.3 87.9 368.3 86.9 369.5 86.9" class="a"/><path d="M402 115.6c0 2.9 2.4 5.3 5.3 5.3s5.3-2.4 5.3-5.3 -2.4-5.3-5.3-5.3S402 112.7 402 115.6M409.6 115.6c0 1.3-1 2.3-2.3 2.3 -1.3 0-2.3-1-2.3-2.3s1-2.3 2.3-2.3C408.5 113.3 409.6 114.4 409.6 115.6" class="a"/><path d="M432.2 106.6c0 2.9 2.4 5.3 5.3 5.3s5.3-2.4 5.3-5.3 -2.4-5.3-5.3-5.3S432.2 103.7 432.2 106.6M439.7 106.6c0 1.3-1 2.3-2.3 2.3s-2.3-1-2.3-2.3 1-2.3 2.3-2.3S439.7 105.3 439.7 106.6" class="a"/><path d="M464.3 47.4l7-4 -1.5-2.6 -7 4c-8.2-1.5-16.6-0.1-23.7 4 -7.3 4.2-12.8 11-15.5 19.1l-0.5 1.6 1.7 0.3c2.3 0.5 4.7 0.7 7 0.7 6.1 0 12-1.6 17.2-4.6C456.2 61.9 461.6 55.3 464.3 47.4M447.5 63.4c-6.1 3.5-13.3 4.9-20.5 3.8 2.6-6.7 7.4-12.3 13.6-15.8 6.1-3.5 13.4-4.9 20.5-3.8C458.4 54.3 453.7 59.8 447.5 63.4" class="a"/><path d="M454.4 72.8l-1.5-2.6 -7 4c-8.2-1.5-16.6-0.1-23.7 4 -7.3 4.2-12.8 11-15.5 19.1l-0.5 1.6 1.7 0.3c2.3 0.5 4.7 0.7 7 0.7 6.1 0 12-1.6 17.2-4.6 7.1-4.1 12.5-10.7 15.3-18.5L454.4 72.8zM430.6 92.8c-6.1 3.5-13.4 4.9-20.5 3.8 2.6-6.7 7.4-12.3 13.6-15.8 6.1-3.5 13.4-4.9 20.5-3.8C441.5 83.7 436.7 89.3 430.6 92.8" class="a"/><path d="M411.1 8.6v8c-5.4 6.3-8.4 14.3-8.4 22.6 0 8.4 3.1 16.6 8.8 23l1.1 1.3 1.1-1.3c5.7-6.4 8.8-14.6 8.8-23 0-8.2-3-16.2-8.4-22.5V8.6H411.1zM412.5 58.8c-4.5-5.6-6.9-12.5-6.9-19.6s2.4-14 6.9-19.6c4.5 5.6 6.9 12.6 6.9 19.6C419.4 46.3 417 53.2 412.5 58.8" class="a"/><path d="M394.1 38v8c-5.4 6.3-8.4 14.3-8.4 22.6 0 8.4 3.1 16.6 8.8 23l1.1 1.3 1.1-1.3c5.7-6.4 8.8-14.6 8.8-23 0-8.2-3-16.2-8.4-22.5v-8.1H394.1zM395.6 88.3c-4.5-5.6-6.9-12.5-6.9-19.6 0-7.1 2.4-14 6.9-19.6 4.5 5.6 6.9 12.6 6.9 19.6C402.5 75.7 400 82.6 395.6 88.3" class="a"/><path d="M368.1 69.7c25.6 25.4 16 51.1 15.9 51.3l1.4 0.5 1.3 0.8 43.1-74.6c7.9-2.8 14.4-8.2 18.5-15.3 4.1-7.1 5.5-15.5 4-23.7l4.1-7.1L453.8 0l-4.1 7.1c-7.9 2.8-14.4 8.2-18.5 15.3 -4.1 7.1-5.5 15.5-4 23.7l-38.5 66.7c0.2-2.3 0.3-5 0.1-7.9 -0.7-9.3-4.5-23.3-18.5-37.3L368.1 69.7zM433.8 23.9c3.5-6.1 9.1-10.9 15.8-13.6 1 7.1-0.3 14.3-3.8 20.5 -3.5 6.1-9.1 10.9-15.8 13.6C428.9 37.3 430.2 30.1 433.8 23.9" class="a"/><path d="M346.4 108.6l-1.3 1.1 1.3 1.1c4.5 4 10.2 6.1 16.1 6.1 5.9 0 11.6-2.2 16.1-6.1l1.3-1.1 -1.3-1.1c-4.5-4-10.2-6.1-16.1-6.1C356.6 102.4 350.9 104.6 346.4 108.6M362.5 114c-4.6 0-9-1.5-12.7-4.3 3.7-2.8 8.2-4.3 12.7-4.3 4.6 0 9 1.5 12.7 4.3C371.6 112.5 367.1 114 362.5 114" class="a"/><path d="M14.7 66l-1.1 1.1c-15.3 15.3-17.7 38.7-7.3 56.5h3.5c-10.6-16.5-8.9-38.6 4.9-53.3l4 4C5.9 88 5.3 109 16.7 123.6h3.9c-5.7-6.3-8.7-14.1-9-22h31.4l-22 22h4.2l19.9-19.9v19.9h3v-19.9l19.9 19.9h4.2L47.7 99 14.7 66zM43 98.5H11.6c0.3-8 3.4-15.9 9.2-22.2L43 98.5z" class="a"/><path d="M87.7 62.2l1.3-1.1 -1.3-1.1c-6.4-5.6-14.5-8.7-22.9-8.7s-16.5 3.1-22.9 8.7l-1.3 1.1 1.3 1.1c6.4 5.6 14.5 8.7 22.9 8.7S81.3 67.8 87.7 62.2M64.8 54.2c7.1 0 13.9 2.4 19.5 6.9 -5.6 4.4-12.5 6.9-19.5 6.9s-13.9-2.4-19.5-6.9C50.9 56.6 57.8 54.2 64.8 54.2" class="a"/><path d="M172.8 93.4c0-25.7-20.9-46.7-46.7-46.7 -12.1 0-23.1 4.6-31.4 12.2l-7.3-7.3 -2.1 2.1 7.3 7.3c-8.1 8.4-13.1 19.8-13.1 32.4h0c0 11.5 4.2 22 11.1 30.2h4c-7.5-7.8-12.1-18.5-12.1-30.1h0c0-24.1 19.6-43.7 43.7-43.7s43.7 19.6 43.7 43.7c0 11.7-4.6 22.3-12.1 30.2h4C168.6 115.4 172.8 104.9 172.8 93.4" class="a"/><path d="M159.1 97.8c0-1.3-0.3-2.6-1-3.7l-6.5-11.3 -6.5 11.3c-0.7 1.1-1 2.4-1 3.8 0 4.2 3.4 7.5 7.5 7.5C155.7 105.3 159.1 102 159.1 97.8M147 97.8c0-0.8 0.2-1.6 0.6-2.2l3.9-6.8 3.9 6.8c0.4 0.7 0.6 1.4 0.6 2.3 0 2.5-2 4.5-4.5 4.5S147 100.3 147 97.8" class="a"/><path d="M131.7 74.3c0-1.2-1-2.3-2.3-2.3 -1.3 0-2.3 1-2.3 2.3s1 2.3 2.3 2.3C130.7 76.6 131.7 75.6 131.7 74.3" class="a"/><path d="M143.8 74.3c0-1.2-1-2.3-2.3-2.3 -1.3 0-2.3 1-2.3 2.3s1 2.3 2.3 2.3C142.8 76.6 143.8 75.6 143.8 74.3" class="a"/><path d="M137.8 68.3c0-1.3-1-2.3-2.3-2.3s-2.3 1-2.3 2.3c0 1.3 1 2.3 2.3 2.3S137.8 69.5 137.8 68.3" class="a"/><path d="M274.3 83.9c-2.9 0-5.3 2.4-5.3 5.3 0 2.9 2.4 5.3 5.3 5.3 2.9 0 5.3-2.4 5.3-5.3C279.5 86.3 277.2 83.9 274.3 83.9M274.3 91.5c-1.3 0-2.3-1-2.3-2.3 0-1.3 1-2.3 2.3-2.3s2.3 1 2.3 2.3C276.5 90.5 275.5 91.5 274.3 91.5" class="a"/><path d="M236.5 120.9c2.9 0 5.3-2.4 5.3-5.3s-2.4-5.3-5.3-5.3c-2.9 0-5.3 2.4-5.3 5.3S233.6 120.9 236.5 120.9M236.5 113.3c1.3 0 2.3 1 2.3 2.3s-1 2.3-2.3 2.3c-1.3 0-2.3-1-2.3-2.3S235.3 113.3 236.5 113.3" class="a"/><path d="M201.1 106.6c0 2.9 2.4 5.3 5.3 5.3 2.9 0 5.3-2.4 5.3-5.3s-2.4-5.3-5.3-5.3C203.4 101.3 201.1 103.7 201.1 106.6M208.6 106.6c0 1.3-1 2.3-2.3 2.3 -1.3 0-2.3-1-2.3-2.3s1-2.3 2.3-2.3C207.6 104.3 208.6 105.3 208.6 106.6" class="a"/><path d="M212.7 22.4c-4.1-7.1-10.7-12.5-18.5-15.3L190 0 187.4 1.5l4.1 7.1c-1.5 8.2-0.1 16.6 4 23.7 4.1 7.1 10.7 12.5 18.5 15.3l43.1 74.6 1.3-0.7 1.4-0.5c-0.1-0.3-9.8-25.8 15.9-51.3l-2.1-2.1c-17.5 17.4-19.3 35.1-18.4 45.4l-38.6-66.8C218.2 37.9 216.8 29.5 212.7 22.4M198.1 30.8c-3.5-6.1-4.9-13.4-3.8-20.5 6.7 2.7 12.3 7.4 15.8 13.6 3.5 6.1 4.9 13.4 3.8 20.5C207.2 41.7 201.6 37 198.1 30.8" class="a"/><path d="M181 44.8l-7-4 -1.5 2.6 7 4c2.8 7.9 8.2 14.4 15.3 18.5 5.2 3 11.2 4.6 17.2 4.6 2.3 0 4.7-0.2 7-0.7l1.7-0.3 -0.5-1.6c-2.7-8.1-8.2-14.9-15.5-19.1C197.6 44.7 189.2 43.3 181 44.8M203.2 51.4c6.1 3.6 10.9 9.1 13.6 15.8 -7.1 1-14.3-0.3-20.5-3.8s-10.9-9.1-13.6-15.8C189.8 46.5 197 47.9 203.2 51.4" class="a"/><path d="M229 100c2.3 0 4.7-0.2 7-0.7l1.7-0.3 -0.5-1.6c-2.7-8.1-8.2-14.9-15.5-19.1 -7.1-4.1-15.5-5.5-23.7-4l-7-4 -1.5 2.6 7 4c2.8 7.9 8.2 14.4 15.3 18.5C217 98.4 223 100 229 100M199.7 77c7.1-1 14.3 0.3 20.5 3.8 6.1 3.5 10.9 9.1 13.6 15.8 -7.1 1-14.3-0.3-20.5-3.8S202.4 83.7 199.7 77" class="a"/><path d="M229.8 8.6v8.1c-5.4 6.3-8.4 14.3-8.4 22.5 0 8.4 3.1 16.6 8.8 23l1.1 1.3 1.1-1.3c5.7-6.4 8.8-14.6 8.8-23 0-8.2-3-16.2-8.4-22.6V8.6H229.8zM231.3 58.8c-4.5-5.6-6.9-12.5-6.9-19.6 0-7.1 2.4-14 6.9-19.6 4.5 5.6 6.9 12.6 6.9 19.6S235.7 53.2 231.3 58.8" class="a"/><path d="M246.7 38v8.1c-5.4 6.3-8.4 14.3-8.4 22.5 0 8.4 3.1 16.6 8.8 23l1.1 1.3 1.1-1.3c5.7-6.4 8.8-14.6 8.8-23 0-8.2-3-16.2-8.4-22.6v-8H246.7zM248.3 88.3c-4.5-5.6-6.9-12.6-6.9-19.6 0-7.1 2.4-14 6.9-19.6 4.5 5.6 6.9 12.6 6.9 19.6C255.2 75.7 252.7 82.6 248.3 88.3" class="a"/><path d="M263.9 109.7l1.3 1.1c4.5 4 10.2 6.2 16.1 6.2s11.6-2.2 16.1-6.1l1.3-1.1 -1.3-1.1c-4.5-4-10.2-6.1-16.1-6.1s-11.6 2.2-16.1 6.1L263.9 109.7zM281.3 105.4c4.6 0 9 1.5 12.7 4.3 -3.7 2.8-8.2 4.3-12.7 4.3s-9-1.5-12.7-4.3C272.3 107 276.7 105.4 281.3 105.4" class="a"/><path d="M323.5 11.8l-12.4 7.2v12.5l-10.9 6.3v14.3l12.4 7.2 10.9-6.3 10.9 6.3 12.4-7.2V37.7l-10.9-6.3V18.9L323.5 11.8zM323.5 15.2l9.4 5.4v10.7l-9.4 5.4 -9.4-5.4V20.6L323.5 15.2zM303.2 50.3V39.4l9.3-5.4 9.5 5.5v10.7l-9.4 5.4L303.2 50.3zM343.8 50.3l-9.4 5.4 -9.4-5.4V39.5l9.5-5.5 9.3 5.4V50.3z" class="a"/><path d="M498.2 36.9c0-3.6-3-6.6-6.6-6.6s-6.6 3-6.6 6.6c0 3.6 3 6.6 6.6 6.6S498.2 40.6 498.2 36.9M488 36.9c0-2 1.6-3.6 3.6-3.6s3.6 1.6 3.6 3.6c0 2-1.6 3.6-3.6 3.6S488 38.9 488 36.9" class="a"/><path d="M159.5 36.9c0-3.6-3-6.6-6.6-6.6 -3.6 0-6.6 3-6.6 6.6 0 3.6 3 6.6 6.6 6.6C156.5 43.5 159.5 40.6 159.5 36.9M149.2 36.9c0-2 1.6-3.6 3.6-3.6 2 0 3.6 1.6 3.6 3.6 0 2-1.6 3.6-3.6 3.6C150.9 40.5 149.2 38.9 149.2 36.9" class="a"/></svg>
