<svg xmlns="http://www.w3.org/2000/svg" width="353" height="122" viewBox="0 0 353 122.3"><style>.a{fill:#A8BEC4;}</style><path d="M172.6 77.8c-0.7 1.1-1 2.4-1 3.8 0 4.2 3.4 7.5 7.5 7.5 4.2 0 7.5-3.4 7.5-7.5 0-1.3-0.3-2.6-1-3.8L179.1 66.5 172.6 77.8zM183.6 81.5c0 2.5-2 4.5-4.5 4.5 -2.5 0-4.5-2-4.5-4.5 0-0.8 0.2-1.6 0.6-2.3l3.9-6.8 3.9 6.8C183.4 80 183.6 80.7 183.6 81.5" class="a"/><path d="M219 89.2c0 2.9 2.4 5.3 5.3 5.3s5.3-2.4 5.3-5.3c0-2.9-2.4-5.3-5.3-5.3S219 86.3 219 89.2M224.3 86.9c1.3 0 2.3 1 2.3 2.3 0 1.3-1 2.3-2.3 2.3s-2.3-1-2.3-2.3C222 87.9 223 86.9 224.3 86.9" class="a"/><path d="M256.8 115.6c0 2.9 2.4 5.3 5.3 5.3s5.3-2.4 5.3-5.3c0-2.9-2.4-5.3-5.3-5.3S256.8 112.7 256.8 115.6M264.3 115.6c0 1.3-1 2.3-2.3 2.3 -1.3 0-2.3-1-2.3-2.3s1-2.3 2.3-2.3C263.3 113.3 264.3 114.4 264.3 115.6" class="a"/><path d="M287 106.6c0 2.9 2.4 5.3 5.3 5.3s5.3-2.4 5.3-5.3c0-2.9-2.4-5.3-5.3-5.3S287 103.7 287 106.6M294.5 106.6c0 1.3-1 2.3-2.3 2.3s-2.3-1-2.3-2.3 1-2.3 2.3-2.3S294.5 105.3 294.5 106.6" class="a"/><path d="M319.1 47.4l7-4 -1.5-2.6 -7 4c-8.2-1.5-16.6-0.1-23.7 4 -7.3 4.2-12.8 11-15.5 19.1l-0.5 1.6 1.7 0.3c2.3 0.5 4.7 0.7 7 0.7 6.1 0 12-1.6 17.2-4.6C310.9 61.9 316.3 55.3 319.1 47.4M302.3 63.4c-6.1 3.6-13.3 4.9-20.5 3.8 2.6-6.7 7.4-12.3 13.6-15.8 6.1-3.5 13.4-4.9 20.5-3.8C313.2 54.3 308.4 59.8 302.3 63.4" class="a"/><path d="M309.1 72.8l-1.5-2.6 -7 4c-8.2-1.5-16.6-0.1-23.7 4 -7.3 4.2-12.8 11-15.5 19.1l-0.5 1.6 1.7 0.3c2.3 0.5 4.7 0.7 7 0.7 6.1 0 12-1.6 17.2-4.6 7.1-4.1 12.5-10.7 15.3-18.5L309.1 72.8zM285.3 92.8c-6.1 3.6-13.4 4.9-20.5 3.8 2.6-6.7 7.4-12.3 13.6-15.8 6.1-3.5 13.4-4.9 20.5-3.8C296.2 83.7 291.5 89.3 285.3 92.8" class="a"/><path d="M265.8 8.6v8c-5.4 6.3-8.4 14.3-8.4 22.6 0 8.4 3.1 16.6 8.8 23l1.1 1.3 1.1-1.3c5.7-6.4 8.8-14.6 8.8-23 0-8.2-3-16.2-8.4-22.5V8.6H265.8zM267.3 58.8c-4.5-5.6-6.9-12.5-6.9-19.6s2.4-14 6.9-19.6c4.5 5.6 6.9 12.6 6.9 19.6C274.2 46.3 271.8 53.2 267.3 58.8" class="a"/><path d="M248.8 38v8c-5.4 6.3-8.4 14.3-8.4 22.6 0 8.4 3.1 16.6 8.8 23l1.1 1.3 1.1-1.3c5.7-6.4 8.8-14.6 8.8-23 0-8.2-3-16.2-8.4-22.5v-8.1H248.8zM250.3 88.3c-4.5-5.6-6.9-12.5-6.9-19.6 0-7.1 2.4-14 6.9-19.6 4.5 5.6 6.9 12.6 6.9 19.6C257.2 75.7 254.8 82.6 250.3 88.3" class="a"/><path d="M222.9 69.7c25.6 25.4 16 51.1 15.9 51.3l1.4 0.5 1.3 0.8 43.1-74.6c7.9-2.8 14.4-8.2 18.5-15.3 4.1-7.1 5.5-15.5 4-23.7l4.1-7.1L308.6 0l-4.1 7.1c-7.9 2.8-14.4 8.2-18.5 15.3 -4.1 7.1-5.5 15.5-4 23.7l-38.5 66.7c0.2-2.3 0.3-5 0.1-7.9 -0.7-9.3-4.5-23.3-18.5-37.3L222.9 69.7zM288.5 23.9c3.5-6.1 9.1-10.9 15.8-13.6 1 7.1-0.3 14.3-3.8 20.5 -3.5 6.1-9.1 10.9-15.8 13.6C283.6 37.3 285 30.1 288.5 23.9" class="a"/><path d="M201.2 108.6l-1.3 1.1 1.3 1.1c4.5 4 10.2 6.1 16.1 6.1 5.9 0 11.6-2.2 16.1-6.1l1.3-1.1 -1.3-1.1c-4.5-4-10.2-6.1-16.1-6.1C211.4 102.4 205.7 104.6 201.2 108.6M217.3 114c-4.6 0-9-1.5-12.7-4.3 3.7-2.8 8.2-4.3 12.7-4.3 4.6 0 9 1.5 12.7 4.3C226.3 112.5 221.9 114 217.3 114" class="a"/><path d="M129 83.9c-2.9 0-5.3 2.4-5.3 5.3 0 2.9 2.4 5.3 5.3 5.3 2.9 0 5.3-2.4 5.3-5.3C134.3 86.3 131.9 83.9 129 83.9M129 91.5c-1.3 0-2.3-1-2.3-2.3 0-1.3 1-2.3 2.3-2.3s2.3 1 2.3 2.3C131.3 90.5 130.3 91.5 129 91.5" class="a"/><path d="M91.3 120.9c2.9 0 5.3-2.4 5.3-5.3 0-2.9-2.4-5.3-5.3-5.3 -2.9 0-5.3 2.4-5.3 5.3C86 118.5 88.4 120.9 91.3 120.9M91.3 113.3c1.3 0 2.3 1 2.3 2.3 0 1.3-1 2.3-2.3 2.3 -1.3 0-2.3-1-2.3-2.3C89 114.4 90 113.3 91.3 113.3" class="a"/><path d="M55.8 106.6c0 2.9 2.4 5.3 5.3 5.3 2.9 0 5.3-2.4 5.3-5.3 0-2.9-2.4-5.3-5.3-5.3C58.2 101.3 55.8 103.7 55.8 106.6M63.4 106.6c0 1.3-1 2.3-2.3 2.3 -1.3 0-2.3-1-2.3-2.3s1-2.3 2.3-2.3C62.4 104.3 63.4 105.3 63.4 106.6" class="a"/><path d="M67.4 22.4C63.3 15.3 56.7 9.9 48.9 7.1L44.8 0l-2.6 1.5 4.1 7.1c-1.5 8.2-0.1 16.6 4 23.7 4.1 7.1 10.7 12.5 18.5 15.3l43.1 74.6 1.3-0.7 1.4-0.5c-0.1-0.3-9.8-25.8 15.9-51.3l-2.1-2.1c-17.5 17.4-19.3 35.1-18.4 45.4L71.4 46.1C72.9 37.9 71.5 29.5 67.4 22.4M52.8 30.8c-3.5-6.1-4.9-13.4-3.8-20.5 6.7 2.7 12.3 7.4 15.8 13.6 3.5 6.1 4.9 13.4 3.8 20.5C62 41.7 56.4 37 52.8 30.8" class="a"/><path d="M35.7 44.8l-7-4 -1.5 2.6 7 4c2.8 7.9 8.2 14.4 15.3 18.5 5.2 3 11.2 4.6 17.2 4.6 2.3 0 4.7-0.2 7-0.7l1.7-0.3 -0.5-1.6c-2.7-8.1-8.2-14.9-15.5-19.1C52.3 44.7 43.9 43.3 35.7 44.8M57.9 51.4c6.1 3.6 10.9 9.1 13.6 15.8 -7.1 1-14.3-0.3-20.5-3.8 -6.1-3.5-10.9-9.1-13.6-15.8C44.6 46.5 51.8 47.9 57.9 51.4" class="a"/><path d="M83.8 100c2.3 0 4.7-0.2 7-0.7l1.7-0.3 -0.5-1.6c-2.7-8.1-8.2-14.9-15.5-19.1 -7.1-4.1-15.5-5.5-23.7-4l-7-4 -1.5 2.6 7 4c2.8 7.9 8.2 14.4 15.3 18.5C71.8 98.4 77.7 100 83.8 100M54.5 77c7.1-1 14.3 0.3 20.5 3.8 6.1 3.6 10.9 9.1 13.6 15.8 -7.1 1-14.3-0.3-20.5-3.8C61.9 89.3 57.1 83.7 54.5 77" class="a"/><path d="M84.5 8.6v8.1c-5.4 6.3-8.4 14.3-8.4 22.5 0 8.4 3.1 16.6 8.8 23l1.1 1.3 1.1-1.3c5.7-6.4 8.8-14.6 8.8-23 0-8.2-3-16.2-8.4-22.6V8.6H84.5zM86 58.8c-4.5-5.6-6.9-12.5-6.9-19.6 0-7.1 2.4-14 6.9-19.6 4.5 5.6 6.9 12.6 6.9 19.6S90.5 53.2 86 58.8" class="a"/><path d="M101.5 38v8.1c-5.4 6.3-8.4 14.3-8.4 22.5 0 8.4 3.1 16.6 8.8 23l1.1 1.3 1.1-1.3c5.7-6.4 8.8-14.6 8.8-23 0-8.2-3-16.2-8.4-22.6v-8H101.5zM103 88.3c-4.5-5.6-6.9-12.5-6.9-19.6s2.4-14 6.9-19.6c4.5 5.6 6.9 12.6 6.9 19.6C109.9 75.7 107.5 82.6 103 88.3" class="a"/><path d="M118.7 109.7l1.3 1.1c4.5 4 10.2 6.1 16.1 6.1s11.6-2.2 16.1-6.1l1.3-1.1 -1.3-1.1c-4.5-4-10.2-6.1-16.1-6.1s-11.6 2.2-16.1 6.1L118.7 109.7zM136 105.4c4.6 0 9 1.5 12.7 4.3 -3.7 2.8-8.2 4.3-12.7 4.3s-9-1.5-12.7-4.3C127 107 131.5 105.4 136 105.4" class="a"/><path d="M178.3 11.8l-12.4 7.2v12.5l-10.9 6.3v14.3l12.4 7.2 10.9-6.3 10.9 6.3 12.4-7.2V37.7l-10.9-6.3V18.9L178.3 11.8zM178.3 15.2l9.4 5.4v10.7l-9.4 5.4 -9.4-5.4V20.6L178.3 15.2zM158 50.3V39.4l9.3-5.4 9.5 5.5v10.7l-9.4 5.4L158 50.3zM198.6 50.3l-9.4 5.4 -9.4-5.4V39.5l9.5-5.5 9.3 5.4V50.3z" class="a"/><path d="M353 36.9c0-3.6-3-6.6-6.6-6.6s-6.6 3-6.6 6.6c0 3.6 3 6.6 6.6 6.6S353 40.6 353 36.9M342.7 36.9c0-2 1.6-3.6 3.6-3.6s3.6 1.6 3.6 3.6c0 2-1.6 3.6-3.6 3.6S342.7 38.9 342.7 36.9" class="a"/><path d="M13.2 36.9c0-3.6-3-6.6-6.6-6.6C3 30.3 0 33.3 0 36.9c0 3.6 3 6.6 6.6 6.6C10.3 43.5 13.2 40.6 13.2 36.9M3 36.9c0-2 1.6-3.6 3.6-3.6 2 0 3.6 1.6 3.6 3.6 0 2-1.6 3.6-3.6 3.6C4.6 40.5 3 38.9 3 36.9" class="a"/></svg>
