<svg xmlns="http://www.w3.org/2000/svg" width="880"  height="128.426" viewBox="0 0 846.7 123.6"><style>.a{fill:#A8BEC4;}</style><path d="M832 66l-6.1 6.1 -51.5 51.5h4.2l19.9-19.9v19.9h3v-19.9l19.9 19.9h4.2l-22-22h31.4c-0.3 8.2-3.5 15.9-9 22h3.9c5.3-6.7 8.2-14.9 8.2-23.5 0-9.7-3.6-18.8-10.1-25.8l4-4c13.8 14.8 15.4 36.9 4.9 53.3h3.5c10.4-17.9 8-41.2-7.3-56.5L832 66zM835.1 98.5H803.7l22.2-22.2C831.5 82.4 834.7 90.2 835.1 98.5" class="a"/><path d="M759 62.2c6.4 5.6 14.5 8.7 22.9 8.7s16.5-3.1 22.9-8.7L806 61.1l-1.3-1.1c-6.4-5.6-14.5-8.7-22.9-8.7s-16.5 3.1-22.9 8.7l-1.3 1.1L759 62.2zM781.9 54.2c7.1 0 13.9 2.4 19.5 6.9 -5.6 4.4-12.5 6.9-19.5 6.9 -7.1 0-13.9-2.4-19.5-6.9C768 56.6 774.8 54.2 781.9 54.2" class="a"/><path d="M756.2 123.6c6.9-8.1 11.1-18.7 11.1-30.1h0c0-12.6-5-24-13.1-32.4l7.3-7.3 -2.1-2.1 -7.3 7.3c-8.3-7.6-19.3-12.2-31.4-12.2 -25.7 0-46.7 20.9-46.7 46.7 0 11.5 4.2 22 11.1 30.1h4c-7.5-7.8-12.1-18.5-12.1-30.1 0-24.1 19.6-43.7 43.7-43.7 24.1 0 43.7 19.6 43.7 43.7h0c0 11.7-4.6 22.3-12.1 30.1H756.2z" class="a"/><path d="M702.7 97.8c0-1.3-0.3-2.6-1-3.7l-6.5-11.3 -6.5 11.3c-0.7 1.1-1 2.4-1 3.8 0 4.2 3.4 7.5 7.5 7.5S702.7 102 702.7 97.8M695.1 102.3c-2.5 0-4.5-2-4.5-4.5 0-0.8 0.2-1.6 0.6-2.2l3.9-6.8 3.9 6.8c0.4 0.7 0.6 1.4 0.6 2.3C699.7 100.3 697.7 102.3 695.1 102.3" class="a"/><path d="M418.8 77.8c-0.7 1.1-1 2.4-1 3.8 0 4.2 3.4 7.5 7.5 7.5 4.2 0 7.5-3.4 7.5-7.5 0-1.3-0.3-2.6-1-3.8l-6.5-11.3L418.8 77.8zM429.9 81.5c0 2.5-2 4.5-4.5 4.5 -2.5 0-4.5-2-4.5-4.5 0-0.8 0.2-1.6 0.6-2.3l3.9-6.8 3.9 6.8C429.7 80 429.9 80.7 429.9 81.5" class="a"/><path d="M719.5 74.3c0-1.2-1-2.3-2.3-2.3 -1.2 0-2.3 1-2.3 2.3 0 1.3 1 2.3 2.3 2.3C718.5 76.6 719.5 75.6 719.5 74.3" class="a"/><path d="M707.4 74.3c0-1.2-1-2.3-2.3-2.3s-2.3 1-2.3 2.3c0 1.3 1 2.3 2.3 2.3S707.4 75.6 707.4 74.3" class="a"/><path d="M713.5 68.3c0-1.3-1-2.3-2.3-2.3 -1.3 0-2.3 1-2.3 2.3 0 1.3 1 2.3 2.3 2.3C712.4 70.6 713.5 69.5 713.5 68.3" class="a"/><path d="M465.3 89.2c0 2.9 2.4 5.3 5.3 5.3s5.3-2.4 5.3-5.3c0-2.9-2.4-5.3-5.3-5.3S465.3 86.3 465.3 89.2M470.5 86.9c1.3 0 2.3 1 2.3 2.3 0 1.3-1 2.3-2.3 2.3s-2.3-1-2.3-2.3C468.3 87.9 469.3 86.9 470.5 86.9" class="a"/><path d="M503 115.6c0 2.9 2.4 5.3 5.3 5.3s5.3-2.4 5.3-5.3c0-2.9-2.4-5.3-5.3-5.3S503 112.7 503 115.6M510.6 115.6c0 1.3-1 2.3-2.3 2.3 -1.3 0-2.3-1-2.3-2.3s1-2.3 2.3-2.3C509.5 113.3 510.6 114.4 510.6 115.6" class="a"/><path d="M533.2 106.6c0 2.9 2.4 5.3 5.3 5.3s5.3-2.4 5.3-5.3c0-2.9-2.4-5.3-5.3-5.3S533.2 103.7 533.2 106.6M540.7 106.6c0 1.3-1 2.3-2.3 2.3s-2.3-1-2.3-2.3 1-2.3 2.3-2.3S540.7 105.3 540.7 106.6" class="a"/><path d="M565.3 47.4l7-4 -1.5-2.6 -7 4c-8.2-1.5-16.6-0.1-23.7 4 -7.3 4.2-12.8 11-15.5 19.1l-0.5 1.6 1.7 0.3c2.3 0.5 4.7 0.7 7 0.7 6.1 0 12-1.6 17.2-4.6C557.2 61.9 562.6 55.3 565.3 47.4M548.5 63.4c-6.1 3.6-13.3 4.9-20.5 3.8 2.6-6.7 7.4-12.3 13.6-15.8 6.1-3.5 13.4-4.9 20.5-3.8C559.4 54.3 554.7 59.8 548.5 63.4" class="a"/><path d="M555.4 72.8l-1.5-2.6 -7 4c-8.2-1.5-16.6-0.1-23.7 4 -7.3 4.2-12.8 11-15.5 19.1l-0.5 1.6 1.7 0.3c2.3 0.5 4.7 0.7 7 0.7 6.1 0 12-1.6 17.2-4.6 7.1-4.1 12.5-10.7 15.3-18.5L555.4 72.8zM531.6 92.8c-6.1 3.6-13.4 4.9-20.5 3.8 2.6-6.7 7.4-12.3 13.6-15.8 6.1-3.5 13.4-4.9 20.5-3.8C542.5 83.7 537.7 89.3 531.6 92.8" class="a"/><path d="M512.1 8.6v8c-5.4 6.3-8.4 14.3-8.4 22.6 0 8.4 3.1 16.6 8.8 23l1.1 1.3 1.1-1.3c5.7-6.4 8.8-14.6 8.8-23 0-8.2-3-16.2-8.4-22.5V8.6H512.1zM513.5 58.8c-4.5-5.6-6.9-12.5-6.9-19.6s2.4-14 6.9-19.6c4.5 5.6 6.9 12.6 6.9 19.6C520.4 46.3 518 53.2 513.5 58.8" class="a"/><path d="M495.1 38v8c-5.4 6.3-8.4 14.3-8.4 22.6 0 8.4 3.1 16.6 8.8 23l1.1 1.3 1.1-1.3c5.7-6.4 8.8-14.6 8.8-23 0-8.2-3-16.2-8.4-22.5v-8.1H495.1zM496.6 88.3c-4.5-5.6-6.9-12.5-6.9-19.6 0-7.1 2.4-14 6.9-19.6 4.5 5.6 6.9 12.6 6.9 19.6C503.5 75.7 501 82.6 496.6 88.3" class="a"/><path d="M469.1 69.7c25.6 25.4 16 51.1 15.9 51.3l1.4 0.5 1.3 0.8 43.1-74.6c7.9-2.8 14.4-8.2 18.5-15.3 4.1-7.1 5.5-15.5 4-23.7l4.1-7.1L554.8 0l-4.1 7.1c-7.9 2.8-14.4 8.2-18.5 15.3 -4.1 7.1-5.5 15.5-4 23.7l-38.5 66.7c0.2-2.3 0.3-5 0.1-7.9 -0.7-9.3-4.5-23.3-18.5-37.3L469.1 69.7zM534.8 23.9c3.5-6.1 9.1-10.9 15.8-13.6 1 7.1-0.3 14.3-3.8 20.5 -3.5 6.1-9.1 10.9-15.8 13.6C529.9 37.3 531.2 30.1 534.8 23.9" class="a"/><path d="M447.4 108.6l-1.3 1.1 1.3 1.1c4.5 4 10.2 6.1 16.1 6.1 5.9 0 11.6-2.2 16.1-6.1l1.3-1.1 -1.3-1.1c-4.5-4-10.2-6.1-16.1-6.1C457.6 102.4 451.9 104.6 447.4 108.6M463.5 114c-4.6 0-9-1.5-12.7-4.3 3.7-2.8 8.2-4.3 12.7-4.3 4.6 0 9 1.5 12.7 4.3C472.6 112.5 468.1 114 463.5 114" class="a"/><path d="M621.1 115.9c3.6 0 7.2-0.5 10.6-1.4 6.9-1.9 13.3-5.5 18.8-10.9l1.9-1.9 -2.6-0.7c-7.4-1.9-14.7-1.9-21.7 0h0c-4.7 1.3-9.2 3.4-13.3 6.3l10.8-18.8 8.5 4.9c1.2 0.7 2.6 1.1 4 1.1 4.4 0 8-3.6 8-8 0-3.8-2.6-7-6.2-7.8 0.2-0.2 0.3-0.5 0.5-0.8 1.2-2 1.5-4.3 1-6.4l4 2.3c1.2 0.7 2.6 1.1 4 1.1 4.4 0 8-3.6 8-8 0-3.8-2.6-7-6.2-7.8 0.2-0.2 0.3-0.5 0.5-0.8 1.1-2 1.5-4.2 1-6.4l4 2.3c1.2 0.7 2.6 1.1 4 1.1 4.4 0 8-3.6 8-8 0-3.8-2.6-7-6.2-7.8 0.2-0.2 0.3-0.5 0.5-0.8 1.2-2 1.5-4.3 1-6.4l4 2.3c1.2 0.7 2.6 1.1 4 1.1 4.4 0 8-3.6 8-8 0-3.8-2.6-7-6.2-7.8 0.2-0.2 0.3-0.5 0.5-0.8 1.2-2.1 1.5-4.5 0.9-6.9 -0.6-2.3-2.1-4.3-4.2-5.5 -2.1-1.2-4.5-1.5-6.9-0.9 -2.3 0.6-4.3 2.1-5.5 4.2 -0.2 0.3-0.3 0.5-0.4 0.8 -1-1.1-2.3-1.9-3.8-2.2 -2.1-0.6-4.2-0.3-6.1 0.8 -1.9 1.1-3.2 2.8-3.7 4.9 -0.6 2.1-0.3 4.2 0.8 6.1 0.7 1.2 1.7 2.2 2.9 2.9l4 2.3c-2.1 0.7-3.9 2.1-5 4.1 -0.2 0.3-0.3 0.5-0.4 0.8 -1-1.1-2.3-1.9-3.8-2.2 -2.1-0.6-4.2-0.3-6.1 0.8 -1.9 1.1-3.2 2.8-3.7 4.9 -0.6 2.1-0.3 4.2 0.8 6.1 0.7 1.2 1.7 2.2 2.9 2.9l4 2.3c-2.1 0.7-3.9 2.1-5 4.1 -0.2 0.3-0.3 0.5-0.4 0.8 -2.5-2.6-6.6-3.3-9.8-1.4 -3.8 2.2-5.1 7.1-2.9 11 0.7 1.2 1.7 2.2 2.9 2.9l4 2.3c-2.1 0.7-3.9 2.1-5 4.1 -0.2 0.3-0.3 0.5-0.4 0.8 -2.5-2.6-6.6-3.3-9.8-1.4 -3.8 2.2-5.1 7.1-2.9 11 0.7 1.2 1.7 2.2 2.9 2.9l7.5 4.4 1 0.6 -15.1 26.2 -0.6 0.5 0.2 0.1 -3.3 5.7c0.9-5.9 0.6-11.7-0.9-17.3 -1.9-6.9-5.5-13.3-10.9-18.8l-1.9-1.9 -0.7 2.6c-1.9 7.4-1.9 14.7 0 21.7 1.7 6.5 5.1 12.4 9.8 17.6h5.6l5.1-8.9C614.2 115.5 617.7 115.9 621.1 115.9M628.9 104L628.9 104c5.6-1.5 11.4-1.7 17.4-0.6 -4.6 3.9-9.8 6.7-15.3 8.2 -5.6 1.5-11.4 1.7-17.4 0.6C618.2 108.3 623.3 105.5 628.9 104M643.2 86.6c0 2.8-2.2 5-5 5 -0.9 0-1.7-0.2-2.5-0.7l-7.5-4.4 0 0 7.6-4.4c0.8-0.4 1.6-0.7 2.5-0.7C641 81.6 643.2 83.8 643.2 86.6M654.5 67c0 2.8-2.3 5-5 5 -0.9 0-1.7-0.2-2.5-0.7l-7.5-4.4 0.2-0.1 7.3-4.2c0.8-0.4 1.6-0.7 2.5-0.7C652.3 62 654.5 64.2 654.5 67M665.9 47.4c0 2.8-2.2 5-5 5 -0.9 0-1.7-0.2-2.5-0.7l-7.5-4.4 7.6-4.4c0.8-0.4 1.6-0.7 2.5-0.7C663.6 42.4 665.9 44.6 665.9 47.4M677.2 27.8c0 2.8-2.2 5-5 5 -0.9 0-1.7-0.2-2.5-0.7l-7.5-4.4 0 0 7.6-4.4c0.8-0.4 1.6-0.7 2.5-0.7C674.9 22.8 677.2 25 677.2 27.8M660.6 14.7c0-1.1 0.3-2.1 0.8-3 0.8-1.4 2.1-2.4 3.7-2.8 0.5-0.1 1.1-0.2 1.6-0.2 1 0 2.1 0.3 3 0.8 1.4 0.8 2.4 2.1 2.8 3.7 0.4 1.6 0.2 3.2-0.6 4.6 -0.5 0.9-1.3 1.7-2.2 2.2l-1.5 0.9c0 0 0 0 0 0l-7.5 4.4v-8.7V14.7zM648.3 19c-0.7-1.2-0.8-2.5-0.5-3.8 0.3-1.3 1.2-2.4 2.3-3 0.8-0.4 1.6-0.7 2.5-0.7 0.4 0 0.9 0.1 1.3 0.2 1.3 0.3 2.4 1.2 3 2.3 0.4 0.8 0.7 1.6 0.7 2.5v8.7l-7.5-4.4C649.3 20.4 648.7 19.8 648.3 19M650.1 31.3c1.1-1.9 3.2-3 5.2-3 1 0 2.1 0.3 3 0.8l0 0c1.4 0.8 2.4 2.1 2.8 3.7 0.4 1.6 0.2 3.2-0.6 4.6 -0.5 0.9-1.3 1.7-2.2 2.2l-1.5 0.9 0 0 -7.5 4.4 0-8.7c0 0 0 0 0 0v-1.8C649.3 33.2 649.6 32.2 650.1 31.3M636.9 38.6c-0.7-1.2-0.8-2.5-0.5-3.8 0.3-1.3 1.2-2.4 2.3-3 0.8-0.4 1.6-0.7 2.5-0.7 0.4 0 0.9 0.1 1.3 0.2 1.3 0.3 2.4 1.2 3 2.3 0.4 0.8 0.7 1.6 0.7 2.5v8.7l-7.5-4.4C638 40 637.4 39.4 636.9 38.6M638 53.9c0-1.1 0.3-2.1 0.8-3 0.8-1.4 2.1-2.4 3.7-2.8 0.5-0.1 1.1-0.2 1.6-0.2 1 0 2.1 0.3 3 0.8 1.4 0.8 2.4 2.1 2.8 3.7 0.4 1.6 0.2 3.2-0.6 4.6 -0.5 0.9-1.3 1.7-2.2 2.2l-1.5 0.9c0 0 0 0 0 0l-7.5 4.4v-8.7V53.9zM625.6 58.2c-0.7-1.2-0.8-2.5-0.5-3.8 0.3-1.3 1.2-2.4 2.3-3 0.8-0.5 1.6-0.7 2.5-0.7 1.7 0 3.4 0.9 4.4 2.5 0.4 0.8 0.7 1.6 0.7 2.5v8.7l-7.5-4.4C626.7 59.6 626.1 59 625.6 58.2M627.5 70.5c0.8-1.4 2.1-2.4 3.7-2.8 0.5-0.1 1.1-0.2 1.6-0.2 1 0 2.1 0.3 3 0.8l0 0c2.9 1.7 3.9 5.4 2.2 8.3 -0.5 0.9-1.3 1.7-2.2 2.2l-1.5 0.9c0 0 0 0 0 0l-7.5 4.4v-8.7c0 0 0 0 0 0V73.5C626.7 72.5 626.9 71.4 627.5 70.5M614.3 77.8c-1.4-2.4-0.6-5.5 1.8-6.9 2.4-1.4 5.5-0.6 6.9 1.8 0.4 0.8 0.7 1.6 0.7 2.5l0 8.7 -7.5-4.4C615.4 79.2 614.7 78.6 614.3 77.8M601.2 120.5c-3.9-4.6-6.7-9.8-8.2-15.3 -1.5-5.6-1.7-11.4-0.6-17.4 3.9 4.6 6.7 9.8 8.2 15.3C602.1 108.7 602.3 114.5 601.2 120.5" class="a"/><path d="M14.7 66l-1.1 1.1c-15.3 15.3-17.7 38.7-7.3 56.5h3.5c-10.6-16.5-8.9-38.6 4.9-53.3l4 4C5.9 88 5.3 109 16.7 123.6h3.9c-5.7-6.3-8.7-14.1-9-22h31.4l-22 22h4.2l19.9-19.9v19.9h3v-19.9l19.9 19.9h4.2L47.7 99 14.7 66zM43 98.5H11.6c0.3-8 3.4-15.9 9.2-22.2L43 98.5z" class="a"/><path d="M87.7 62.2l1.3-1.1 -1.3-1.1c-6.4-5.6-14.5-8.7-22.9-8.7s-16.5 3.1-22.9 8.7l-1.3 1.1 1.3 1.1c6.4 5.6 14.5 8.7 22.9 8.7S81.3 67.8 87.7 62.2M64.8 54.2c7.1 0 13.9 2.4 19.5 6.9 -5.6 4.4-12.5 6.9-19.5 6.9s-13.9-2.4-19.5-6.9C50.9 56.6 57.8 54.2 64.8 54.2" class="a"/><path d="M172.8 93.4c0-25.7-20.9-46.7-46.7-46.7 -12.1 0-23.1 4.6-31.4 12.2l-7.3-7.3 -2.1 2.1 7.3 7.3c-8.1 8.4-13.1 19.8-13.1 32.4h0c0 11.5 4.2 22 11.1 30.2h4c-7.5-7.8-12.1-18.5-12.1-30.1h0c0-24.1 19.6-43.7 43.7-43.7s43.7 19.6 43.7 43.7c0 11.7-4.6 22.3-12.1 30.2h4C168.6 115.4 172.8 104.9 172.8 93.4" class="a"/><path d="M159.1 97.8c0-1.3-0.3-2.6-1-3.7l-6.5-11.3 -6.5 11.3c-0.7 1.1-1 2.4-1 3.8 0 4.2 3.4 7.5 7.5 7.5C155.7 105.3 159.1 102 159.1 97.8M147 97.8c0-0.8 0.2-1.6 0.6-2.2l3.9-6.8 3.9 6.8c0.4 0.7 0.6 1.4 0.6 2.3 0 2.5-2 4.5-4.5 4.5S147 100.3 147 97.8" class="a"/><path d="M131.7 74.3c0-1.2-1-2.3-2.3-2.3 -1.3 0-2.3 1-2.3 2.3 0 1.3 1 2.3 2.3 2.3C130.7 76.6 131.7 75.6 131.7 74.3" class="a"/><path d="M143.8 74.3c0-1.2-1-2.3-2.3-2.3 -1.3 0-2.3 1-2.3 2.3 0 1.3 1 2.3 2.3 2.3C142.8 76.6 143.8 75.6 143.8 74.3" class="a"/><path d="M137.8 68.3c0-1.3-1-2.3-2.3-2.3s-2.3 1-2.3 2.3c0 1.3 1 2.3 2.3 2.3S137.8 69.5 137.8 68.3" class="a"/><path d="M256.5 84.3l-0.7-2.6 -1.9 1.9c-5.3 5.5-9 11.8-10.9 18.8 -1.5 5.6-1.8 11.4-0.9 17.3l-3.3-5.7 0.2-0.1 -0.6-0.5 -15.1-26.2 1-0.6 7.5-4.4c1.2-0.7 2.2-1.7 2.9-2.9 2.2-3.8 0.9-8.7-2.9-11 -3.3-1.9-7.3-1.2-9.8 1.4 -0.1-0.3-0.2-0.5-0.4-0.8 -1.2-2-3-3.4-5-4.1l4-2.3c1.2-0.7 2.2-1.7 2.9-2.9 2.2-3.8 0.9-8.7-2.9-11 -1.9-1.1-4-1.4-6.1-0.8 -1.5 0.4-2.7 1.2-3.8 2.2 -0.1-0.3-0.2-0.5-0.4-0.8 -1.1-2-2.9-3.4-5-4.1l4-2.3c1.2-0.7 2.2-1.7 2.9-2.9 2.2-3.8 0.9-8.7-2.9-10.9 -1.9-1.1-4-1.4-6.1-0.8 -1.5 0.4-2.7 1.2-3.8 2.2 -0.1-0.3-0.2-0.5-0.4-0.8 -1.2-2-3-3.4-5-4.1l4-2.3c1.2-0.7 2.2-1.7 2.9-2.9 1.1-1.9 1.4-4 0.8-6.1 -0.6-2.1-1.9-3.8-3.7-4.9 -3.3-1.9-7.3-1.2-9.8 1.4 -0.1-0.3-0.2-0.5-0.4-0.8 -1.2-2.1-3.2-3.6-5.5-4.2 -2.3-0.6-4.8-0.3-6.9 0.9 -2.1 1.2-3.6 3.2-4.2 5.5 -0.6 2.3-0.3 4.8 0.9 6.9 0.2 0.3 0.3 0.5 0.5 0.8 -3.5 0.8-6.2 4-6.2 7.8 0 4.4 3.6 8 8 8 1.4 0 2.8-0.4 4-1.1l4-2.3c-0.5 2.2-0.1 4.4 1 6.4 0.2 0.3 0.3 0.5 0.5 0.8 -3.5 0.8-6.2 4-6.2 7.8 0 4.4 3.6 8 8 8 1.4 0 2.8-0.4 4-1.1l4-2.3c-0.5 2.1-0.2 4.4 1 6.4 0.2 0.3 0.3 0.5 0.5 0.8 -3.5 0.8-6.2 4-6.2 7.8 0 4.4 3.6 8 8 8 1.4 0 2.8-0.4 4-1.1l4-2.3c-0.5 2.1-0.2 4.4 1 6.4 0.2 0.3 0.3 0.5 0.5 0.8 -3.5 0.8-6.2 4-6.2 7.8 0 4.4 3.6 8 8 8 1.4 0 2.8-0.4 4-1.1l8.5-4.9 10.8 18.8c-4.1-2.9-8.5-5-13.3-6.3 -6.9-1.9-14.2-1.9-21.7 0l-2.6 0.7 1.9 1.9c5.5 5.3 11.8 9 18.8 10.9 3.5 0.9 7 1.4 10.6 1.4 3.4 0 6.9-0.4 10.4-1.3l5.1 8.9h5.6c4.8-5.2 8.1-11.2 9.8-17.6C258.4 99 258.4 91.7 256.5 84.3M215.7 111.6c-5.6-1.5-10.7-4.2-15.3-8.2 6-1.1 11.8-0.9 17.4 0.6 5.6 1.5 10.7 4.2 15.3 8.2C227.1 113.3 221.3 113.1 215.7 111.6M228 70.3c0.9 0 1.7 0.2 2.5 0.7 2.4 1.4 3.2 4.5 1.8 6.9 -0.4 0.8-1.1 1.4-1.8 1.8l-7.5 4.4v-8.7c0-0.9 0.2-1.7 0.7-2.5C224.6 71.2 226.3 70.3 228 70.3M219.2 70.5c0.5 0.9 0.8 1.9 0.8 3v1.8c0 0 0 0 0 0v8.7l-7.5-4.4c0 0 0 0 0 0l-1.5-0.9c-0.9-0.5-1.7-1.3-2.2-2.2 -1.7-2.9-0.7-6.6 2.2-8.3h0c0 0 0 0 0 0C213.8 66.6 217.5 67.6 219.2 70.5M215.4 50.9c0.4-0.1 0.9-0.2 1.3-0.2 0.9 0 1.7 0.2 2.5 0.7 2.4 1.4 3.2 4.5 1.8 6.9 -0.4 0.8-1.1 1.4-1.8 1.8l-7.5 4.4v-8.7c0-0.9 0.2-1.7 0.7-2.5C213 52 214.1 51.2 215.4 50.9M207.9 50.9c0.5 0.9 0.8 1.9 0.8 3v1.8c0 0 0 0 0 0v8.7l-9.1-5.3c-0.9-0.5-1.7-1.3-2.2-2.2 -1.7-2.9-0.7-6.6 2.2-8.3 0.9-0.5 2-0.8 3-0.8 0.5 0 1.1 0.1 1.6 0.2C205.8 48.5 207.1 49.5 207.9 50.9M204.1 31.3c0.4-0.1 0.9-0.2 1.3-0.2 0.9 0 1.7 0.2 2.5 0.7 2.4 1.4 3.2 4.5 1.8 6.9 -0.4 0.8-1.1 1.4-1.8 1.8l-7.5 4.4v-8.7c0-0.9 0.2-1.7 0.7-2.5C201.7 32.4 202.8 31.6 204.1 31.3M191.3 28.3c2.1 0 4.1 1.1 5.2 3 0.5 0.9 0.8 1.9 0.8 3v1.8 8.7l-7.5-4.4c0 0 0 0 0 0l-1.5-0.9c-0.9-0.5-1.7-1.3-2.2-2.2 -0.8-1.4-1-3-0.6-4.6 0.4-1.6 1.4-2.9 2.8-3.7l0 0C189.3 28.5 190.3 28.3 191.3 28.3M194.1 11.5c0.9 0 1.7 0.2 2.5 0.7 1.2 0.7 2 1.8 2.3 3 0.3 1.3 0.2 2.6-0.5 3.8 -0.4 0.8-1.1 1.4-1.8 1.8l-7.5 4.4v-8.7c0-0.9 0.2-1.7 0.7-2.5C190.7 12.4 192.4 11.5 194.1 11.5M174.2 13.1c0.4-1.6 1.4-2.9 2.8-3.7 0.9-0.5 2-0.8 3-0.8 0.5 0 1.1 0.1 1.6 0.2 1.6 0.4 2.9 1.4 3.7 2.8 0.5 0.9 0.8 1.9 0.8 3v1.8 8.7l-7.5-4.4c0 0 0 0 0 0l-1.5-0.9c-0.9-0.5-1.7-1.3-2.2-2.2C174 16.3 173.8 14.7 174.2 13.1M177 32.1c-0.8 0.4-1.6 0.7-2.5 0.7 -2.8 0-5-2.2-5-5 0-2.8 2.3-5 5-5 0.9 0 1.7 0.2 2.5 0.7l6.3 3.7 1.2 0.7L177 32.1zM188.3 51.7c-0.8 0.4-1.6 0.7-2.5 0.7 -2.8 0-5-2.2-5-5 0-2.8 2.3-5 5-5 0.9 0 1.7 0.2 2.5 0.7l7.6 4.4L188.3 51.7zM199.7 71.4c-0.8 0.4-1.6 0.7-2.5 0.7 -2.8 0-5-2.2-5-5 0-2.8 2.3-5 5-5 0.9 0 1.7 0.2 2.5 0.7l6.8 4L207.2 67 199.7 71.4zM211 91c-0.8 0.4-1.6 0.7-2.5 0.7 -2.8 0-5-2.2-5-5 0-2.8 2.3-5 5-5 0.9 0 1.7 0.2 2.5 0.7l4.7 2.7 2.9 1.6L211 91zM253.7 105.2c-1.5 5.6-4.2 10.7-8.2 15.3 -1.1-6-0.9-11.8 0.6-17.4 1.5-5.6 4.2-10.7 8.2-15.3C255.4 93.7 255.2 99.6 253.7 105.2" class="a"/><path d="M375.3 83.9c-2.9 0-5.3 2.4-5.3 5.3 0 2.9 2.4 5.3 5.3 5.3 2.9 0 5.3-2.4 5.3-5.3C380.5 86.3 378.2 83.9 375.3 83.9M375.3 91.5c-1.3 0-2.3-1-2.3-2.3 0-1.3 1-2.3 2.3-2.3 1.3 0 2.3 1 2.3 2.3C377.5 90.5 376.5 91.5 375.3 91.5" class="a"/><path d="M337.5 120.9c2.9 0 5.3-2.4 5.3-5.3 0-2.9-2.4-5.3-5.3-5.3 -2.9 0-5.3 2.4-5.3 5.3C332.3 118.5 334.6 120.9 337.5 120.9M337.5 113.3c1.3 0 2.3 1 2.3 2.3 0 1.3-1 2.3-2.3 2.3 -1.3 0-2.3-1-2.3-2.3C335.3 114.4 336.3 113.3 337.5 113.3" class="a"/><path d="M302.1 106.6c0 2.9 2.4 5.3 5.3 5.3 2.9 0 5.3-2.4 5.3-5.3 0-2.9-2.4-5.3-5.3-5.3C304.4 101.3 302.1 103.7 302.1 106.6M309.6 106.6c0 1.3-1 2.3-2.3 2.3 -1.3 0-2.3-1-2.3-2.3s1-2.3 2.3-2.3C308.6 104.3 309.6 105.3 309.6 106.6" class="a"/><path d="M313.7 22.4c-4.1-7.1-10.7-12.5-18.5-15.3L291 0 288.4 1.5l4.1 7.1c-1.5 8.2-0.1 16.6 4 23.7 4.1 7.1 10.7 12.5 18.5 15.3l43.1 74.6 1.3-0.7 1.4-0.5c-0.1-0.3-9.8-25.8 15.9-51.3l-2.1-2.1c-17.5 17.4-19.3 35.1-18.4 45.4l-38.6-66.8C319.2 37.9 317.8 29.5 313.7 22.4M299.1 30.8c-3.5-6.1-4.9-13.4-3.8-20.5 6.7 2.7 12.3 7.4 15.8 13.6 3.5 6.1 4.9 13.4 3.8 20.5C308.2 41.7 302.6 37 299.1 30.8" class="a"/><path d="M282 44.8l-7-4 -1.5 2.6 7 4c2.8 7.9 8.2 14.4 15.3 18.5 5.2 3 11.2 4.6 17.2 4.6 2.3 0 4.7-0.2 7-0.7l1.7-0.3 -0.5-1.6c-2.7-8.1-8.2-14.9-15.5-19.1C298.6 44.7 290.2 43.3 282 44.8M304.2 51.4c6.1 3.6 10.9 9.1 13.6 15.8 -7.1 1-14.3-0.3-20.5-3.8 -6.1-3.5-10.9-9.1-13.6-15.8C290.8 46.5 298 47.9 304.2 51.4" class="a"/><path d="M330 100c2.3 0 4.7-0.2 7-0.7l1.7-0.3 -0.5-1.6c-2.7-8.1-8.2-14.9-15.5-19.1 -7.1-4.1-15.5-5.5-23.7-4l-7-4 -1.5 2.6 7 4c2.8 7.9 8.2 14.4 15.3 18.5C318 98.4 324 100 330 100M300.7 77c7.1-1 14.3 0.3 20.5 3.8 6.1 3.6 10.9 9.1 13.6 15.8 -7.1 1-14.3-0.3-20.5-3.8C308.1 89.3 303.4 83.7 300.7 77" class="a"/><path d="M330.8 8.6v8.1c-5.4 6.3-8.4 14.3-8.4 22.5 0 8.4 3.1 16.6 8.8 23l1.1 1.3 1.1-1.3c5.7-6.4 8.8-14.6 8.8-23 0-8.2-3-16.2-8.4-22.6V8.6H330.8zM332.3 58.8c-4.5-5.6-6.9-12.5-6.9-19.6 0-7.1 2.4-14 6.9-19.6 4.5 5.6 6.9 12.6 6.9 19.6S336.7 53.2 332.3 58.8" class="a"/><path d="M347.7 38v8.1c-5.4 6.3-8.4 14.3-8.4 22.5 0 8.4 3.1 16.6 8.8 23l1.1 1.3 1.1-1.3c5.7-6.4 8.8-14.6 8.8-23 0-8.2-3-16.2-8.4-22.6v-8H347.7zM349.3 88.3c-4.5-5.6-6.9-12.5-6.9-19.6s2.4-14 6.9-19.6c4.5 5.6 6.9 12.6 6.9 19.6C356.2 75.7 353.7 82.6 349.3 88.3" class="a"/><path d="M364.9 109.7l1.3 1.1c4.5 4 10.2 6.1 16.1 6.1s11.6-2.2 16.1-6.1l1.3-1.1 -1.3-1.1c-4.5-4-10.2-6.1-16.1-6.1s-11.6 2.2-16.1 6.1L364.9 109.7zM382.3 105.4c4.6 0 9 1.5 12.7 4.3 -3.7 2.8-8.1 4.3-12.7 4.3s-9-1.5-12.7-4.3C373.3 107 377.7 105.4 382.3 105.4" class="a"/><path d="M424.5 11.8l-12.4 7.2v12.5l-10.9 6.3v14.3l12.4 7.2 10.9-6.3 10.9 6.3 12.4-7.2V37.7l-10.9-6.3V18.9L424.5 11.8zM424.5 15.2l9.4 5.4v10.7l-9.4 5.4 -9.4-5.4V20.6L424.5 15.2zM404.2 50.3V39.4l9.3-5.4 9.5 5.5v10.7l-9.4 5.4L404.2 50.3zM444.8 50.3l-9.4 5.4 -9.4-5.4V39.5l9.5-5.5 9.3 5.4V50.3z" class="a"/><path d="M599.2 36.9c0-3.6-3-6.6-6.6-6.6s-6.6 3-6.6 6.6c0 3.6 3 6.6 6.6 6.6S599.2 40.6 599.2 36.9M589 36.9c0-2 1.6-3.6 3.6-3.6s3.6 1.6 3.6 3.6c0 2-1.6 3.6-3.6 3.6S589 38.9 589 36.9" class="a"/><path d="M256.5 36.9c0-3.6-3-6.6-6.6-6.6 -3.6 0-6.6 3-6.6 6.6 0 3.6 3 6.6 6.6 6.6C253.5 43.5 256.5 40.6 256.5 36.9M246.2 36.9c0-2 1.6-3.6 3.6-3.6 2 0 3.6 1.6 3.6 3.6 0 2-1.6 3.6-3.6 3.6C247.9 40.5 246.2 38.9 246.2 36.9" class="a"/></svg>
